<?xml version="1.0" encoding="UTF-8"?>
<svg version="1.1" xmlns="http://www.w3.org/2000/svg" width="1536" height="1024">
<path d="M0 0 C506.88 0 1013.76 0 1536 0 C1536 337.92 1536 675.84 1536 1024 C1029.12 1024 522.24 1024 0 1024 C0 686.08 0 348.16 0 0 Z " fill="#0E1421" transform="translate(0,0)"/>
<path d="M0 0 C0.66 0 1.32 0 2 0 C2.38478516 0.92232422 2.38478516 0.92232422 2.77734375 1.86328125 C5.10815505 6.89599372 5.10815505 6.89599372 9.3359375 10.265625 C11.55040212 10.97816567 13.71533707 11.56695931 16 12 C16 12.66 16 13.32 16 14 C13.99534779 15.6466786 11.88036013 17.08308324 9.75 18.5625 C8.88375 19.2740625 8.88375 19.2740625 8 20 C8 20.66 8 21.32 8 22 C8.59167969 22.15855469 9.18335938 22.31710937 9.79296875 22.48046875 C17.76107091 24.83320365 21.79138975 28.78523957 26 36 C27.01623747 39.85986668 27.13006879 43.52054272 27.14044189 47.5010376 C27.14615204 48.81592667 27.15186218 50.13081573 27.15774536 51.48554993 C27.15899058 52.93600454 27.1601157 54.38645927 27.16113281 55.83691406 C27.16576397 57.36982848 27.17078903 58.90274175 27.17617798 60.43565369 C27.18927549 64.59491974 27.19574178 68.75416966 27.20018864 72.9134531 C27.2031237 75.51447579 27.20722933 78.11549411 27.21169281 80.71651459 C27.2253609 88.86170914 27.23503087 97.00689367 27.2388947 105.15209889 C27.24337359 114.5411663 27.26091651 123.930088 27.2898953 133.31911111 C27.31154105 140.5855375 27.32160053 147.85192298 27.32293582 155.11838126 C27.32398179 159.4541432 27.32984528 163.78976804 27.34775543 168.12549591 C27.36428621 172.20656025 27.36636747 176.28738516 27.35761642 180.36847115 C27.35684872 181.86115474 27.36115346 183.35385148 27.37107468 184.8465023 C27.48244428 202.65523619 27.48244428 202.65523619 21.94921875 209.55859375 C21.20285156 210.17863281 20.45648437 210.79867187 19.6875 211.4375 C18.94886719 212.07558594 18.21023438 212.71367188 17.44921875 213.37109375 C11.60816868 217.25581126 5.91395793 217.28854291 -0.85494995 217.26069641 C-2.33650249 217.26643473 -2.33650249 217.26643473 -3.84798539 217.27228898 C-7.15505884 217.28260137 -10.4619581 217.27863012 -13.76904297 217.2746582 C-16.14115561 217.27900565 -18.51326684 217.28418891 -20.88537598 217.29014587 C-26.65847425 217.30215231 -32.43151837 217.30468765 -38.20462762 217.30234561 C-42.89835732 217.30056122 -47.59207292 217.30231468 -52.28580093 217.30657005 C-53.28857298 217.30746284 -53.28857298 217.30746284 -54.31160305 217.30837366 C-55.66978199 217.30958543 -57.02796094 217.31079957 -58.38613988 217.31201603 C-71.11850656 217.3228883 -83.85084673 217.32073063 -96.58321489 217.31463119 C-108.22367649 217.30946292 -119.86405438 217.32071562 -131.50449942 217.33972941 C-143.46478717 217.35911544 -155.42503534 217.36736243 -167.3853389 217.36360615 C-174.09696655 217.36169519 -180.80852297 217.36417138 -187.52013779 217.37832069 C-193.83206509 217.39088913 -200.1438248 217.38896406 -206.45574951 217.37590981 C-208.77125225 217.37354233 -211.08676675 217.37628482 -213.40225601 217.38453293 C-216.5653929 217.39498728 -219.72796609 217.38690977 -222.89108276 217.3742218 C-224.26240382 217.38528323 -224.26240382 217.38528323 -225.66142833 217.39656812 C-234.22757554 217.32438431 -240.77451022 215.22548978 -247 209 C-251.05043412 203.24139558 -252.12252347 198.50819726 -252.14044189 191.57452393 C-252.14341302 190.93154948 -252.14638414 190.28857503 -252.1494453 189.62611651 C-252.15811003 187.47371287 -252.15963866 185.321365 -252.16113281 183.16894531 C-252.16576259 181.62470379 -252.17078747 180.08046342 -252.17617798 178.53622437 C-252.18928926 174.3418434 -252.19574455 170.14747843 -252.20018864 165.95308018 C-252.20312164 163.33113198 -252.20722689 160.70918813 -252.21169281 158.08724213 C-252.22536488 149.8795757 -252.23503275 141.67191924 -252.2388947 133.46424222 C-252.24337378 123.99761459 -252.2609159 114.53113147 -252.2898953 105.06454778 C-252.3115309 97.7421067 -252.3216 90.41970623 -252.32293582 83.09723353 C-252.32398257 78.72627756 -252.32986267 74.35545747 -252.34775543 69.98453522 C-252.36426847 65.87065675 -252.36637601 61.75701586 -252.35761642 57.643116 C-252.35684776 56.13711281 -252.36116628 54.63109668 -252.37107468 53.12512589 C-252.42857847 43.8369848 -252.14662886 36.67499145 -246.8125 28.75 C-241.52430527 23.57932071 -236.28435929 21.55513573 -228.92136002 21.48367476 C-227.60810053 21.50115181 -227.60810053 21.50115181 -226.26831055 21.51898193 C-225.31817455 21.51556423 -224.36803856 21.51214653 -223.38911057 21.50862527 C-220.22133479 21.50206299 -217.05441581 21.52399553 -213.88671875 21.54589844 C-211.60970581 21.54702727 -209.33269142 21.54639236 -207.05567932 21.54412842 C-200.88473427 21.54298175 -194.71410084 21.56648385 -188.54322815 21.59442425 C-182.09035831 21.61944553 -175.63748117 21.62178049 -169.18457031 21.62652588 C-158.35719779 21.6375419 -147.52995291 21.66251911 -136.70263672 21.69824219 C-125.55322844 21.73498958 -114.40385119 21.76328795 -103.25439453 21.78027344 C-102.56650034 21.78132433 -101.87860615 21.78237523 -101.16986668 21.78345796 C-97.71871149 21.78867833 -94.26755608 21.79373311 -90.81640053 21.79870558 C-62.21085662 21.84013484 -33.60543278 21.91085303 -5 22 C-7.24298382 17.96789125 -8.99297632 16.27425668 -13 14 C-13 13.34 -13 12.68 -13 12 C-11.7625 11.62875 -10.525 11.2575 -9.25 10.875 C-4.8923458 9.25534092 -3.17017441 7.16673487 -1 3 C-0.67 2.01 -0.34 1.02 0 0 Z " fill="#B159C2" transform="translate(540,382)"/>
<path d="M0 0 C0.07018504 17.05520425 0.12303458 34.1103632 0.15543652 51.16567898 C0.17088342 59.08535538 0.19193113 67.00494187 0.22631836 74.92456055 C0.25628758 81.82999216 0.27559082 88.73535862 0.28226548 95.64085346 C0.28616505 99.29484027 0.29528372 102.94864077 0.31719017 106.60256767 C0.34148821 110.68882266 0.34196518 114.77475692 0.34057617 118.86108398 C0.35675491 120.66399399 0.35675491 120.66399399 0.3732605 122.50332642 C0.34496668 130.20826216 -0.08338924 137.36118086 -5.05078125 143.55859375 C-5.79714844 144.17863281 -6.54351563 144.79867187 -7.3125 145.4375 C-8.05113281 146.07558594 -8.78976562 146.71367188 -9.55078125 147.37109375 C-15.41307206 151.26993788 -21.11681281 151.28332526 -27.90878296 151.24050903 C-28.90212918 151.24221788 -29.8954754 151.24392673 -30.91892302 151.24568737 C-34.24468762 151.24897944 -37.5702501 151.23798307 -40.89599609 151.22705078 C-43.28108719 151.22648661 -45.66617864 151.22680335 -48.05126953 151.22793579 C-53.85378054 151.22845044 -59.65622543 151.21978086 -65.45872132 151.20706047 C-72.21188797 151.19275162 -78.96504527 151.18976911 -85.71822496 151.18748413 C-97.76089439 151.18310954 -109.8035367 151.16980685 -121.84619141 151.15087891 C-133.54280461 151.13251399 -145.23941044 151.11836048 -156.93603516 151.10986328 C-157.65731175 151.10933783 -158.37858833 151.10881239 -159.12172179 151.10827102 C-162.74024318 151.1056609 -166.35876462 151.10313349 -169.9772861 151.10064721 C-199.98487641 151.07992207 -229.99243503 151.04455404 -260 151 C-260 150.67 -260 150.34 -260 150 C-259.08989166 149.99191315 -258.17978333 149.98382629 -257.24209595 149.97549438 C-248.67779917 149.89765111 -240.1136618 149.81039189 -231.54957008 149.71247292 C-227.14636021 149.66246247 -222.74317488 149.61613307 -218.33984375 149.578125 C-214.09278412 149.54133189 -209.84592756 149.49498867 -205.59904099 149.44193649 C-203.97631761 149.42336065 -202.35355065 149.40826455 -200.73076248 149.39665604 C-198.46303628 149.37984775 -196.19577842 149.35082705 -193.92822266 149.31884766 C-191.98962875 149.29886215 -191.98962875 149.29886215 -190.01187134 149.2784729 C-186.88706395 149.31306617 -186.88706395 149.31306617 -185 147 C-182.65234375 146.40234375 -182.65234375 146.40234375 -179.9375 145.9375 C-176.66916048 145.58972434 -176.66916048 145.58972434 -174 144 C-172.01732624 143.76868806 -170.03452131 143.53838782 -168.05078125 143.31640625 C-165.51116048 142.92457905 -163.37176872 141.97303332 -161 141 C-158.66752239 140.66073053 -156.33414529 140.32759934 -154 140 C-151.99161804 139.35902703 -149.99172182 138.69100553 -148 138 C-146.83984375 137.71898437 -145.6796875 137.43796875 -144.484375 137.1484375 C-139.30317514 135.87019071 -134.2537567 134.23234388 -129.1875 132.5625 C-127.77694336 132.11293945 -127.77694336 132.11293945 -126.33789062 131.65429688 C-125.43619141 131.35716797 -124.53449219 131.06003906 -123.60546875 130.75390625 C-122.79231201 130.48908447 -121.97915527 130.2242627 -121.14135742 129.95141602 C-118.86970042 128.94210723 -117.70264294 127.77041292 -116 126 C-115.34 126 -114.68 126 -114 126 C-114 125.34 -114 124.68 -114 124 C-113.13375 123.5875 -112.2675 123.175 -111.375 122.75 C-107.94599852 121.05324198 -107.94599852 121.05324198 -104.75 118.8125 C-102 117 -102 117 -100 117 C-100 116.34 -100 115.68 -100 115 C-98.3828125 113.58984375 -98.3828125 113.58984375 -96.125 111.9375 C-87.98072688 105.75646535 -80.67705884 98.7634086 -73.4375 91.5625 C-72.81721924 90.94689209 -72.19693848 90.33128418 -71.55786133 89.69702148 C-70.98060303 89.11766846 -70.40334473 88.53831543 -69.80859375 87.94140625 C-69.03213501 87.16325562 -69.03213501 87.16325562 -68.23999023 86.36938477 C-66.88754702 84.99913888 -66.88754702 84.99913888 -66 83 C-65.34 83 -64.68 83 -64 83 C-63.731875 82.41089844 -63.46375 81.82179688 -63.1875 81.21484375 C-61.98849512 78.97854189 -60.71970563 77.41862459 -59 75.5625 C-52.62714588 68.43128954 -46.84496538 60.73441633 -41.3125 52.9375 C-40.59513672 51.93009766 -40.59513672 51.93009766 -39.86328125 50.90234375 C-38.74919386 48.44731859 -39.34251342 47.58074858 -40 45 C-40.22200703 41.12774968 -40.18512959 37.25299253 -40.1875 33.375 C-40.19974609 32.3128125 -40.21199219 31.250625 -40.22460938 30.15625 C-40.22654297 29.14304687 -40.22847656 28.12984375 -40.23046875 27.0859375 C-40.23457764 26.1582959 -40.23868652 25.2306543 -40.24291992 24.27490234 C-40 22 -40 22 -38 20 C-35.95288086 19.78881836 -35.95288086 19.78881836 -33.46484375 19.83984375 C-32.57345703 19.85080078 -31.68207031 19.86175781 -30.76367188 19.87304688 C-29.83103516 19.89431641 -28.89839844 19.91558594 -27.9375 19.9375 C-26.09252339 19.9717838 -24.24746425 20.00195831 -22.40234375 20.02734375 C-21.17245728 20.05429321 -21.17245728 20.05429321 -19.91772461 20.08178711 C-17.99072326 20.21616836 -17.99072326 20.21616836 -17 19 C-16.12114437 17.46052805 -15.24694813 15.91839482 -14.375 14.375 C-11.90627688 10.22278617 -5.71527484 0 0 0 Z " fill="#3AA7E4" transform="translate(567,448)"/>
<path d="M0 0 C46.4457859 -3.5530138 46.4457859 -3.5530138 55.171875 3.92578125 C58.53285909 8.01015328 60.76937048 12.55086154 62.81054688 17.41015625 C64.61503857 21.33914802 67.23781914 24.32973477 70.0625 27.5625 C75.20472766 33.84457521 79.98910856 40.37179691 84.77172852 46.92919922 C89.48335813 53.3634796 94.40401974 59.60021926 99.421875 65.796875 C102.38382882 69.45728081 105.21215088 73.20542758 108 77 C106.35579692 81.08589388 103.4318639 83.93421917 100.4375 87.0625 C95.83039672 91.96245684 91.45527684 96.97167902 87.2421875 102.21875 C83.8811232 106.38787506 80.41944499 110.47136852 76.96875 114.56640625 C74.99891908 116.82311036 74.99891908 116.82311036 74 119 C73.34 119 72.68 119 72 119 C71.75378906 119.56589844 71.50757813 120.13179687 71.25390625 120.71484375 C69.78463776 123.39248258 68.02247565 125.33043612 65.9375 127.5625 C62.68892508 131.10168226 59.57531784 134.69560168 56.5625 138.4375 C52.71161907 143.19919799 48.64726023 147.71117834 44.5 152.21484375 C41.13457329 155.96413944 37.96746912 159.85834646 34.8125 163.78515625 C31.39686039 167.95900897 31.39686039 167.95900897 28.67147827 168.24050903 C27.21253647 168.2338472 27.21253647 168.2338472 25.72412109 168.22705078 C24.6231308 168.22689972 23.5221405 168.22674866 22.38778687 168.22659302 C21.19505157 168.21627045 20.00231628 168.20594788 18.7734375 168.1953125 C17.55548492 168.1924826 16.33753235 168.18965271 15.08267212 168.18673706 C11.18001617 168.17551256 7.27758697 168.15040372 3.375 168.125 C0.73437831 168.11497314 -1.90624697 168.10584678 -4.546875 168.09765625 C-11.0313278 168.07556581 -17.5156477 168.04206592 -24 168 C-19.90399107 159.44620382 -12.59178834 152.49029295 -6.25390625 145.53515625 C-3.11238977 142.00163079 -0.15740002 138.32708183 2.81640625 134.65234375 C5.45181581 131.45119332 8.20989016 128.37720856 10.984375 125.296875 C13.14519963 122.83453995 15.19815911 120.30373002 17.25 117.75 C21.15942919 112.92387707 25.29721433 108.37966731 29.54443359 103.85449219 C32.81658993 100.3467406 35.88179628 96.74906325 38.875 93 C41.97879361 89.12732492 45.02121861 85.95858104 49 83 C50.46072532 84.60198888 51.91849716 86.20667116 53.375 87.8125 C54.18710938 88.70582031 54.99921875 89.59914063 55.8359375 90.51953125 C58 93 58 93 60 96 C61.90706576 96.40087331 61.90706576 96.40087331 64 96.25 C65.051875 96.22679687 65.051875 96.22679687 66.125 96.203125 C68.08936628 96.10043334 68.08936628 96.10043334 70 95 C68.35411356 89.7141724 65.02997497 85.67960047 61.75 81.3125 C61.12810791 80.4767041 60.50621582 79.6409082 59.86547852 78.77978516 C54.48443366 71.57751568 48.97614317 64.47671565 43.43359375 57.3984375 C40.08882626 53.12430584 36.78935903 48.81684645 33.5 44.5 C28.96933351 38.55825571 24.40436188 32.6445795 19.8125 26.75 C19.22879639 26.00016846 18.64509277 25.25033691 18.04370117 24.4777832 C14.75367239 20.25126513 14.75367239 20.25126513 11.4609375 16.02685547 C10.07543851 14.24913801 8.69349023 12.46872094 7.3125 10.6875 C6.54550781 9.70136719 5.77851562 8.71523438 4.98828125 7.69921875 C3.15061132 5.20446449 1.57307109 2.66570646 0 0 Z " fill="#C45EB2" transform="translate(1039,421)"/>
<path d="M0 0 C9.09959145 6.60295264 15.90112848 14.75229524 18.5625 25.9375 C20.63646269 39.71297847 19.49615782 52.00948568 11.3125 63.625 C6.17980097 69.84446949 0.54478588 73.95404315 -6.8125 77.1875 C-8.0809375 77.7753125 -8.0809375 77.7753125 -9.375 78.375 C-20.04423546 81.93141182 -35.11895616 81.96614615 -45.4296875 77.44140625 C-55.72083429 72.02590114 -64.79491383 64.46458592 -68.8125 53.1875 C-72.6273729 40.0365927 -72.46628284 26.40013939 -65.8125 14.1875 C-59.83779324 4.50639946 -51.3816751 -2.13349075 -40.671875 -5.9296875 C-26.67430739 -9.13156025 -12.25414098 -7.64346921 0 0 Z " fill="#FAFAFA" transform="translate(885.8125,476.8125)"/>
<path d="M0 0 C2.97167969 1.27832031 2.97167969 1.27832031 5.921875 3.078125 C7.01999512 3.7383667 8.11811523 4.3986084 9.24951172 5.07885742 C10.41661621 5.80212794 11.58343951 6.52585238 12.75 7.25 C13.96429094 7.98856383 15.17930552 8.72593916 16.39501953 9.4621582 C19.94418302 11.61901484 23.47392222 13.80559568 27 16 C27.91555664 16.56960449 28.83111328 17.13920898 29.77441406 17.72607422 C33.65602625 20.15074625 37.5224109 22.59810541 41.37890625 25.0625 C46.49019063 28.32488086 51.65102661 31.50535269 56.8125 34.6875 C60.21019658 36.78867021 63.60592864 38.89297921 67 41 C67.7434668 41.46132324 68.48693359 41.92264648 69.25292969 42.39794922 C71.23581762 43.63301822 73.21276051 44.87695627 75.1875 46.125 C76.27417969 46.80820312 77.36085938 47.49140625 78.48046875 48.1953125 C81 50 81 50 83 53 C83 55.875 83 55.875 82 59 C77.27800669 63.44466989 71.89759048 66.70251686 66.375 70.0625 C65.45203125 70.62904297 64.5290625 71.19558594 63.578125 71.77929688 C56.59098907 76.05820369 49.56558847 80.27283988 42.53173828 84.47436523 C36.40534868 88.13948473 30.31946716 91.86645076 24.25 95.625 C23.37714355 96.1627002 22.50428711 96.70040039 21.60498047 97.25439453 C17.4825629 99.80193853 13.39525123 102.38350122 9.3671875 105.078125 C8.28775879 105.788479 8.28775879 105.788479 7.18652344 106.51318359 C5.85854685 107.39042819 4.54047883 108.2829565 3.23535156 109.19384766 C-0.02490846 111.33089208 -1.87996695 112.00171826 -5.8203125 111.9453125 C-9 111 -9 111 -11 108 C-11.25726891 106.01782322 -11.25726891 106.01782322 -11.26742554 103.71791077 C-11.27595551 102.84449539 -11.28448547 101.97108002 -11.29327393 101.07119751 C-11.29191437 99.63808731 -11.29191437 99.63808731 -11.29052734 98.17602539 C-11.29724457 97.16764114 -11.30396179 96.1592569 -11.31088257 95.12031555 C-11.32991599 91.77937932 -11.33378935 88.43864336 -11.3359375 85.09765625 C-11.34236125 82.77981991 -11.34908929 80.46198439 -11.35610962 78.14414978 C-11.36809545 73.28268554 -11.37178905 68.42129243 -11.37060547 63.55981445 C-11.3704021 57.32396791 -11.3977169 51.08857622 -11.43214989 44.85283756 C-11.45436283 40.06507768 -11.45844474 35.27742827 -11.45738602 30.48962212 C-11.45974995 28.19026559 -11.46861774 25.89090637 -11.48405075 23.59160042 C-11.50359875 20.37853037 -11.49791652 17.16645445 -11.48583984 13.95336914 C-11.49707886 12.99998657 -11.50831787 12.046604 -11.51989746 11.06433105 C-11.45852519 4.65394974 -11.45852519 4.65394974 -9.18087769 1.40556335 C-5.95899943 -0.67091899 -3.76128805 -0.45963407 0 0 Z " fill="#FDFCFD" transform="translate(400,442)"/>
<path d="M0 0 C5.94 0 11.88 0 18 0 C22.28955698 11.34349512 26.32877329 22.75023297 30.1824646 34.24783325 C30.68585538 35.74937872 31.19075926 37.25041777 31.69717407 38.75094604 C32.41627194 40.88445323 33.12903556 43.01996871 33.83984375 45.15625 C34.46427368 47.02506836 34.46427368 47.02506836 35.10131836 48.93164062 C36 52 36 52 36 55 C36.66 55 37.32 55 38 55 C38.23203125 53.7934375 38.4640625 52.586875 38.703125 51.34375 C40.14538281 44.86624124 42.47294189 38.7222768 44.75 32.5 C45.65006946 30.01444234 46.54980965 27.52876543 47.44921875 25.04296875 C48.10349854 23.24158447 48.10349854 23.24158447 48.77099609 21.40380859 C50.6540722 16.18850325 52.48090066 10.95366301 54.28613281 5.7109375 C55.89110822 1.10889178 55.89110822 1.10889178 57 0 C58.56172745 -0.08685603 60.12729344 -0.10702219 61.69140625 -0.09765625 C62.63564453 -0.09443359 63.57988281 -0.09121094 64.55273438 -0.08789062 C65.54595703 -0.07951172 66.53917969 -0.07113281 67.5625 -0.0625 C68.55958984 -0.05798828 69.55667969 -0.05347656 70.58398438 -0.04882812 C73.05605138 -0.03700005 75.52798665 -0.01967958 78 0 C76.01028445 6.89005487 73.76566201 13.64390201 71.3046875 20.37890625 C70.95548248 21.34165466 70.60627747 22.30440308 70.24649048 23.29632568 C69.12521979 26.38598714 68.00016751 29.47425579 66.875 32.5625 C66.10453753 34.68308507 65.33435602 36.80377225 64.56445312 38.92456055 C63.42419372 42.06535546 62.28372598 45.20607281 61.14215088 48.34638977 C57.8772384 57.32852174 54.64076279 66.32060125 51.42529297 75.32055664 C51.10963379 76.20090576 50.79397461 77.08125488 50.46875 77.98828125 C50.07333008 79.09490112 50.07333008 79.09490112 49.66992188 80.22387695 C49 82 49 82 48 84 C40.74 84 33.48 84 26 84 C24.86820313 80.56980469 23.73640625 77.13960937 22.5703125 73.60546875 C21.47260089 70.28894617 20.37333958 66.97294107 19.27392578 63.65698242 C18.50993181 61.34990245 17.7475533 59.04228687 16.98681641 56.73413086 C15.89388208 53.41899172 14.79517697 50.10581412 13.6953125 46.79296875 C13.3556546 45.7585112 13.0159967 44.72405365 12.66604614 43.6582489 C12.34586517 42.6974794 12.0256842 41.7367099 11.69580078 40.74682617 C11.41600372 39.90077316 11.13620667 39.05472015 10.84793091 38.18302917 C9.99893621 35.76461239 9.99893621 35.76461239 8 33 C7.50185791 34.51799194 7.50185791 34.51799194 6.99365234 36.06665039 C5.73481968 39.89833315 4.46959452 43.72788174 3.20263672 47.55688477 C2.65993343 49.19988296 2.11885994 50.84342058 1.57958984 52.48754883 C-1.92332606 63.16263613 -5.72050773 73.6097012 -10 84 C-16.93 84 -23.86 84 -31 84 C-33.89604841 76.92435388 -36.48760244 69.80291421 -38.9375 62.5625 C-43.2554575 49.92823462 -47.8801064 37.41812424 -52.57006836 24.91821289 C-60 5.10103794 -60 5.10103794 -60 1 C-52.41 1 -44.82 1 -37 1 C-36.10796875 3.74828125 -35.2159375 6.4965625 -34.296875 9.328125 C-33.41987096 12.02900769 -32.54270655 14.72983825 -31.66552734 17.43066406 C-31.06217006 19.2886827 -30.45897603 21.14675436 -29.85595703 23.00488281 C-28.15660318 28.24103446 -26.45440496 33.47624116 -24.74682617 38.7097168 C-24.27408798 40.15945757 -23.80214467 41.60945798 -23.33129883 43.05981445 C-22.77067424 44.78562362 -22.20585413 46.51006841 -21.640625 48.234375 C-21.34188477 49.14928711 -21.04314453 50.06419922 -20.73535156 51.00683594 C-20.16878925 52.97075938 -20.16878925 52.97075938 -19 54 C-18.67314209 53.00371582 -18.34628418 52.00743164 -18.00952148 50.98095703 C-6.51236199 15.98488852 -6.51236199 15.98488852 0 0 Z " fill="#FAFAFA" transform="translate(966,471)"/>
<path d="M0 0 C0.90921685 2.31411935 1.1494238 3.53721517 0.37915039 5.92285156 C0.03875732 6.5722168 -0.30163574 7.22158203 -0.65234375 7.890625 C-1.01650391 8.59960938 -1.38066406 9.30859375 -1.75585938 10.0390625 C-2.14580078 10.76867187 -2.53574219 11.49828125 -2.9375 12.25 C-3.32357422 12.99507813 -3.70964844 13.74015625 -4.10742188 14.5078125 C-5.06090166 16.34414394 -6.02905677 18.17284207 -7 20 C-11.54193561 18.52337652 -15.93336105 16.8342432 -20.33984375 15 C-29.60961172 11.51532952 -41.26214451 9.62300892 -50.87890625 13.015625 C-54.17632961 15.03172915 -55.83684506 16.75526759 -58 20 C-58.44168149 23.97513337 -58.53579565 26.17819689 -56.32421875 29.5703125 C-50.28849794 35.87992316 -39.74832513 37.39857853 -31.5 39.5 C-17.99539996 42.96696417 -6.12530665 46.26516545 2.50390625 58.0546875 C6.51679974 65.46525736 6.12380111 74.83753866 4.375 82.87109375 C0.84337084 92.97722899 -6.13651245 99.15470699 -15.58203125 103.7109375 C-24.25862178 106.98325164 -32.16122653 108.51002695 -41.4375 108.375 C-42.44594971 108.36557373 -43.45439941 108.35614746 -44.4934082 108.34643555 C-51.68498822 108.2006171 -58.21558058 107.52021524 -65 105 C-66.02222656 104.63648438 -67.04445313 104.27296875 -68.09765625 103.8984375 C-74.30031592 101.51575535 -80.24905324 98.76396305 -85 94 C-86.16209423 90.51371731 -85.88616059 90.13629782 -84.34765625 86.98828125 C-83.98349609 86.23095703 -83.61933594 85.47363281 -83.24414062 84.69335938 C-82.85419922 83.90767578 -82.46425781 83.12199219 -82.0625 82.3125 C-81.48338867 81.11657227 -81.48338867 81.11657227 -80.89257812 79.89648438 C-79.93709398 77.92653557 -78.97267894 75.96150061 -78 74 C-74.67565351 75.62746634 -71.58527381 77.48847893 -68.4375 79.4375 C-57.6719685 85.75240323 -44.20144822 88.9819996 -31.8125 86.1875 C-26.81165424 84.62985952 -23.92469027 83.3870354 -21 79 C-20.53525133 76.89316552 -20.53525133 76.89316552 -20.5 74.625 C-20.42265625 73.49964844 -20.42265625 73.49964844 -20.34375 72.3515625 C-21.36148047 68.70469497 -23.91576445 66.93361781 -27 65 C-30.46590197 63.51738405 -30.46590197 63.51738405 -34.25 62.5 C-35.27903442 62.19437134 -35.27903442 62.19437134 -36.32885742 61.88256836 C-40.08781977 60.77863518 -43.86781188 59.76747713 -47.66015625 58.78515625 C-56.45520123 56.48887673 -64.33199768 54.09384168 -72 49 C-72.61230469 48.60039062 -73.22460938 48.20078125 -73.85546875 47.7890625 C-78.92010839 44.06248815 -81.07138243 38.7858527 -83 33 C-83.72480078 22.53197566 -83.8654886 13.16361284 -77.08203125 4.5703125 C-59.03151549 -14.91785496 -21.23673522 -15.14458087 0 0 Z " fill="#FAFAFB" transform="translate(699,449)"/>
<path d="M0 0 C7.59 0 15.18 0 23 0 C23.33 14.19 23.66 28.38 24 43 C26.31 41.02 28.62 39.04 31 37 C40.02629358 31.78232798 51.22067192 31.53730861 61.22265625 33.6953125 C70.98538081 36.89136263 75.89015474 42.03976307 80.73828125 50.92578125 C84.13257683 59.19609277 84.27282075 67.28014847 84.1953125 76.12890625 C84.1924826 77.35915024 84.18965271 78.58939423 84.18673706 79.85691833 C84.17560547 83.7588808 84.15051358 87.66060774 84.125 91.5625 C84.11382534 94.21939768 84.1058369 96.87629315 84.09765625 99.53320312 C84.07739682 106.0222976 84.03823372 112.51088735 84 119 C76.08 119 68.16 119 60 119 C59.97421875 115.25527344 59.9484375 111.51054688 59.921875 107.65234375 C59.88343368 104.01497973 59.83827991 100.37775645 59.79248047 96.74047852 C59.76430092 94.21776071 59.74307146 91.69495511 59.72900391 89.17211914 C59.70753367 85.54007109 59.6608589 81.90907534 59.609375 78.27734375 C59.60814636 77.15416245 59.60691772 76.03098114 59.60565186 74.87376404 C59.48490107 68.37915398 58.87815339 64.28143258 55 59 C51.51668909 56.08016585 47.45626727 54.77416319 42.9375 54.625 C37.54472687 55.13859744 33.59724093 55.76576837 29.25 59.125 C23.88007494 65.98657091 23.54145178 72.88826709 23.48828125 81.28125 C23.47033005 82.33534058 23.45237885 83.38943115 23.43388367 84.47546387 C23.38003244 87.81693615 23.34596548 91.15826765 23.3125 94.5 C23.27930474 96.77606115 23.24481306 99.05210378 23.20898438 101.328125 C23.12189826 106.88543413 23.06161261 112.4421175 23 118 C15.41 118 7.82 118 0 118 C0 79.06 0 40.12 0 0 Z " fill="#FAFAFA" transform="translate(719,437)"/>
<path d="M0 0 C1.29442017 0.00616333 1.29442017 0.00616333 2.61499023 0.01245117 C3.55149414 0.01438477 4.48799805 0.01631836 5.45288086 0.01831055 C6.43321289 0.03055664 7.41354492 0.04280273 8.42358398 0.05541992 C9.4077832 0.05606445 10.39198242 0.05670898 11.40600586 0.05737305 C18.72090866 0.1027446 18.72090866 0.1027446 19.86108398 1.24291992 C22.71986308 1.47993231 25.55991696 1.66511174 28.42358398 1.80541992 C29.63304687 1.87019531 29.63304687 1.87019531 30.86694336 1.9362793 C32.86477203 2.04267254 34.86290468 2.1433288 36.86108398 2.24291992 C36.94953414 5.38857038 37.00195233 8.53389367 37.04858398 11.68041992 C37.08628906 12.99816406 37.08628906 12.99816406 37.12475586 14.3425293 C37.2046597 21.56050987 36.43641258 28.02989091 31.81030273 33.80151367 C30.69075195 34.73157227 30.69075195 34.73157227 29.54858398 35.68041992 C28.80995117 36.31850586 28.07131836 36.9565918 27.31030273 37.61401367 C21.44801192 41.5128578 15.74427117 41.52624518 8.95230103 41.48342896 C7.4622817 41.48599223 7.4622817 41.48599223 5.94216096 41.48860729 C2.61639636 41.49189936 -0.70916612 41.48090299 -4.03491211 41.4699707 C-6.42000321 41.46940653 -8.80509465 41.46972327 -11.19018555 41.47085571 C-16.99269655 41.47137036 -22.79514144 41.46270079 -28.59763734 41.44998039 C-35.35080399 41.43567154 -42.10396129 41.43268904 -48.85714097 41.43040405 C-60.89981041 41.42602947 -72.94245271 41.41272678 -84.98510742 41.39379883 C-96.68172063 41.37543391 -108.37832646 41.3612804 -120.07495117 41.3527832 C-120.79622776 41.35225776 -121.51750435 41.35173231 -122.2606378 41.35119094 C-125.8791592 41.34858082 -129.49768064 41.34605341 -133.11620212 41.34356713 C-163.12379242 41.32284199 -193.13135104 41.28747396 -223.13891602 41.24291992 C-223.13891602 40.91291992 -223.13891602 40.58291992 -223.13891602 40.24291992 C-221.77375351 40.23078964 -221.77375351 40.23078964 -220.38101196 40.21841431 C-211.81671519 40.14057103 -203.25257781 40.05331181 -194.6884861 39.95539284 C-190.28527622 39.90538239 -185.8820909 39.85905299 -181.47875977 39.82104492 C-177.23170013 39.78425181 -172.98484358 39.73790859 -168.737957 39.68485641 C-167.11523363 39.66628057 -165.49246667 39.65118447 -163.8696785 39.63957596 C-161.60195229 39.62276768 -159.33469443 39.59374698 -157.06713867 39.56176758 C-155.12854477 39.54178207 -155.12854477 39.54178207 -153.15078735 39.52139282 C-150.02597996 39.55598609 -150.02597996 39.55598609 -148.13891602 37.24291992 C-145.79125977 36.64526367 -145.79125977 36.64526367 -143.07641602 36.18041992 C-139.80807649 35.83264426 -139.80807649 35.83264426 -137.13891602 34.24291992 C-135.15624225 34.01160798 -133.17343733 33.78130774 -131.18969727 33.55932617 C-128.6500765 33.16749897 -126.51068474 32.21595324 -124.13891602 31.24291992 C-121.80643841 30.90365045 -119.4730613 30.57051926 -117.13891602 30.24291992 C-115.13053405 29.60194696 -113.13063783 28.93392545 -111.13891602 28.24291992 C-109.27239327 27.78447574 -107.40569406 27.32671117 -105.53735352 26.87573242 C-102.56079711 26.09038692 -99.63780273 25.1669577 -96.70141602 24.24291992 C-92.30242194 22.8663294 -87.96525464 21.66466041 -83.43188477 20.83276367 C-80.92796986 20.24251857 -80.92796986 20.24251857 -77.82641602 18.90307617 C-71.41088267 16.45188975 -64.64965455 15.18090339 -57.95141602 13.74291992 C-57.24227051 13.58951141 -56.533125 13.43610291 -55.80249023 13.27804565 C-38.59049404 9.56950801 -21.81263497 6.56796884 -4.13891602 7.24291992 C-4.18016602 6.45916992 -4.22141602 5.67541992 -4.26391602 4.86791992 C-4.10538043 1.53867256 -3.39542742 0.38562382 0 0 Z " fill="#1650BE" transform="translate(530.138916015625,557.757080078125)"/>
<path d="M0 0 C2.36578664 2.29409613 4.60927047 4.4869304 6.609375 7.11328125 C9.66421377 11.27276251 9.66421377 11.27276251 14.0859375 13.58203125 C17.76959396 13.65734765 20.92582197 13.04945202 24 11 C27.33333333 14.33333333 30.66666667 17.66666667 34 21 C34.66 20.34 35.32 19.68 36 19 C36.495 20.485 36.495 20.485 37 22 C35.44133142 24.16020798 33.8909442 26.08587344 32.125 28.0625 C28.71134582 31.78480607 28.71134582 31.78480607 26 36 C25.34 36 24.68 36 24 36 C23.75378906 36.56589844 23.50757813 37.13179687 23.25390625 37.71484375 C21.78463776 40.39248258 20.02247565 42.33043612 17.9375 44.5625 C14.68892508 48.10168226 11.57531784 51.69560168 8.5625 55.4375 C4.71161907 60.19919799 0.64726023 64.71117834 -3.5 69.21484375 C-6.86542671 72.96413944 -10.03253088 76.85834646 -13.1875 80.78515625 C-16.60313961 84.95900897 -16.60313961 84.95900897 -19.32852173 85.24050903 C-20.3011496 85.23606781 -21.27377747 85.23162659 -22.27587891 85.22705078 C-23.3768692 85.22689972 -24.4778595 85.22674866 -25.61221313 85.22659302 C-26.80494843 85.21627045 -27.99768372 85.20594788 -29.2265625 85.1953125 C-30.44451508 85.1924826 -31.66246765 85.18965271 -32.91732788 85.18673706 C-36.81998383 85.17551256 -40.72241303 85.15040372 -44.625 85.125 C-47.26562169 85.11497314 -49.90624697 85.10584678 -52.546875 85.09765625 C-59.0313278 85.07556581 -65.5156477 85.04206592 -72 85 C-67.90399107 76.44620382 -60.59178834 69.49029295 -54.25390625 62.53515625 C-51.11238977 59.00163079 -48.15740002 55.32708183 -45.18359375 51.65234375 C-42.54818419 48.45119332 -39.79010984 45.37720856 -37.015625 42.296875 C-34.85480037 39.83453995 -32.80184089 37.30373002 -30.75 34.75 C-26.84079912 29.92415891 -22.70143462 25.38232853 -18.45776367 20.85449219 C-14.43567348 16.53797701 -10.69705897 12.06603215 -7.03515625 7.4375 C-4.83034751 4.79680776 -2.46336508 2.39910339 0 0 Z " fill="#7960E1" transform="translate(1087,504)"/>
<path d="M0 0 C2.40444946 -0.36076355 2.40444946 -0.36076355 5.45947266 -0.34057617 C6.60050446 -0.34034958 7.74153625 -0.34012299 8.91714478 -0.33988953 C10.77186905 -0.31666374 10.77186905 -0.31666374 12.6640625 -0.29296875 C13.92640717 -0.28872391 15.18875183 -0.28447906 16.48934937 -0.28010559 C19.84661351 -0.26613137 23.20326932 -0.23917302 26.56036377 -0.20599365 C29.98550148 -0.17531352 33.41070201 -0.1616047 36.8359375 -0.14648438 C43.5574605 -0.11334641 50.27869511 -0.06309539 57 0 C55.10080103 4.06101812 52.43091939 7.20778366 49.5 10.5625 C48.96608643 11.17947754 48.43217285 11.79645508 47.88208008 12.43212891 C43.73120205 17.20998494 39.4936178 21.90313088 35.21875 26.5703125 C31.08936331 31.09228173 27.09327255 35.72770197 23.1015625 40.37109375 C22.0056349 41.64359667 20.90926527 42.915719 19.8125 44.1875 C19.25578613 44.83307861 18.69907227 45.47865723 18.12548828 46.14379883 C13.87405136 51.04897491 9.49248453 55.81590498 5.05053711 60.54833984 C2.29169784 63.51366091 -0.24895808 66.53321696 -2.625 69.8125 C-3.40875 70.864375 -4.1925 71.91625 -5 73 C-5.66 73 -6.32 73 -7 73 C-7.25523438 73.57234375 -7.51046875 74.1446875 -7.7734375 74.734375 C-9.13087159 77.24173733 -10.71974104 79.1330456 -12.625 81.25 C-13.25664063 81.95640625 -13.88828125 82.6628125 -14.5390625 83.390625 C-15.26222656 84.18726563 -15.26222656 84.18726563 -16 85 C-19.54718789 83.53893362 -21.30070896 81.70907835 -23.625 78.6875 C-24.66140625 77.34945312 -24.66140625 77.34945312 -25.71875 75.984375 C-26.4715625 74.99953125 -27.224375 74.0146875 -28 73 C-28.84260998 71.92098378 -29.68639258 70.84288241 -30.53125 69.765625 C-35.28542567 63.67970735 -39.85385768 57.52258974 -44 51 C-42.94211533 49.60066553 -41.8784332 48.20571332 -40.8125 46.8125 C-40.22082031 46.03519531 -39.62914062 45.25789063 -39.01953125 44.45703125 C-36.82801199 41.79075347 -34.45853123 39.4209964 -32 37 C-26.18841398 30.82278439 -20.69492456 24.45006262 -15.375 17.84765625 C-12.25181003 14.10291038 -8.96340691 10.5278283 -5.62915039 6.97094727 C-3.52814486 4.72033334 -1.71416249 2.57124374 0 0 Z " fill="#9C4ECE" transform="translate(1173,405)"/>
<path d="M0 0 C1.56264902 1.84092899 3.00592212 3.68539833 4.4375 5.625 C5.34298571 6.82739886 6.2492626 8.02920224 7.15625 9.23046875 C7.62546875 9.8548584 8.0946875 10.47924805 8.578125 11.12255859 C10.82632368 14.09107642 13.13065215 17.01447333 15.4375 19.9375 C16.36198967 21.1119709 17.28646877 22.28645012 18.2109375 23.4609375 C19.14053984 24.64069211 20.07022744 25.82037954 21 27 C28.47608044 36.48504818 35.88371819 46.01822795 43.22949219 55.60449219 C44.46482547 57.21600944 45.70108134 58.82681539 46.9375 60.4375 C47.34025146 60.96327637 47.74300293 61.48905273 48.15795898 62.03076172 C50.43582968 64.99626603 52.74026942 67.93775106 55.07421875 70.859375 C55.58283447 71.49818604 56.0914502 72.13699707 56.61547852 72.79516602 C57.60527843 74.03597777 58.59912615 75.2735737 59.59741211 76.50756836 C63 80.77790553 63 80.77790553 63 83 C55.67367114 83.40842032 48.35030163 83.68691136 41.01513672 83.87890625 C38.52541491 83.9589803 36.03643657 84.06789166 33.54931641 84.20703125 C13.49155292 85.30036024 13.49155292 85.30036024 7.75656128 81.52194214 C3.98185058 77.85284328 1.44072346 73.58700408 -0.96380615 68.93768311 C-2.30702331 66.42586624 -3.96884623 64.29182191 -5.77734375 62.09765625 C-6.56794189 61.08614502 -6.56794189 61.08614502 -7.37451172 60.05419922 C-7.89029785 59.39693848 -8.40608398 58.73967773 -8.9375 58.0625 C-15.68788262 49.4226973 -22.35460249 40.72070438 -29 32 C-22.23919612 22.92197371 -15.18777887 14.18196022 -7.5625 5.8125 C-7.04220215 5.23540283 -6.5219043 4.65830566 -5.98583984 4.0637207 C-2.23765801 0 -2.23765801 0 0 0 Z " fill="#2DC4E8" transform="translate(1158,506)"/>
<path d="M0 0 C4.43262903 4.07348211 7.75942527 8.28806664 8.30078125 14.390625 C8.32689465 22.99063726 7.84085704 29.19239578 3.375 36.75 C-1.64307295 41.50396385 -7.15039339 43.24932005 -14 43.625 C-20.3631525 43.37371627 -24.46270036 41.4261821 -29 37 C-34.32096451 31.22937652 -34.69587829 24.68646267 -34.59448242 17.17749023 C-34.3037304 11.37598814 -33.17444613 7.22922889 -29 3 C-28.51917969 2.50242187 -28.03835938 2.00484375 -27.54296875 1.4921875 C-19.3884898 -6.03833395 -8.97149745 -5.68802888 0 0 Z " fill="#101623" transform="translate(873,494)"/>
<path d="M0 0 C2.36578664 2.29409613 4.60927047 4.4869304 6.609375 7.11328125 C9.66421377 11.27276251 9.66421377 11.27276251 14.0859375 13.58203125 C17.76959396 13.65734765 20.92582197 13.04945202 24 11 C27.33333333 14.33333333 30.66666667 17.66666667 34 21 C34.66 20.34 35.32 19.68 36 19 C36.495 20.485 36.495 20.485 37 22 C35.44133142 24.16020798 33.8909442 26.08587344 32.125 28.0625 C28.71134582 31.78480607 28.71134582 31.78480607 26 36 C25.34 36 24.68 36 24 36 C23.731875 36.61875 23.46375 37.2375 23.1875 37.875 C22 40 22 40 19 42 C18.65710937 41.49855469 18.31421875 40.99710938 17.9609375 40.48046875 C13.70410444 34.32588499 9.3061441 28.27989719 4.875 22.25 C4.2773584 21.43426514 3.6797168 20.61853027 3.06396484 19.77807617 C-0.16395045 15.39758996 -3.46413752 11.13629195 -7 7 C-4.69 4.69 -2.38 2.38 0 0 Z " fill="#3641AC" transform="translate(1087,504)"/>
<path d="M0 0 C3 1 3 1 4.2109375 3.14453125 C4.59507812 4.02496094 4.97921875 4.90539062 5.375 5.8125 C7.83287523 10.9173178 9.88045347 13.79531846 15.31640625 15.89453125 C17.53159584 16.65372768 19.74984182 17.35289569 22 18 C22 18.66 22 19.32 22 20 C21.34773437 20.27972656 20.69546875 20.55945313 20.0234375 20.84765625 C10.87672146 25.04327379 6.45256929 29.76248455 2.95703125 39.1796875 C2 41 2 41 -1 42 C-1.29390625 40.93072266 -1.29390625 40.93072266 -1.59375 39.83984375 C-4.19485754 31.50957263 -7.73082864 27.01095506 -15.296875 22.6875 C-17.16851895 21.73176692 -19.08100282 20.85669517 -21 20 C-21 19.34 -21 18.68 -21 18 C-20.20335937 17.79246094 -19.40671875 17.58492188 -18.5859375 17.37109375 C-11.52586675 15.31834812 -6.81592645 13.45360192 -3 7 C-1.82511723 4.68624619 -0.89760238 2.44347313 0 0 Z " fill="#8560E2" transform="translate(578,342)"/>
<path d="M0 0 C0.87591797 0.00322266 1.75183594 0.00644531 2.65429688 0.00976562 C3.52634766 -0.00634766 4.39839844 -0.02246094 5.296875 -0.0390625 C6.55467773 -0.0400293 6.55467773 -0.0400293 7.83789062 -0.04101562 C8.60544678 -0.04399658 9.37300293 -0.04697754 10.16381836 -0.05004883 C12.80771334 0.42943028 13.66979636 1.13934993 15.21679688 3.32226562 C15.58911133 5.45117188 15.58911133 5.45117188 15.58007812 7.88476562 C15.57943359 8.76390625 15.57878906 9.64304687 15.578125 10.54882812 C15.56201172 11.4640625 15.54589844 12.37929688 15.52929688 13.32226562 C15.53413086 14.69511719 15.53413086 14.69511719 15.5390625 16.09570312 C15.48401626 22.92143654 15.48401626 22.92143654 13.21679688 26.32226562 C11.18554688 26.69458008 11.18554688 26.69458008 8.71679688 26.68554688 C7.82992187 26.68490234 6.94304688 26.68425781 6.02929688 26.68359375 C4.63710938 26.65942383 4.63710938 26.65942383 3.21679688 26.63476562 C2.28867187 26.63798828 1.36054687 26.64121094 0.40429688 26.64453125 C-6.51626173 26.58920702 -6.51626173 26.58920702 -8.78320312 24.32226562 C-9.04199219 22.10742188 -9.04199219 22.10742188 -9.04882812 19.38476562 C-9.05140625 18.40765625 -9.05398438 17.43054688 -9.05664062 16.42382812 C-9.04890625 15.4003125 -9.04117188 14.37679688 -9.03320312 13.32226562 C-9.0409375 12.29875 -9.04867187 11.27523438 -9.05664062 10.22070312 C-9.0540625 9.24359375 -9.05148437 8.26648438 -9.04882812 7.25976562 C-9.04657227 6.36128906 -9.04431641 5.4628125 -9.04199219 4.53710938 C-8.41804045 -0.80297567 -4.26820093 0.03614335 0 0 Z " fill="#121526" transform="translate(535.783203125,421.677734375)"/>
<path d="M0 0 C0.98033203 -0.01224609 1.96066406 -0.02449219 2.97070312 -0.03710938 C3.90720703 -0.03904297 4.84371094 -0.04097656 5.80859375 -0.04296875 C6.67154053 -0.04707764 7.5344873 -0.05118652 8.42358398 -0.05541992 C10.5625 0.1875 10.5625 0.1875 12.5625 2.1875 C12.82128906 4.31054688 12.82128906 4.31054688 12.828125 6.90625 C12.83199219 8.30423828 12.83199219 8.30423828 12.8359375 9.73046875 C12.82820313 10.70628906 12.82046875 11.68210937 12.8125 12.6875 C12.82023437 13.66332031 12.82796875 14.63914062 12.8359375 15.64453125 C12.83335937 16.57652344 12.83078125 17.50851562 12.828125 18.46875 C12.82586914 19.32533203 12.82361328 20.18191406 12.82128906 21.06445312 C12.5625 23.1875 12.5625 23.1875 10.5625 25.1875 C8.42358398 25.43041992 8.42358398 25.43041992 5.80859375 25.41796875 C4.40383789 25.41506836 4.40383789 25.41506836 2.97070312 25.41210938 C1.50020508 25.39374023 1.50020508 25.39374023 0 25.375 C-0.98419922 25.37435547 -1.96839844 25.37371094 -2.98242188 25.37304688 C-10.29732468 25.32767532 -10.29732468 25.32767532 -11.4375 24.1875 C-11.53682153 22.49191274 -11.56830007 20.79224253 -11.5703125 19.09375 C-11.57224609 17.54880859 -11.57224609 17.54880859 -11.57421875 15.97265625 C-11.57035156 14.88855469 -11.56648438 13.80445313 -11.5625 12.6875 C-11.56636719 11.60339844 -11.57023437 10.51929688 -11.57421875 9.40234375 C-11.57292969 8.37238281 -11.57164062 7.34242188 -11.5703125 6.28125 C-11.56918457 5.32927734 -11.56805664 4.37730469 -11.56689453 3.39648438 C-11.25212632 -1.97714356 -4.12865092 0.00270377 0 0 Z " fill="#131628" transform="translate(316.4375,512.8125)"/>
<path d="M0 0 C0.98033203 -0.01224609 1.96066406 -0.02449219 2.97070312 -0.03710938 C3.90720703 -0.03904297 4.84371094 -0.04097656 5.80859375 -0.04296875 C6.67154053 -0.04707764 7.5344873 -0.05118652 8.42358398 -0.05541992 C10.5625 0.1875 10.5625 0.1875 12.5625 2.1875 C12.82128906 4.31054688 12.82128906 4.31054688 12.828125 6.90625 C12.83199219 8.30423828 12.83199219 8.30423828 12.8359375 9.73046875 C12.82820313 10.70628906 12.82046875 11.68210937 12.8125 12.6875 C12.82023437 13.66332031 12.82796875 14.63914062 12.8359375 15.64453125 C12.83335937 16.57652344 12.83078125 17.50851562 12.828125 18.46875 C12.82586914 19.32533203 12.82361328 20.18191406 12.82128906 21.06445312 C12.5625 23.1875 12.5625 23.1875 10.5625 25.1875 C8.42358398 25.43041992 8.42358398 25.43041992 5.80859375 25.41796875 C4.40383789 25.41506836 4.40383789 25.41506836 2.97070312 25.41210938 C1.50020508 25.39374023 1.50020508 25.39374023 0 25.375 C-0.98419922 25.37435547 -1.96839844 25.37371094 -2.98242188 25.37304688 C-10.29732468 25.32767532 -10.29732468 25.32767532 -11.4375 24.1875 C-11.53682153 22.49191274 -11.56830007 20.79224253 -11.5703125 19.09375 C-11.57224609 17.54880859 -11.57224609 17.54880859 -11.57421875 15.97265625 C-11.57035156 14.88855469 -11.56648438 13.80445313 -11.5625 12.6875 C-11.56636719 11.60339844 -11.57023437 10.51929688 -11.57421875 9.40234375 C-11.57292969 8.37238281 -11.57164062 7.34242188 -11.5703125 6.28125 C-11.56918457 5.32927734 -11.56805664 4.37730469 -11.56689453 3.39648438 C-11.25212632 -1.97714356 -4.12865092 0.00270377 0 0 Z " fill="#131626" transform="translate(316.4375,467.8125)"/>
<path d="M0 0 C0.98033203 -0.01224609 1.96066406 -0.02449219 2.97070312 -0.03710938 C3.90720703 -0.03904297 4.84371094 -0.04097656 5.80859375 -0.04296875 C6.67154053 -0.04707764 7.5344873 -0.05118652 8.42358398 -0.05541992 C10.5625 0.1875 10.5625 0.1875 12.5625 2.1875 C12.82128906 4.31054688 12.82128906 4.31054688 12.828125 6.90625 C12.83199219 8.30423828 12.83199219 8.30423828 12.8359375 9.73046875 C12.82820312 10.70628906 12.82046875 11.68210937 12.8125 12.6875 C12.82023438 13.66332031 12.82796875 14.63914062 12.8359375 15.64453125 C12.83335937 16.57652344 12.83078125 17.50851562 12.828125 18.46875 C12.82586914 19.32533203 12.82361328 20.18191406 12.82128906 21.06445312 C12.5625 23.1875 12.5625 23.1875 10.5625 25.1875 C8.53125 25.44628906 8.53125 25.44628906 6.0625 25.453125 C5.175625 25.45570313 4.28875 25.45828125 3.375 25.4609375 C2.446875 25.45320312 1.51875 25.44546875 0.5625 25.4375 C-0.8296875 25.44910156 -0.8296875 25.44910156 -2.25 25.4609375 C-3.5803125 25.45707031 -3.5803125 25.45707031 -4.9375 25.453125 C-5.7521875 25.45086914 -6.566875 25.44861328 -7.40625 25.44628906 C-9.4375 25.1875 -9.4375 25.1875 -11.4375 23.1875 C-11.68041992 20.95678711 -11.68041992 20.95678711 -11.66796875 18.21484375 C-11.66603516 17.23322266 -11.66410156 16.25160156 -11.66210938 15.24023438 C-11.64986328 14.21220703 -11.63761719 13.18417969 -11.625 12.125 C-11.62435547 11.09310547 -11.62371094 10.06121094 -11.62304688 8.99804688 C-11.56339032 -1.08391107 -9.58271456 0.00627552 0 0 Z " fill="#0E1726" transform="translate(538.4375,557.8125)"/>
<path d="M0 0 C0.98033203 -0.01224609 1.96066406 -0.02449219 2.97070312 -0.03710938 C3.90720703 -0.03904297 4.84371094 -0.04097656 5.80859375 -0.04296875 C6.67154053 -0.04707764 7.5344873 -0.05118652 8.42358398 -0.05541992 C10.5625 0.1875 10.5625 0.1875 12.5625 2.1875 C12.82128906 4.31054688 12.82128906 4.31054688 12.828125 6.90625 C12.83199219 8.30423828 12.83199219 8.30423828 12.8359375 9.73046875 C12.82820313 10.70628906 12.82046875 11.68210937 12.8125 12.6875 C12.82023437 13.66332031 12.82796875 14.63914062 12.8359375 15.64453125 C12.83335937 16.57652344 12.83078125 17.50851562 12.828125 18.46875 C12.82586914 19.32533203 12.82361328 20.18191406 12.82128906 21.06445312 C12.5625 23.1875 12.5625 23.1875 10.5625 25.1875 C8.53125 25.44628906 8.53125 25.44628906 6.0625 25.453125 C5.175625 25.45570313 4.28875 25.45828125 3.375 25.4609375 C2.446875 25.45320312 1.51875 25.44546875 0.5625 25.4375 C-0.8296875 25.44910156 -0.8296875 25.44910156 -2.25 25.4609375 C-3.5803125 25.45707031 -3.5803125 25.45707031 -4.9375 25.453125 C-5.7521875 25.45086914 -6.566875 25.44861328 -7.40625 25.44628906 C-9.4375 25.1875 -9.4375 25.1875 -11.4375 23.1875 C-11.68041992 20.95678711 -11.68041992 20.95678711 -11.66796875 18.21484375 C-11.66603516 17.23322266 -11.66410156 16.25160156 -11.66210938 15.24023438 C-11.64986328 14.21220703 -11.63761719 13.18417969 -11.625 12.125 C-11.62435547 11.09310547 -11.62371094 10.06121094 -11.62304688 8.99804688 C-11.56339032 -1.08391107 -9.58271456 0.00627552 0 0 Z " fill="#111526" transform="translate(316.4375,557.8125)"/>
<path d="M0 0 C3.458176 -0.0868329 6.91607344 -0.14033282 10.375 -0.1875 C11.35984375 -0.21263672 12.3446875 -0.23777344 13.359375 -0.26367188 C14.77089844 -0.27817383 14.77089844 -0.27817383 16.2109375 -0.29296875 C17.08024902 -0.3086792 17.94956055 -0.32438965 18.84521484 -0.34057617 C19.55629395 -0.22818604 20.26737305 -0.1157959 21 0 C23.1097676 3.1646514 23.25552605 3.97393773 23.265625 7.59765625 C23.26949219 8.92313477 23.26949219 8.92313477 23.2734375 10.27539062 C23.26570312 11.19513672 23.25796875 12.11488281 23.25 13.0625 C23.25773438 13.98611328 23.26546875 14.90972656 23.2734375 15.86132812 C23.27085937 16.74369141 23.26828125 17.62605469 23.265625 18.53515625 C23.26336914 19.343479 23.26111328 20.15180176 23.25878906 20.98461914 C23 23 23 23 21 25 C18.86108398 25.24291992 18.86108398 25.24291992 16.24609375 25.23046875 C14.84133789 25.22756836 14.84133789 25.22756836 13.40820312 25.22460938 C11.93770508 25.20624023 11.93770508 25.20624023 10.4375 25.1875 C9.45330078 25.18685547 8.46910156 25.18621094 7.45507812 25.18554688 C0.14017532 25.14017532 0.14017532 25.14017532 -1 24 C-1.0991918 22.38916255 -1.1307982 20.77404356 -1.1328125 19.16015625 C-1.13410156 18.17982422 -1.13539063 17.19949219 -1.13671875 16.18945312 C-1.13285156 15.15755859 -1.12898437 14.12566406 -1.125 13.0625 C-1.12886719 12.03447266 -1.13273438 11.00644531 -1.13671875 9.94726562 C-1.13542969 8.96564453 -1.13414062 7.98402344 -1.1328125 6.97265625 C-1.13168457 6.06781494 -1.13055664 5.16297363 -1.12939453 4.23071289 C-1 2 -1 2 0 0 Z " fill="#101A29" transform="translate(528,513)"/>
<path d="M0 0 C0.886875 -0.00257813 1.77375 -0.00515625 2.6875 -0.0078125 C4.0796875 0.00378906 4.0796875 0.00378906 5.5 0.015625 C6.428125 0.00789063 7.35625 0.00015625 8.3125 -0.0078125 C9.6428125 -0.00394531 9.6428125 -0.00394531 11 0 C11.8146875 0.00225586 12.629375 0.00451172 13.46875 0.00683594 C15.5 0.265625 15.5 0.265625 17.5 2.265625 C17.75878906 4.38867188 17.75878906 4.38867188 17.765625 6.984375 C17.76949219 8.38236328 17.76949219 8.38236328 17.7734375 9.80859375 C17.76570313 10.78441406 17.75796875 11.76023437 17.75 12.765625 C17.75773437 13.74144531 17.76546875 14.71726562 17.7734375 15.72265625 C17.77085937 16.65464844 17.76828125 17.58664062 17.765625 18.546875 C17.76336914 19.40345703 17.76111328 20.26003906 17.75878906 21.14257812 C17.5 23.265625 17.5 23.265625 15.5 25.265625 C13.34521484 25.49267578 13.34521484 25.49267578 10.7109375 25.4609375 C9.76992188 25.45449219 8.82890625 25.44804687 7.859375 25.44140625 C6.87453125 25.42464844 5.8896875 25.40789062 4.875 25.390625 C3.88242187 25.38160156 2.88984375 25.37257813 1.8671875 25.36328125 C-0.58878134 25.33966616 -3.04427168 25.30673299 -5.5 25.265625 C-7.38519529 21.49523443 -6.68475994 16.91407905 -6.6875 12.765625 C-6.69974609 11.78980469 -6.71199219 10.81398438 -6.72460938 9.80859375 C-6.72654297 8.87660156 -6.72847656 7.94460938 -6.73046875 6.984375 C-6.73457764 6.12779297 -6.73868652 5.27121094 -6.74291992 4.38867188 C-6.24889086 0.07100681 -3.72803649 0.01032289 0 0 Z " fill="#121624" transform="translate(311.5,421.734375)"/>
<path d="M0 0 C0.886875 -0.00257813 1.77375 -0.00515625 2.6875 -0.0078125 C4.0796875 0.00378906 4.0796875 0.00378906 5.5 0.015625 C6.428125 0.00789063 7.35625 0.00015625 8.3125 -0.0078125 C9.6428125 -0.00394531 9.6428125 -0.00394531 11 0 C11.8146875 0.00225586 12.629375 0.00451172 13.46875 0.00683594 C15.5 0.265625 15.5 0.265625 17.5 2.265625 C17.75878906 4.38867188 17.75878906 4.38867188 17.765625 6.984375 C17.76949219 8.38236328 17.76949219 8.38236328 17.7734375 9.80859375 C17.76570312 10.78441406 17.75796875 11.76023437 17.75 12.765625 C17.75773438 13.74144531 17.76546875 14.71726562 17.7734375 15.72265625 C17.77085937 16.65464844 17.76828125 17.58664062 17.765625 18.546875 C17.76336914 19.40345703 17.76111328 20.26003906 17.75878906 21.14257812 C17.5 23.265625 17.5 23.265625 15.5 25.265625 C13.46875 25.52441406 13.46875 25.52441406 11 25.53125 C10.113125 25.53382813 9.22625 25.53640625 8.3125 25.5390625 C7.384375 25.53132813 6.45625 25.52359375 5.5 25.515625 C4.1078125 25.52722656 4.1078125 25.52722656 2.6875 25.5390625 C1.3571875 25.53519531 1.3571875 25.53519531 0 25.53125 C-0.8146875 25.52899414 -1.629375 25.52673828 -2.46875 25.52441406 C-4.5 25.265625 -4.5 25.265625 -6.5 23.265625 C-6.75878906 21.14257812 -6.75878906 21.14257812 -6.765625 18.546875 C-6.76820313 17.61488281 -6.77078125 16.68289063 -6.7734375 15.72265625 C-6.76570312 14.74683594 -6.75796875 13.77101563 -6.75 12.765625 C-6.75773438 11.78980469 -6.76546875 10.81398438 -6.7734375 9.80859375 C-6.77085937 8.87660156 -6.76828125 7.94460938 -6.765625 6.984375 C-6.76336914 6.12779297 -6.76111328 5.27121094 -6.75878906 4.38867188 C-6.23318832 0.07676243 -3.73628603 0.01034573 0 0 Z " fill="#0F1625" transform="translate(533.5,467.734375)"/>
<path d="M0 0 C1.25619141 0.03609375 2.51238281 0.0721875 3.80664062 0.109375 C6.89508778 0.20332016 9.97719438 0.334551 13.0625 0.5 C13.5575 2.975 13.5575 2.975 14.0625 5.5 C11.92110338 6.45173183 9.77950113 7.4029524 7.63671875 8.3515625 C5.98910853 9.08661167 4.34543393 9.83058767 2.70703125 10.5859375 C-0.67560219 12.13461305 -3.83259799 13.47190125 -7.4375 14.4375 C-12.02097169 15.82891105 -15.8180865 18.09530091 -19.9375 20.5 C-21.62294507 21.44118936 -23.31037736 22.37883098 -25 23.3125 C-26.13115234 23.94091797 -26.13115234 23.94091797 -27.28515625 24.58203125 C-28.10306641 25.03642578 -28.10306641 25.03642578 -28.9375 25.5 C-28.9375 24.84 -28.9375 24.18 -28.9375 23.5 C-31.5775 25.81 -34.2175 28.12 -36.9375 30.5 C-37.5975 30.17 -38.2575 29.84 -38.9375 29.5 C-38.39222656 28.90574219 -37.84695313 28.31148438 -37.28515625 27.69921875 C-32.44083087 22.37460128 -27.78088264 16.94865655 -23.2734375 11.3359375 C-22.11714844 9.93214844 -22.11714844 9.93214844 -20.9375 8.5 C-20.2736731 7.46117676 -20.2736731 7.46117676 -19.59643555 6.40136719 C-14.32565242 -1.04613811 -8.58771368 -0.46833887 0 0 Z " fill="#D25DB0" transform="translate(1186.9375,404.5)"/>
<path d="M0 0 C0.66 0 1.32 0 2 0 C2.25652344 0.61488281 2.51304687 1.22976563 2.77734375 1.86328125 C5.10815505 6.89599372 5.10815505 6.89599372 9.3359375 10.265625 C11.55040212 10.97816567 13.71533707 11.56695931 16 12 C16 12.66 16 13.32 16 14 C13.99534779 15.6466786 11.88036013 17.08308324 9.75 18.5625 C9.1725 19.036875 8.595 19.51125 8 20 C8 20.66 8 21.32 8 22 C8.99 22.66 9.98 23.32 11 24 C9.8850415 23.75552124 9.8850415 23.75552124 8.74755859 23.50610352 C3.50274687 22.79779767 -1.67478462 22.87768572 -6.9609375 22.90234375 C-8.67949448 22.90446617 -8.67949448 22.90446617 -10.43276978 22.90663147 C-14.08020678 22.9122142 -17.72758165 22.92476359 -21.375 22.9375 C-23.85286369 22.94251723 -26.33072835 22.94707975 -28.80859375 22.95117188 C-34.87241691 22.96217799 -40.93620402 22.97889897 -47 23 C-47 22.67 -47 22.34 -47 22 C-33.14 22 -19.28 22 -5 22 C-7.8580665 17.23655583 -8.59365127 16.50090063 -13 14 C-13 13.34 -13 12.68 -13 12 C-11.7625 11.62875 -10.525 11.2575 -9.25 10.875 C-4.8923458 9.25534092 -3.17017441 7.16673487 -1 3 C-0.67 2.01 -0.34 1.02 0 0 Z " fill="#924FD5" transform="translate(540,382)"/>
<path d="M0 0 C0.33 0 0.66 0 1 0 C0.98839844 1.30453125 0.97679687 2.6090625 0.96484375 3.953125 C0.83650032 15.08710671 0.83650032 15.08710671 1.5625 26.1875 C2.02210919 30.66191836 1.85169532 34.85859249 1.49609375 39.33984375 C0.71629722 50.68925309 1.16649 62.01470654 1.5 73.375 C1.59198199 76.58233023 1.6817846 79.78965306 1.76501465 82.9972229 C1.81647325 84.97504833 1.87298037 86.95275057 1.93518066 88.93026733 C1.97016663 90.25908432 1.97016663 90.25908432 2.00585938 91.61474609 C2.02886108 92.39175873 2.05186279 93.16877136 2.07556152 93.96932983 C2 96 2 96 1 99 C1.721875 98.2575 2.44375 97.515 3.1875 96.75 C8.4355952 91.61852914 13.65705556 88.46607783 20.25 85.375 C21.15951416 84.94550049 22.06902832 84.51600098 23.00610352 84.07348633 C34.13876353 78.89718993 45.53971173 74.3925717 57 70 C57.80308594 69.69094727 58.60617187 69.38189453 59.43359375 69.06347656 C67.81162279 65.86384604 67.81162279 65.86384604 71 65 C71.66 65.33 72.32 65.66 73 66 C66.80960954 69.51514634 60.42319917 72.01565952 53.6875 74.25 C52.91100098 74.50797363 52.13450195 74.76594727 51.33447266 75.03173828 C47.58052522 76.25061557 43.90213001 77.34575066 40 78 C40 78.66 40 79.32 40 80 C39.23558594 80.268125 38.47117187 80.53625 37.68359375 80.8125 C16.35607286 88.45953989 16.35607286 88.45953989 1 104 C0.34 104 -0.32 104 -1 104 C-1.02315233 91.0307058 -1.04092988 78.06141651 -1.05181217 65.09210587 C-1.05703465 59.07018556 -1.06412084 53.04827937 -1.07543945 47.02636719 C-1.08629081 41.21681326 -1.09228163 35.40727293 -1.09487724 29.59770966 C-1.09672742 27.37930843 -1.10034026 25.16090796 -1.10573006 22.94251251 C-1.11297026 19.83958823 -1.11398967 16.73672041 -1.11352539 13.63378906 C-1.11712067 12.71309631 -1.12071594 11.79240356 -1.12442017 10.84381104 C-1.1230455 9.99689697 -1.12167084 9.14998291 -1.12025452 8.27740479 C-1.12117631 7.54365757 -1.1220981 6.80991035 -1.12304783 6.05392838 C-0.9956243 3.92696028 -0.581479 2.04576492 0 0 Z " fill="#E161A7" transform="translate(289,418)"/>
<path d="M0 0 C0.66 0 1.32 0 2 0 C2.32871094 0.79664063 2.32871094 0.79664063 2.6640625 1.609375 C4.93409063 6.66618563 6.95311051 9.31548432 12 12 C12.99 12.33 13.98 12.66 15 13 C15 13.66 15 14.32 15 15 C13.9275 15.556875 12.855 16.11375 11.75 16.6875 C6.58080932 19.65325789 3.92761383 23.37779298 2 29 C1.34 29 0.68 29 0 29 C-2.875 22.375 -2.875 22.375 -4 19 C-6.3430809 17.87914688 -6.3430809 17.87914688 -9 17 C-10.34050052 16.34786461 -11.67661368 15.68620031 -13 15 C-13 14.34 -13 13.68 -13 13 C-12.37351562 12.84144531 -11.74703125 12.68289063 -11.1015625 12.51953125 C-5.99524185 11.25903776 -5.99524185 11.25903776 -2.5625 7.625 C-2.376875 6.75875 -2.19125 5.8925 -2 5 C-1.33333333 3.33333333 -0.66666667 1.66666667 0 0 Z " fill="#7583E1" transform="translate(506,357)"/>
<path d="M0 0 C0.99 0.495 0.99 0.495 2 1 C3.59447464 1.08400529 5.19240545 1.10727467 6.7890625 1.09765625 C8.20058594 1.09282227 8.20058594 1.09282227 9.640625 1.08789062 C10.62546875 1.07951172 11.6103125 1.07113281 12.625 1.0625 C14.11386719 1.05573242 14.11386719 1.05573242 15.6328125 1.04882812 C18.0886016 1.03702145 20.54427104 1.020554 23 1 C23 1.66 23 2.32 23 3 C21.81921875 3.02578125 20.6384375 3.0515625 19.421875 3.078125 C17.86454677 3.13441397 16.30725653 3.19176114 14.75 3.25 C13.58404297 3.27126953 13.58404297 3.27126953 12.39453125 3.29296875 C7.69181939 3.49232074 7.69181939 3.49232074 3.640625 5.734375 C1.93436702 8.09063602 0.45299643 10.47949599 -1 13 C-9.32316855 25.29841323 -18.42084898 36.72275857 -29.08203125 47.08203125 C-30.70303584 48.70303584 -32.14408567 50.32959847 -33.5625 52.125 C-36.06136026 55.07237364 -38.69823383 57.45205841 -41.6328125 59.94921875 C-43.9300774 61.93942349 -46.16282543 63.98935016 -48.38818359 66.05932617 C-53.12525998 70.46422496 -57.94200089 74.63771991 -63.12890625 78.51171875 C-65.20395117 80.07352027 -65.20395117 80.07352027 -67.375 82.6875 C-71.29303288 86.13910039 -75.92976483 87.83633947 -81 89 C-83.33984375 88.6015625 -83.33984375 88.6015625 -85 88 C-83.39125 87.319375 -83.39125 87.319375 -81.75 86.625 C-79.11937683 85.49911463 -76.53999604 84.32079794 -74 83 C-74 82.34 -74 81.68 -74 81 C-73.13375 80.5875 -72.2675 80.175 -71.375 79.75 C-67.94599852 78.05324198 -67.94599852 78.05324198 -64.75 75.8125 C-62 74 -62 74 -60 74 C-60 73.34 -60 72.68 -60 72 C-58.3828125 70.58984375 -58.3828125 70.58984375 -56.125 68.9375 C-47.98072688 62.75646535 -40.67705884 55.7634086 -33.4375 48.5625 C-32.81721924 47.94689209 -32.19693848 47.33128418 -31.55786133 46.69702148 C-30.98060303 46.11766846 -30.40334473 45.53831543 -29.80859375 44.94140625 C-29.03213501 44.16325562 -29.03213501 44.16325562 -28.23999023 43.36938477 C-26.88754702 41.99913888 -26.88754702 41.99913888 -26 40 C-25.34 40 -24.68 40 -24 40 C-23.731875 39.41089844 -23.46375 38.82179688 -23.1875 38.21484375 C-21.98849512 35.97854189 -20.71970563 34.41862459 -19 32.5625 C-13.99710168 26.96426723 -9.49156649 21.00839058 -5 15 C-4.33742188 14.13375 -3.67484375 13.2675 -2.9921875 12.375 C0.34179123 7.8847222 0.34179123 7.8847222 0.875 2.4375 C0.58625 1.633125 0.2975 0.82875 0 0 Z " fill="#5886E2" transform="translate(527,491)"/>
<path d="M0 0 C0.66 0 1.32 0 2 0 C2.556875 1.11375 3.11375 2.2275 3.6875 3.375 C5.25326802 6.15297552 5.81895484 6.90536276 8.75 8.4375 C9.4925 8.623125 10.235 8.80875 11 9 C10.67 9.99 10.34 10.98 10 12 C9.401875 12.2475 8.80375 12.495 8.1875 12.75 C4.79600877 14.68799499 3.77984235 17.5674469 2 21 C1.34 21 0.68 21 0 21 C-0.556875 19.906875 -1.11375 18.81375 -1.6875 17.6875 C-3.58959869 14.31962633 -5.44629125 12.67814024 -9 11 C-8 9 -8 9 -5.625 7.75 C-2.40860113 5.60573409 -1.48283223 3.51197106 0 0 Z " fill="#F05F73" transform="translate(538,330)"/>
<path d="M0 0 C0.33 0 0.66 0 1 0 C0.98839844 1.30453125 0.97679687 2.6090625 0.96484375 3.953125 C0.83918703 15.11806079 0.83918703 15.11806079 1.5625 26.25 C1.9829067 30.43858237 1.89904348 34.35293562 1.5625 38.546875 C0.65000953 51.3415386 0.63580131 64.17921299 0.4375 77 C0.39421464 79.62500554 0.35059752 82.25000562 0.30664062 84.875 C0.20060228 91.24994223 0.09865844 97.62493951 0 104 C-0.33 104 -0.66 104 -1 104 C-1.02315233 91.0307058 -1.04092988 78.06141651 -1.05181217 65.09210587 C-1.05703465 59.07018556 -1.06412084 53.04827937 -1.07543945 47.02636719 C-1.08629081 41.21681326 -1.09228163 35.40727293 -1.09487724 29.59770966 C-1.09672742 27.37930843 -1.10034026 25.16090796 -1.10573006 22.94251251 C-1.11297026 19.83958823 -1.11398967 16.73672041 -1.11352539 13.63378906 C-1.11712067 12.71309631 -1.12071594 11.79240356 -1.12442017 10.84381104 C-1.1230455 9.99689697 -1.12167084 9.14998291 -1.12025452 8.27740479 C-1.12117631 7.54365757 -1.1220981 6.80991035 -1.12304783 6.05392838 C-0.9956243 3.92696028 -0.581479 2.04576492 0 0 Z " fill="#D1606E" transform="translate(289,418)"/>
<path d="M0 0 C4.73138912 7.09708368 3.52630222 19.85504534 2 28 C0.11642408 31.72152258 -2.79988667 33.67460138 -6.22265625 35.99609375 C-10.52416257 39.09971223 -12.09248055 43.18490236 -14 48 C-14.33 48.66 -14.66 49.32 -15 50 C-15.495 49.505 -15.495 49.505 -16 49 C-17.56172745 48.91314397 -19.12729344 48.89297781 -20.69140625 48.90234375 C-21.63564453 48.90556641 -22.57988281 48.90878906 -23.55273438 48.91210938 C-25.04256836 48.92467773 -25.04256836 48.92467773 -26.5625 48.9375 C-27.55958984 48.94201172 -28.55667969 48.94652344 -29.58398438 48.95117188 C-32.05604849 48.96299993 -34.52799518 48.97948151 -37 49 C-37 48.34 -37 47.68 -37 47 C-30.07 47 -23.14 47 -16 47 C-15.34 45.35 -14.68 43.7 -14 42 C-12.91275355 39.93798086 -11.7853673 37.89677534 -10.625 35.875 C-10.03976562 34.84117187 -9.45453125 33.80734375 -8.8515625 32.7421875 C-6.63785277 29.46365536 -4.49797656 27.74898828 -1 26 C-0.67 17.42 -0.34 8.84 0 0 Z " fill="#6F70D3" transform="translate(565,420)"/>
<path d="M0 0 C0 0.66 0 1.32 0 2 C-1.19625 2.12375 -2.3925 2.2475 -3.625 2.375 C-7.2904492 2.83318115 -10.52470221 3.71565082 -14 5 C-15.6396875 5.5259375 -15.6396875 5.5259375 -17.3125 6.0625 C-19.88710757 6.74219122 -19.88710757 6.74219122 -21 8 C-23.30053835 8.09443335 -25.60402173 8.11742128 -27.90649414 8.11352539 C-28.62840439 8.11367142 -29.35031464 8.11381744 -30.09410095 8.1139679 C-32.49114947 8.11326869 -34.88812123 8.10547595 -37.28515625 8.09765625 C-38.94282489 8.0957921 -40.60049407 8.09436818 -42.25816345 8.09336853 C-46.62954214 8.08954312 -51.00088781 8.07971265 -55.37225342 8.06866455 C-59.82954461 8.05845092 -64.28684111 8.05387101 -68.74414062 8.04882812 C-77.49610893 8.0380904 -86.24805036 8.02101371 -95 8 C-95 7.67 -95 7.34 -95 7 C-88.82938856 6.85566719 -82.65873519 6.71333393 -76.48803711 6.57275391 C-74.39427483 6.52478426 -72.30052441 6.47629363 -70.20678711 6.42724609 C-48.94723194 5.9298872 -48.94723194 5.9298872 -39.53076172 6.01904297 C-31.84923887 5.96124258 -24.4858707 4.59317303 -17 3 C-14.33403444 2.45450654 -11.66751629 1.91275706 -9 1.375 C-7.72125 1.11460937 -6.4425 0.85421875 -5.125 0.5859375 C-2 0 -2 0 0 0 Z " fill="#8F4BE8" transform="translate(401,590)"/>
<path d="M0 0 C1.8125 0.5625 1.8125 0.5625 4 2 C4.99 4.31 5.98 6.62 7 9 C-20.06 9 -47.12 9 -75 9 C-75 8.67 -75 8.34 -75 8 C-50.91 8 -26.82 8 -2 8 C-1.67 6.02 -1.34 4.04 -1 2 C-0.67 1.34 -0.34 0.68 0 0 Z " fill="#20102D" transform="translate(485,395)"/>
<path d="M0 0 C0.66 0 1.32 0 2 0 C2.76191971 19.39180691 3.25487435 38.6106262 2 58 C1.34 58 0.68 58 0 58 C0 38.86 0 19.72 0 0 Z " fill="#A046C1" transform="translate(288,522)"/>
<path d="M0 0 C0.66 0.33 1.32 0.66 2 1 C3.59447464 1.08400529 5.19240545 1.10727467 6.7890625 1.09765625 C8.20058594 1.09282227 8.20058594 1.09282227 9.640625 1.08789062 C10.62546875 1.07951172 11.6103125 1.07113281 12.625 1.0625 C14.11386719 1.05573242 14.11386719 1.05573242 15.6328125 1.04882812 C18.0886016 1.03702145 20.54427104 1.020554 23 1 C23 1.66 23 2.32 23 3 C21.81921875 3.02578125 20.6384375 3.0515625 19.421875 3.078125 C17.86454677 3.13441397 16.30725653 3.19176114 14.75 3.25 C13.97269531 3.26417969 13.19539062 3.27835937 12.39453125 3.29296875 C7.60348432 3.49195194 7.60348432 3.49195194 3.5390625 5.91015625 C1.85037377 8.20317267 0.42556988 10.53266751 -1 13 C-2.00726988 14.61271782 -3.02923234 16.21631413 -4.0625 17.8125 C-4.56910156 18.60269531 -5.07570313 19.39289063 -5.59765625 20.20703125 C-6.06042969 20.79871094 -6.52320313 21.39039063 -7 22 C-7.66 22 -8.32 22 -9 22 C-6.85802114 17.26271343 -3.63504086 13.25149203 -0.58203125 9.0703125 C1.27674509 5.46290953 1.08257266 3.83769145 0 0 Z " fill="#5B82D5" transform="translate(527,491)"/>
<path d="M0 0 C0 0.66 0 1.32 0 2 C-1.794375 2.185625 -1.794375 2.185625 -3.625 2.375 C-7.2904492 2.83318115 -10.52470221 3.71565082 -14 5 C-15.6396875 5.5259375 -15.6396875 5.5259375 -17.3125 6.0625 C-19.88710757 6.74219122 -19.88710757 6.74219122 -21 8 C-23.01964199 8.07244053 -25.04167124 8.08377188 -27.0625 8.0625 C-28.16722656 8.05347656 -29.27195312 8.04445313 -30.41015625 8.03515625 C-31.69212891 8.01775391 -31.69212891 8.01775391 -33 8 C-33 7.67 -33 7.34 -33 7 C-28.71378812 5.42086931 -24.47464778 4.4274137 -20.00390625 3.57421875 C-15.03517123 2.62440854 -10.08194092 1.59531458 -5.125 0.5859375 C-2 0 -2 0 0 0 Z " fill="#674EDD" transform="translate(401,590)"/>
<path d="M0 0 C15.84 0 31.68 0 48 0 C48 0.33 48 0.66 48 1 C33.25331219 1.75566922 18.72681736 2.23674823 4 1 C4.66 2.98 5.32 4.96 6 7 C1.125 2.25 1.125 2.25 0 0 Z " fill="#F67780" transform="translate(1039,421)"/>
<path d="M0 0 C2.0625 0.4375 2.0625 0.4375 4 1 C-0.95968437 7.02610114 -6.29232366 10.39472591 -14 12 C-16.33203125 11.59375 -16.33203125 11.59375 -18 11 C-16.9275 10.54625 -15.855 10.0925 -14.75 9.625 C-12.11937683 8.49911463 -9.53999604 7.32079794 -7 6 C-7 5.34 -7 4.68 -7 4 C-6.030625 3.525625 -5.06125 3.05125 -4.0625 2.5625 C-1.19522563 1.29806053 -1.19522563 1.29806053 0 0 Z " fill="#557DDD" transform="translate(460,568)"/>
<path d="M0 0 C5.09659478 2.54829739 5.10871914 3.89354167 7 9 C3.7 9 0.4 9 -3 9 C-2.01 6.03 -1.02 3.06 0 0 Z " fill="#25173E" transform="translate(485,395)"/>
<path d="M0 0 C1.32 0 2.64 0 4 0 C3.67 0.99 3.34 1.98 3 3 C2.401875 3.2475 1.80375 3.495 1.1875 3.75 C-2.20399123 5.68799499 -3.22015765 8.5674469 -5 12 C-5.66 12 -6.32 12 -7 12 C-8.32 9.36 -9.64 6.72 -11 4 C-9.741875 4.0825 -8.48375 4.165 -7.1875 4.25 C-5.00151142 4.31757749 -5.00151142 4.31757749 -3 4 C-1.22590192 2.07977297 -1.22590192 2.07977297 0 0 Z " fill="#E85F89" transform="translate(545,339)"/>
<path d="M0 0 C9.9 0 19.8 0 30 0 C30 0.33 30 0.66 30 1 C21.42 1.33 12.84 1.66 4 2 C3.34 3.32 2.68 4.64 2 6 C-0.125 6.75 -0.125 6.75 -2 7 C-1.34 6.01 -0.68 5.02 0 4 C0 2.68 0 1.36 0 0 Z " fill="#BC62DB" transform="translate(1200,405)"/>
<path d="M0 0 C0.66 0.33 1.32 0.66 2 1 C-2.46351289 6.22325977 -7.0744893 11.20922972 -12 16 C-12.66 15.67 -13.32 15.34 -14 15 C-9.38 10.05 -4.76 5.1 0 0 Z " fill="#3590D1" transform="translate(1156,506)"/>
<path d="M0 0 C0.66 0.66 1.32 1.32 2 2 C1.56429688 2.42410156 1.12859375 2.84820312 0.6796875 3.28515625 C-3.45008483 7.35235627 -7.28041129 11.55463788 -11 16 C-11.66 15.67 -12.32 15.34 -13 15 C-12.22914062 14.16855469 -11.45828125 13.33710938 -10.6640625 12.48046875 C-9.6509335 11.38291233 -8.63791863 10.28525056 -7.625 9.1875 C-7.11710937 8.64029297 -6.60921875 8.09308594 -6.0859375 7.52929688 C-3.84783697 5.09977985 -1.83620888 2.75431332 0 0 Z " fill="#C65B9F" transform="translate(1173,405)"/>
<path d="M0 0 C0.33 0.99 0.66 1.98 1 3 C-2.96 7.29 -6.92 11.58 -11 16 C-11.66 15.67 -12.32 15.34 -13 15 C-12.14535156 14.08476563 -11.29070312 13.16953125 -10.41015625 12.2265625 C-9.29415079 11.02615326 -8.17827192 9.82562632 -7.0625 8.625 C-6.49853516 8.02171875 -5.93457031 7.4184375 -5.35351562 6.796875 C-4.54624023 5.92675781 -4.54624023 5.92675781 -3.72265625 5.0390625 C-3.22515869 4.50490723 -2.72766113 3.97075195 -2.21508789 3.42041016 C-0.89706492 1.9954525 -0.89706492 1.9954525 0 0 Z " fill="#8650C4" transform="translate(1067,526)"/>
<path d="M0 0 C-0.99 1.485 -0.99 1.485 -2 3 C-4.8203125 3.29296875 -4.8203125 3.29296875 -8.125 3.1875 C-9.76855469 3.14689453 -9.76855469 3.14689453 -11.4453125 3.10546875 C-12.70988281 3.05326172 -12.70988281 3.05326172 -14 3 C-14 2.67 -14 2.34 -14 2 C-13.05125 1.690625 -12.1025 1.38125 -11.125 1.0625 C-6.55488626 -0.49133867 -4.86404935 -0.95166183 0 0 Z " fill="#4937D3" transform="translate(382,595)"/>
<path d="M0 0 C0.66 0.33 1.32 0.66 2 1 C3.66565749 1.15222973 5.33656496 1.24917215 7.0078125 1.31640625 C7.99394531 1.35830078 8.98007813 1.40019531 9.99609375 1.44335938 C11.54490234 1.50233398 11.54490234 1.50233398 13.125 1.5625 C14.68541016 1.62727539 14.68541016 1.62727539 16.27734375 1.69335938 C18.85142528 1.7996288 21.42560508 1.90166583 24 2 C24 2.33 24 2.66 24 3 C15.42 3 6.84 3 -2 3 C-1.34 2.01 -0.68 1.02 0 0 Z " fill="#8F57E5" transform="translate(1017,585)"/>
<path d="M0 0 C1.32 0.99 2.64 1.98 4 3 C3.67 3.66 3.34 4.32 3 5 C2.01 4.34 1.02 3.68 0 3 C-1.64555699 4.22809091 -1.64555699 4.22809091 -3 6 C-2.67156616 8.06381575 -2.67156616 8.06381575 -2 10 C-2.33 10.66 -2.66 11.32 -3 12 C-4.32 10.35 -5.64 8.7 -7 7 C-4.69 4.69 -2.38 2.38 0 0 Z " fill="#613D9F" transform="translate(1087,504)"/>
<path d="M0 0 C2.5 2.25 2.5 2.25 5 5 C5 9 5 9 3.46875 10.703125 C2.8190625 11.21359375 2.169375 11.7240625 1.5 12.25 C0.8503125 12.77078125 0.200625 13.2915625 -0.46875 13.828125 C-0.9740625 14.21484375 -1.479375 14.6015625 -2 15 C-0.47639094 11.89978679 1.19821362 8.94837771 3 6 C2.2575 5.071875 2.2575 5.071875 1.5 4.125 C0 2 0 2 0 0 Z " fill="#6D66CA" transform="translate(1141,492)"/>
<path d="M0 0 C1.65 0 3.3 0 5 0 C5.33 1.32 5.66 2.64 6 4 C3.36 4 0.72 4 -2 4 C-1.34 2.68 -0.68 1.36 0 0 Z " fill="#3A1B5C" transform="translate(484,400)"/>
<path d="M0 0 C0.66 0.33 1.32 0.66 2 1 C0.54234835 2.62561151 -0.91614386 4.25046934 -2.375 5.875 C-3.18710937 6.77992188 -3.99921875 7.68484375 -4.8359375 8.6171875 C-6.19076205 10.10896183 -7.57505435 11.57505435 -9 13 C-9.3125 10.6875 -9.3125 10.6875 -9 8 C-6.75 6.5 -6.75 6.5 -4 5 C-1.72462308 2.42816686 -1.72462308 2.42816686 0 0 Z " fill="#F066AD" transform="translate(298,509)"/>
<path d="M0 0 C0.66 0.33 1.32 0.66 2 1 C0.90653119 2.34212062 -0.2001575 3.67347975 -1.3125 5 C-2.23482422 6.11375 -2.23482422 6.11375 -3.17578125 7.25 C-5 9 -5 9 -8 9 C-5.36 6.03 -2.72 3.06 0 0 Z " fill="#B04DA6" transform="translate(1156,425)"/>
<path d="M0 0 C0.66 0 1.32 0 2 0 C0.49776416 4.20626034 -2.28550034 5.73900021 -6 8 C-7.32 7.34 -8.64 6.68 -10 6 C-9.36191406 5.81824219 -8.72382813 5.63648438 -8.06640625 5.44921875 C-7.24011719 5.19785156 -6.41382813 4.94648438 -5.5625 4.6875 C-4.32693359 4.32205078 -4.32693359 4.32205078 -3.06640625 3.94921875 C-2.38449219 3.63597656 -1.70257813 3.32273437 -1 3 C-0.67 2.01 -0.34 1.02 0 0 Z " fill="#767FCE" transform="translate(503,364)"/>
<path d="M0 0 C0.66 0 1.32 0 2 0 C2.33 1.32 2.66 2.64 3 4 C2.34 4 1.68 4 1 4 C0.34 5.32 -0.32 6.64 -1 8 C-1.99 8 -2.98 8 -4 8 C-2.68 5.36 -1.36 2.72 0 0 Z " fill="#995BC7" transform="translate(540,382)"/>
<path d="M0 0 C0.33 0.99 0.66 1.98 1 3 C-0.98 4.98 -2.96 6.96 -5 9 C-5.66 8.67 -6.32 8.34 -7 8 C-4.69 5.36 -2.38 2.72 0 0 Z " fill="#1B1533" transform="translate(1199,441)"/>
<path d="M0 0 C1.32 0 2.64 0 4 0 C3.34 1.98 2.68 3.96 2 6 C1.34 6 0.68 6 0 6 C-0.38218767 4.34385343 -0.71395102 2.67542976 -1 1 C-0.67 0.67 -0.34 0.34 0 0 Z " fill="#EA5FA0" transform="translate(538,345)"/>
<path d="M0 0 C0.99 0.33 1.98 0.66 3 1 C3 2.32 3 3.64 3 5 C1.02 5.99 1.02 5.99 -1 7 C-0.67 4.69 -0.34 2.38 0 0 Z " fill="#A16FDB" transform="translate(578,342)"/>
<path d="M0 0 C1.32 0.33 2.64 0.66 4 1 C3.25 2.9375 3.25 2.9375 2 5 C-0.125 5.75 -0.125 5.75 -2 6 C-1.34 5.01 -0.68 4.02 0 3 C0 2.01 0 1.02 0 0 Z " fill="#BD52C5" transform="translate(1200,406)"/>
<path d="M0 0 C0.33 1.32 0.66 2.64 1 4 C0.34 4 -0.32 4 -1 4 C-1.33 4.99 -1.66 5.98 -2 7 C-2.66 7 -3.32 7 -4 7 C-2.92598892 4.08482708 -2.22189824 2.22189824 0 0 Z " fill="#6875D9" transform="translate(561,447)"/>
<path d="M0 0 C-0.8125 2.4375 -0.8125 2.4375 -2 5 C-2.99 5.33 -3.98 5.66 -5 6 C-5 4.68 -5 3.36 -5 2 C-2 0 -2 0 0 0 Z " fill="#6055D7" transform="translate(582,378)"/>
<path d="M0 0 C1.32 0 2.64 0 4 0 C3.67 0.99 3.34 1.98 3 3 C-0.0625 4.1875 -0.0625 4.1875 -3 5 C-1.75 2.5 -1.75 2.5 0 0 Z " fill="#EE5583" transform="translate(545,339)"/>
</svg>
