<?xml version="1.0" encoding="UTF-8"?>
<svg version="1.1" xmlns="http://www.w3.org/2000/svg" width="612" height="408">
<path d="M0 0 C2.81939117 2.20979308 5.53058944 4.40062046 8 7 C7.34 7.66 6.68 8.32 6 9 C6.804375 9.78375 7.60875 10.5675 8.4375 11.375 C12.15187634 15.17997088 12.13451372 16.97226578 12.19287109 22.19042969 C12.20893402 23.4922821 12.22499695 24.79413452 12.24154663 26.13543701 C12.25303465 27.56424304 12.26364309 28.99305636 12.2734375 30.421875 C12.27876118 31.14070107 12.28408485 31.85952713 12.28956985 32.6001358 C12.31630052 36.4065901 12.33567362 40.21301165 12.35009766 44.01953125 C12.36342665 47.16631202 12.39125836 50.31244272 12.43212891 53.45898438 C12.48151223 57.26095055 12.5062257 61.06232793 12.51332474 64.86460114 C12.52002776 66.31107254 12.53522542 67.75753129 12.55921555 69.20381927 C12.7583768 81.93966126 12.7583768 81.93966126 9.65478516 85.87207031 C6.37662314 88.49966459 4.06956733 89.12403066 -0.00961304 89.13371277 C-0.82268417 89.13797775 -1.63575531 89.14224274 -2.47346497 89.14663696 C-3.36184555 89.14618378 -4.25022614 89.14573059 -5.16552734 89.14526367 C-6.1040303 89.14862228 -7.04253326 89.1519809 -8.00947571 89.15544128 C-11.1183097 89.16495613 -14.22708985 89.16689469 -17.3359375 89.16796875 C-19.49443586 89.17118103 -21.65293399 89.17454508 -23.81143188 89.17805481 C-28.33913681 89.18404746 -32.86682264 89.18589458 -37.39453125 89.18530273 C-43.19743498 89.18520112 -49.00021633 89.19885206 -54.80309105 89.21607494 C-59.26232465 89.22719144 -63.72152864 89.22922205 -68.18077469 89.22869301 C-70.32020108 89.2298737 -72.45962822 89.23430046 -74.59904099 89.24202538 C-77.59134245 89.25181781 -80.58337788 89.24895006 -83.57568359 89.24291992 C-84.46001572 89.24853943 -85.34434784 89.25415894 -86.25547791 89.25994873 C-91.56182057 89.23276283 -95.75893557 89.14119255 -99.78526306 85.29429626 C-101.42926204 82.18924479 -101.40240317 79.80018866 -101.43579102 76.29125977 C-101.44586685 75.62571075 -101.45594269 74.96016174 -101.46632385 74.27444458 C-101.49476151 72.07992646 -101.50067779 69.88609701 -101.50390625 67.69140625 C-101.51354953 66.16210143 -101.52364217 64.63279939 -101.53416443 63.10350037 C-101.55211464 59.89990829 -101.55768655 56.69655873 -101.5559082 53.49291992 C-101.55560322 49.39225677 -101.59657572 45.29315075 -101.64822483 41.19285679 C-101.68161672 38.03489572 -101.687665 34.87731013 -101.68607903 31.7191906 C-101.68961404 30.20770837 -101.7028557 28.6962159 -101.72607613 27.18490791 C-101.75555657 25.06821385 -101.74682503 22.95488576 -101.72875977 20.83813477 C-101.73303482 19.63552505 -101.73730988 18.43291534 -101.74171448 17.19386292 C-100.91708871 13.64297947 -99.71471203 12.05412153 -96.75911999 9.910882 C-93.74839547 8.3519123 -91.06109137 8.40297288 -87.70947266 8.43237305 C-87.00633942 8.43164291 -86.30320618 8.43091278 -85.57876587 8.43016052 C-83.27305791 8.43362198 -80.96941391 8.47240861 -78.6640625 8.51171875 C-77.05839135 8.52105216 -75.4527059 8.52816578 -73.84701538 8.53315735 C-69.63478818 8.55218601 -65.42343237 8.60124983 -61.21154785 8.65667725 C-56.90807888 8.70795979 -52.60446816 8.73069051 -48.30078125 8.75585938 C-39.86678902 8.80937378 -31.43350312 8.89463497 -23 9 C-22.67 8.01 -22.34 7.02 -22 6 C-21.01 6.33 -20.02 6.66 -19 7 C-19 7.66 -19 8.32 -19 9 C-14.71 8.67 -10.42 8.34 -6 8 C-6 7.01 -6 6.02 -6 5 C-4.36368108 3.95107762 -2.69514137 2.95093297 -1 2 C-0.67 1.34 -0.34 0.68 0 0 Z M-93 18 C-93 20.64 -93 23.28 -93 26 C-90.69 26 -88.38 26 -86 26 C-85.67 23.36 -85.34 20.72 -85 18 C-87.64 18 -90.28 18 -93 18 Z M-4 18 C-4 20.64 -4 23.28 -4 26 C-1.36 26 1.28 26 4 26 C4.04241723 23.66705225 4.04092937 21.33297433 4 19 C2.81575674 17.58422523 2.81575674 17.58422523 -0.5625 17.9375 C-2.2640625 17.9684375 -2.2640625 17.9684375 -4 18 Z M-93 37 C-93.07148199 38.35243917 -93.08399454 39.70834367 -93.0625 41.0625 C-93.041875 42.361875 -93.02125 43.66125 -93 45 C-90.66705225 45.04241723 -88.33297433 45.04092937 -86 45 C-84.79438816 44.01732141 -84.79438816 44.01732141 -84.90234375 42.15234375 C-84.91394531 41.42144531 -84.92554688 40.69054687 -84.9375 39.9375 C-84.958125 38.638125 -84.97875 37.33875 -85 36 C-89.32320086 35.49633499 -89.32320086 35.49633499 -93 37 Z M-4 37 C-4.04241723 39.33294775 -4.04092937 41.66702567 -4 44 C-2.94689723 45.27003323 -2.94689723 45.27003323 -0.5625 45.1875 C2.16734675 45.26839983 2.16734675 45.26839983 4 43 C4.16681109 39.91652174 4.16681109 39.91652174 4 37 C1.36 37 -1.28 37 -4 37 Z M-93 54 C-93 56.64 -93 59.28 -93 62 C-90.36 62 -87.72 62 -85 62 C-85 59.36 -85 56.72 -85 54 C-87.64 54 -90.28 54 -93 54 Z M-4 55 C-4.04254356 56.99954746 -4.04080783 59.00041636 -4 61 C-2.87465895 62.35618499 -2.87465895 62.35618499 0.0625 62.0625 C1.031875 62.041875 2.00125 62.02125 3 62 C3.38063221 59.6739143 3.71269945 57.33944736 4 55 C2.94775333 53.72443182 2.94775333 53.72443182 0.5625 53.875 C-1.98978622 53.82693324 -1.98978622 53.82693324 -4 55 Z M-3 72 C-4.34404775 73.11836224 -4.34404775 73.11836224 -4.125 76 C-4.34404775 78.88163776 -4.34404775 78.88163776 -3 80 C-1.00041636 80.04080783 1.00045254 80.04254356 3 80 C3.33 77.69 3.66 75.38 4 73 C1.6739143 72.61936779 -0.66055264 72.28730055 -3 72 Z M-93 73 C-93 75.31 -93 77.62 -93 80 C-90.36 80 -87.72 80 -85 80 C-85 77.69 -85 75.38 -85 73 C-87.64 73 -90.28 73 -93 73 Z " fill="#9457D8" transform="translate(215,151)"/>
<path d="M0 0 C8.48443283 -0.02322252 16.96885226 -0.04096548 25.45330906 -0.05181217 C29.39344472 -0.05701937 33.33355854 -0.06407755 37.27368164 -0.07543945 C41.07973888 -0.08634544 44.88577518 -0.09229312 48.69184685 -0.09487724 C50.14022081 -0.09671763 51.5885937 -0.10031137 53.03695869 -0.10573006 C55.07357336 -0.11304298 57.11010273 -0.11398665 59.14672852 -0.11352539 C60.30366714 -0.115746 61.46060577 -0.11796661 62.65260315 -0.12025452 C67.53286733 0.05506793 72.29293973 0.68202312 77 2 C74.87885041 3.50571746 72.75346385 5.00468679 70.625 6.5 C70.02171875 6.92925781 69.4184375 7.35851562 68.796875 7.80078125 C64.2265625 11 64.2265625 11 62 11 C61.67 11.99 61.34 12.98 61 14 C59.37109375 15.53515625 59.37109375 15.53515625 57.4375 17.0625 C55.5289778 18.52753465 55.5289778 18.52753465 54 20 C53.78127376 22.06595963 53.78127376 22.06595963 55.25 23.4375 C58.80791361 26.61420858 62.72203056 29.14604309 66.75 31.6875 C67.73484375 32.31011719 68.7196875 32.93273437 69.734375 33.57421875 C70.48203125 34.04472656 71.2296875 34.51523438 72 35 C71.84838867 37.25952148 71.84838867 37.25952148 71 40 C68.5949707 41.97290039 68.5949707 41.97290039 65.42578125 43.84765625 C64.86432907 44.18623154 64.30287689 44.52480682 63.72441101 44.87364197 C61.92909296 45.95194007 60.12158778 47.00749995 58.3125 48.0625 C56.5245532 49.12598883 54.73932281 50.19393732 52.95414734 51.2620697 C51.32426021 52.23389123 49.68828759 53.19548507 48.05200195 54.15649414 C45.9099247 55.45037666 43.81305256 56.82067508 41.75463867 58.24389648 C39 60 39 60 36.6875 59.8125 C35 59 35 59 34 58 C33.77092174 55.93076634 33.60456448 53.85452523 33.46484375 51.77734375 C33.33432617 49.88725586 33.33432617 49.88725586 33.20117188 47.95898438 C33.11318236 46.61849607 33.02529305 45.27800119 32.9375 43.9375 C32.84612471 42.59307024 32.75433325 41.24866869 32.66210938 39.90429688 C32.43729806 36.60312026 32.2167902 33.30171152 32 30 C30.71751024 30.62768154 29.43655375 31.25849652 28.15625 31.890625 C27.44275391 32.24157227 26.72925781 32.59251953 25.99414062 32.95410156 C23.80830463 34.1005415 21.8956999 35.42025008 20 37 C20 36.34 20 35.68 20 35 C19.29875 35.66 18.5975 36.32 17.875 37 C14.56539771 39.30233203 12.93774177 39.36630156 9 39 C9 39.66 9 40.32 9 41 C10.32 41.33 11.64 41.66 13 42 C13 42.33 13 42.66 13 43 C9.37 43 5.74 43 2 43 C2 46.3 2 49.6 2 53 C1.67 53 1.34 53 1 53 C0.67 50.36 0.34 47.72 0 45 C-0.99 45.99 -1.98 46.98 -3 48 C-3.66 47.67 -4.32 47.34 -5 47 C-5 39.08 -5 31.16 -5 23 C-4.34 23 -3.68 23 -3 23 C-3.185625 22.030625 -3.37125 21.06125 -3.5625 20.0625 C-3.706875 19.051875 -3.85125 18.04125 -4 17 C-3.67 16.67 -3.34 16.34 -3 16 C-3.5259375 14.9171875 -3.5259375 14.9171875 -4.0625 13.8125 C-5.11155749 10.66532752 -5.03916873 9.11750618 -4 6 C-3.34 5.67 -2.68 5.34 -2 5 C-1.27840576 3.35636866 -0.60648579 1.68949614 0 0 Z M2 8 C2 10.64 2 13.28 2 16 C4.31 16 6.62 16 9 16 C9.33 13.36 9.66 10.72 10 8 C7.36 8 4.72 8 2 8 Z M2 27 C1.92851801 28.35243917 1.91600546 29.70834367 1.9375 31.0625 C1.958125 32.361875 1.97875 33.66125 2 35 C4.33294775 35.04241723 6.66702567 35.04092937 9 35 C10.20561184 34.01732141 10.20561184 34.01732141 10.09765625 32.15234375 C10.08605469 31.42144531 10.07445312 30.69054687 10.0625 29.9375 C10.041875 28.638125 10.02125 27.33875 10 26 C5.67679914 25.49633499 5.67679914 25.49633499 2 27 Z " fill="#E55E9E" transform="translate(120,161)"/>
<path d="M0 0 C17.5183584 -1.88577416 17.5183584 -1.88577416 22.84716797 1.00048828 C26.38681957 4.04688127 28.63815046 8.03008269 31 12 C32.52732287 14.052419 34.06813881 16.09489603 35.625 18.125 C39 22.72727273 39 22.72727273 39 25 C39.99 25.33 40.98 25.66 42 26 C45.11875512 30.12121212 45.11875512 30.12121212 44.6875 33.3125 C44.460625 33.869375 44.23375 34.42625 44 35 C43.34 35 42.68 35 42 35 C42 35.66 42 36.32 42 37 C40.84704286 38.1890534 39.68693412 39.37196636 38.49267578 40.51953125 C35.79990087 43.19028478 33.39118649 46.11113138 30.9375 49 C30.42123047 49.60328125 29.90496094 50.2065625 29.37304688 50.828125 C27.10010771 53.4919518 24.88197623 56.15435456 22.75390625 58.9375 C21.88572266 59.9584375 21.88572266 59.9584375 21 61 C20.34 61 19.68 61 19 61 C18.9175 61.5775 18.835 62.155 18.75 62.75 C17.75497387 65.73507838 16.4245658 67.00724865 14 69 C11.43457031 69.45410156 11.43457031 69.45410156 8.578125 69.390625 C7.04091797 69.37128906 7.04091797 69.37128906 5.47265625 69.3515625 C4.40917969 69.31804687 3.34570312 69.28453125 2.25 69.25 C1.17105469 69.23195313 0.09210938 69.21390625 -1.01953125 69.1953125 C-3.68058788 69.14821415 -6.33984254 69.082456 -9 69 C-8.23944058 64.20150678 -6.71395337 62.20080983 -3.3125 58.6875 C0.41357086 54.75353678 3.76997568 50.8220411 6.84375 46.36328125 C7.2253125 45.91339844 7.606875 45.46351563 8 45 C8.66 45 9.32 45 10 45 C10.25523437 44.42765625 10.51046875 43.8553125 10.7734375 43.265625 C12.13087159 40.75826267 13.71974104 38.8669544 15.625 36.75 C16.25664062 36.04359375 16.88828125 35.3371875 17.5390625 34.609375 C18.02117187 34.07828125 18.50328125 33.5471875 19 33 C22.78630702 33.75567052 24.4041044 35.12597273 27 38 C23.52105056 32.66986646 19.71549277 27.65041321 15.828125 22.609375 C14 20 14 20 14 18 C13.34 18 12.68 18 12 18 C10.67138672 16.56298828 10.67138672 16.56298828 9.1796875 14.5703125 C8.37724609 13.50103516 8.37724609 13.50103516 7.55859375 12.41015625 C7.00300781 11.65605469 6.44742187 10.90195313 5.875 10.125 C5.03001953 9.00544922 5.03001953 9.00544922 4.16796875 7.86328125 C0 2.26225787 0 2.26225787 0 0 Z " fill="#6C69E4" transform="translate(413,167)"/>
<path d="M0 0 C3.37870778 -0.28525675 6.62785428 -0.40924099 10 0 C13.34753252 3.2395476 14.07685241 8.35740429 15.25390625 12.79296875 C15.87640549 15.17201591 15.87640549 15.17201591 18 17 C18.26554687 16.19175781 18.53109375 15.38351563 18.8046875 14.55078125 C19.15789062 13.48214844 19.51109375 12.41351563 19.875 11.3125 C20.22304688 10.25675781 20.57109375 9.20101562 20.9296875 8.11328125 C21.87331366 5.36850006 22.89491289 2.68307185 24 0 C26.97 0 29.94 0 33 0 C33.33773437 0.97582031 33.67546875 1.95164063 34.0234375 2.95703125 C34.47373825 4.24226463 34.92427126 5.52741665 35.375 6.8125 C35.59671875 7.45509766 35.8184375 8.09769531 36.046875 8.75976562 C37.1239885 11.81686717 38.19061861 14.28592791 40 17 C40.25394531 16.27554688 40.50789063 15.55109375 40.76953125 14.8046875 C42.58746784 9.69812405 44.42102365 4.77110625 47 0 C49.97 0 52.94 0 56 0 C55.62511539 6.37303832 53.78468681 11.55185757 51.41015625 17.45703125 C49.91459582 21.21457505 48.53530835 25.0002114 47.1875 28.8125 C46.76855469 29.99457031 46.34960938 31.17664063 45.91796875 32.39453125 C45.61503906 33.25433594 45.31210937 34.11414063 45 35 C41.7 35 38.4 35 35 35 C32.69792496 30.72471779 31.08682516 26.47222914 29.6484375 21.85546875 C29.15387775 20.00913171 29.15387775 20.00913171 28 19 C26.02 24.28 24.04 29.56 22 35 C18.7 35 15.4 35 12 35 C8.2883939 27.14852555 5.4865327 19.04583837 2.66308594 10.84570312 C2.10342529 9.28788483 1.46977068 7.75694584 0.8203125 6.234375 C0 4 0 4 0 0 Z " fill="#E2E3E5" transform="translate(360,187)"/>
<path d="M0 0 C1.3671875 1.875 1.3671875 1.875 2 4 C0.625 7.75 0.625 7.75 -1 11 C-3.61595412 10.363374 -6.16708494 9.64987452 -8.75 8.875 C-13.11302296 7.75964075 -16.59350626 8.21312612 -21 9 C-20.67 10.65 -20.34 12.3 -20 14 C-18.83082031 14.30292969 -17.66164063 14.60585937 -16.45703125 14.91796875 C-14.90861353 15.34026449 -13.36044944 15.76349096 -11.8125 16.1875 C-11.04357422 16.38408203 -10.27464844 16.58066406 -9.48242188 16.78320312 C-3.49768578 18.4527647 0.16996431 20.83902927 3.375 26.375 C4.51092656 31.14589155 3.54975127 34.78098631 1.5625 39.1875 C-2.56618281 43.71898113 -7.49424123 45.51700847 -13.5234375 46.34765625 C-21.30705572 46.63002726 -28.90004643 44.97187996 -35 40 C-33.94124926 36.59687262 -32.99097846 33.98646769 -31 31 C-28.26182834 31.61654196 -25.86771968 32.4786331 -23.3125 33.625 C-18.69993156 35.4231199 -14.77814728 34.91802367 -10 34 C-9.67 32.68 -9.34 31.36 -9 30 C-11.82510774 28.11659484 -12.88875353 27.71165777 -16.0625 27.1875 C-21.85262457 25.9555586 -28.46043925 24.12045735 -32.33203125 19.36328125 C-34.42805173 15.10424421 -34.21804967 11.46618211 -33 7 C-30.52618515 2.77057462 -28.6680834 -0.37446873 -24 -2.125 C-16.18545879 -4.14739679 -7.25402046 -3.73861055 0 0 Z " fill="#E3E4E6" transform="translate(278,177)"/>
<path d="M0 0 C3.3 0 6.6 0 10 0 C11.94090826 1.94090826 11.39919435 5.47293902 11.5625 8.0625 C11.64628906 9.35285156 11.73007812 10.64320313 11.81640625 11.97265625 C11.87699219 12.97167969 11.93757813 13.97070312 12 15 C12.54527344 14.82082031 13.09054687 14.64164063 13.65234375 14.45703125 C19.01377585 12.94483245 22.82742003 12.83305774 28.05078125 14.875 C32.07504185 17.19761934 33.58618062 20.75854186 35 25 C35.08239169 26.84610532 35.10743359 28.69505164 35.09765625 30.54296875 C35.09443359 31.61611328 35.09121094 32.68925781 35.08789062 33.79492188 C35.07532227 35.47424805 35.07532227 35.47424805 35.0625 37.1875 C35.05798828 38.31865234 35.05347656 39.44980469 35.04882812 40.61523438 C35.03703498 43.41020927 35.0205765 46.2050782 35 49 C33.18757948 49.02687279 31.37504767 49.04633715 29.5625 49.0625 C28.55316406 49.07410156 27.54382813 49.08570313 26.50390625 49.09765625 C24 49 24 49 23 48 C22.85492735 46.37877577 22.7728999 44.75180111 22.71875 43.125 C22.68136719 42.14015625 22.64398438 41.1553125 22.60546875 40.140625 C22.53515625 38.046875 22.46484375 35.953125 22.39453125 33.859375 C22.35714844 32.87453125 22.31976563 31.8896875 22.28125 30.875 C22.25095703 29.96492188 22.22066406 29.05484375 22.18945312 28.1171875 C22.22950241 26.01574568 22.22950241 26.01574568 21 25 C19.65252916 24.76924918 18.29622435 24.58846937 16.9375 24.4375 C15.638125 24.293125 14.33875 24.14875 13 24 C12.0268319 26.9195043 11.8070454 29.05444951 11.68359375 32.10546875 C11.64169922 33.08837891 11.59980469 34.07128906 11.55664062 35.08398438 C11.51732422 36.10814453 11.47800781 37.13230469 11.4375 38.1875 C11.39431641 39.22326172 11.35113281 40.25902344 11.30664062 41.32617188 C11.20055737 43.88395702 11.09977414 46.44196098 11 49 C7.37 49 3.74 49 0 49 C0 32.83 0 16.66 0 0 Z " fill="#E4E5E7" transform="translate(286,173)"/>
<path d="M0 0 C4.48035808 0.4333193 7.94995671 2.43702416 11.75 4.6875 C12.67643311 5.22661011 12.67643311 5.22661011 13.62158203 5.77661133 C17.8311868 8.2484218 21.92867185 10.85464864 25.95703125 13.61328125 C29.24140728 15.84263783 32.62044376 17.91885637 36 20 C35.84838867 22.25952148 35.84838867 22.25952148 35 25 C32.5949707 26.97290039 32.5949707 26.97290039 29.42578125 28.84765625 C28.86432907 29.18623154 28.30287689 29.52480682 27.72441101 29.87364197 C25.92909296 30.95194007 24.12158778 32.00749995 22.3125 33.0625 C20.5245532 34.12598883 18.73932281 35.19393732 16.95414734 36.2620697 C15.32426021 37.23389123 13.68828759 38.19548507 12.05200195 39.15649414 C8.92497839 40.98448647 8.92497839 40.98448647 5.86010742 43.29467773 C3 45 3 45 0.82124329 44.60658264 C0.220233 44.40641037 -0.38077728 44.2062381 -1 44 C-1.02464513 37.8944529 -1.04283371 31.78893449 -1.05493164 25.68334961 C-1.05997288 23.60456844 -1.06680574 21.52579084 -1.07543945 19.44702148 C-1.08751422 16.46597414 -1.09323024 13.48497351 -1.09765625 10.50390625 C-1.10539818 9.10078941 -1.10539818 9.10078941 -1.11329651 7.66932678 C-1.11337204 6.80850998 -1.11344757 5.94769318 -1.11352539 5.06079102 C-1.115746 4.29912125 -1.11796661 3.53745148 -1.12025452 2.75270081 C-1 1 -1 1 0 0 Z " fill="#FCF9FD" transform="translate(156,176)"/>
<path d="M0 0 C4.77709464 4.48911375 6.02938232 8.43791753 6.328125 14.9453125 C5.99605936 20.65340632 5.22052964 24.69017519 1.28515625 28.9296875 C-3.62978088 32.82810245 -9.03665055 33.97740188 -15.2421875 33.73046875 C-21.00863642 32.86061459 -25.30796101 30.86950929 -29.046875 26.3828125 C-32.26895796 19.93864657 -32.48302987 13.50332872 -30.421875 6.6328125 C-27.48935477 1.54977744 -24.35855145 -0.89876408 -18.921875 -3.0546875 C-12.34068117 -4.3154526 -5.70329131 -3.62141503 0 0 Z M-18.546875 8.3828125 C-21.04719154 12.13328732 -21.08291054 13.94137516 -20.546875 18.3828125 C-18.65037949 21.52939916 -18.65037949 21.52939916 -15.546875 23.3828125 C-12.11160256 23.26636259 -9.62178661 22.92026831 -6.546875 21.3828125 C-5.35863703 17.81809859 -5.28412648 15.1269789 -5.546875 11.3828125 C-6.99780569 8.48095112 -7.88001677 7.62849711 -10.921875 6.5078125 C-14.04736741 6.35897953 -15.80314246 6.89971383 -18.546875 8.3828125 Z " fill="#E4E5E6" transform="translate(355.546875,189.6171875)"/>
<path d="M0 0 C1.32 0.33 2.64 0.66 4 1 C5.48313384 13.06370475 6.28012897 24.84551507 6 37 C4.41058594 37.09087891 4.41058594 37.09087891 2.7890625 37.18359375 C1.40102779 37.26800127 0.01300768 37.35264917 -1.375 37.4375 C-2.07367188 37.47681641 -2.77234375 37.51613281 -3.4921875 37.55664062 C-7.37360492 37.74280134 -7.37360492 37.74280134 -11 39 C-13.45817818 39.32267255 -15.91064415 39.60973454 -18.375 39.875 C-24.56546441 40.582123 -30.44460286 41.69845796 -36.44921875 43.4140625 C-39.05356522 44.01230442 -41.3377652 44.10553003 -44 44 C-43.34 42.68 -42.68 41.36 -42 40 C-41.34 40 -40.68 40 -40 40 C-39.67 39.34 -39.34 38.68 -39 38 C-37.68 38 -36.36 38 -35 38 C-34.814375 37.2575 -34.62875 36.515 -34.4375 35.75 C-32.75138021 32.52437953 -31.04957898 31.84135915 -27.87890625 30.24609375 C-24.91517492 28.2805422 -23.2115181 25.53674499 -21.26171875 22.609375 C-20.63716797 21.81273437 -20.63716797 21.81273437 -20 21 C-19.34 21 -18.68 21 -18 21 C-17.87625 20.21625 -17.7525 19.4325 -17.625 18.625 C-17 16 -17 16 -15 14 C-13.20023867 13.51274067 -11.38484709 13.08197885 -9.5625 12.6875 C-5.19620255 11.59815098 -5.19620255 11.59815098 -1.875 8.6875 C-0.93247556 5.7926035 -0.35153413 3.02319355 0 0 Z M-10 20 C-10.04254356 21.99954746 -10.04080783 24.00041636 -10 26 C-8.87465895 27.35618499 -8.87465895 27.35618499 -5.9375 27.0625 C-4.968125 27.041875 -3.99875 27.02125 -3 27 C-2.61936779 24.6739143 -2.28730055 22.33944736 -2 20 C-3.05224667 18.72443182 -3.05224667 18.72443182 -5.4375 18.875 C-7.98978622 18.82693324 -7.98978622 18.82693324 -10 20 Z " fill="#3CA2E3" transform="translate(221,186)"/>
<path d="M0 0 C3.63 0 7.26 0 11 0 C11.66964286 9.91071429 11.66964286 9.91071429 8.6875 13.5625 C5.40846272 16.53651056 3.22819535 17.12578033 -1.04325867 17.12025452 C-1.8635556 17.12162918 -2.68385254 17.12300385 -3.52900696 17.12442017 C-4.42524277 17.12082489 -5.32147858 17.11722961 -6.24487305 17.11352539 C-7.66467468 17.11374443 -7.66467468 17.11374443 -9.11315918 17.1139679 C-12.24603557 17.11327047 -15.37885273 17.10548599 -18.51171875 17.09765625 C-20.6821947 17.09579147 -22.85267106 17.09436785 -25.02314758 17.09336853 C-30.73927978 17.08954811 -36.45538662 17.07972184 -42.17150879 17.06866455 C-48.00300758 17.05844024 -53.83451046 17.05386872 -59.66601562 17.04882812 C-71.11068823 17.03809918 -82.55534201 17.02102842 -94 17 C-94 16.67 -94 16.34 -94 16 C-93.34628418 15.98541748 -92.69256836 15.97083496 -92.01904297 15.95581055 C-79.6676467 15.64849165 -67.97271039 15.21907779 -56 12 C-54.60501942 11.65796149 -53.20912957 11.3196167 -51.8125 10.984375 C-45.79291382 9.5274783 -39.87686748 7.97169286 -34 6 C-24.33227246 3.2422521 -15.10223269 1.34596687 -5 1 C-4.505 3.97 -4.505 3.97 -4 7 C-1.03 7.495 -1.03 7.495 2 8 C2.16681109 5.08347826 2.16681109 5.08347826 2 2 C1.01 1.01 1.01 1.01 0 0 Z " fill="#1454BF" transform="translate(216,223)"/>
<path d="M0 0 C1.67642578 0.04737305 1.67642578 0.04737305 3.38671875 0.09570312 C6.13552572 0.17793239 8.87889136 0.29278383 11.625 0.4375 C10.87434998 5.34740568 9.30062995 7.06642224 5.625 10.4375 C-0.39143075 16.83244792 -6.06474487 23.40112954 -11.46484375 30.3203125 C-13.375 32.4375 -13.375 32.4375 -16.375 33.4375 C-16.705 34.4275 -17.035 35.4175 -17.375 36.4375 C-18.365 36.4375 -19.355 36.4375 -20.375 36.4375 C-22.30759177 34.41612147 -23.98861099 32.45261554 -25.6875 30.25 C-26.16767578 29.67185547 -26.64785156 29.09371094 -27.14257812 28.49804688 C-28.48828125 26.76953125 -28.48828125 26.76953125 -30.375 23.4375 C-29.796875 20.578125 -29.796875 20.578125 -28.375 18.4375 C-27.04979497 17.75481862 -25.71687818 17.0867959 -24.375 16.4375 C-24.1584375 15.5403125 -24.1584375 15.5403125 -23.9375 14.625 C-23.08400932 11.30586957 -20.83055358 9.78391786 -18.375 7.4375 C-17.99480713 6.8506543 -17.61461426 6.26380859 -17.22290039 5.65917969 C-12.73161775 -1.03082304 -7.51543438 -0.40277063 0 0 Z " fill="#9C4FCF" transform="translate(479.375,159.5625)"/>
<path d="M0 0 C0.99 0.33 1.98 0.66 3 1 C3 1.99 3 2.98 3 4 C3.99 4.33 4.98 4.66 6 5 C7.5859375 6.94140625 7.5859375 6.94140625 9.375 9.5625 C11.93460715 13.21497312 14.55749514 16.72213053 17.4140625 20.1484375 C18.00525879 20.85798584 18.59645508 21.56753418 19.20556641 22.29858398 C20.39032169 23.71078004 21.58259074 25.11671049 22.78271484 26.51586914 C23.32879395 27.16934326 23.87487305 27.82281738 24.4375 28.49609375 C24.93121094 29.07544678 25.42492187 29.6547998 25.93359375 30.25170898 C27 32 27 32 27 36 C7.37795728 37.80982463 7.37795728 37.80982463 1.828125 33.5859375 C-0.08803312 30.79814355 -1.56916856 28.05720984 -3 25 C-3.66 24.67 -4.32 24.34 -5 24 C-6.02611949 22.34928604 -7.02308143 20.68029994 -8 19 C-8.98244845 17.65368175 -9.97676564 16.31558703 -11 15 C-8.47692599 9.26574089 -4.57715245 4.23810412 0 0 Z " fill="#28D4EB" transform="translate(460,200)"/>
<path d="M0 0 C17.5183584 -1.88577416 17.5183584 -1.88577416 22.84716797 1.00048828 C26.38681957 4.04688127 28.63815046 8.03008269 31 12 C32.52732287 14.052419 34.06813881 16.09489603 35.625 18.125 C39 22.72727273 39 22.72727273 39 25 C39.99 25.33 40.98 25.66 42 26 C41.67 26.66 41.34 27.32 41 28 C40.05125 27.505 39.1025 27.01 38.125 26.5 C35.27721834 24.85575631 35.27721834 24.85575631 33 25 C31.27369121 26.2597055 31.27369121 26.2597055 29.5 27.875 C28.58734375 28.67550781 28.58734375 28.67550781 27.65625 29.4921875 C26.40732959 30.62917636 25.19426669 31.80573331 24 33 C22.32742872 30.87941855 20.66184582 28.75395924 19 26.625 C18.52304687 26.02171875 18.04609375 25.4184375 17.5546875 24.796875 C14 20.2265625 14 20.2265625 14 18 C13.34 18 12.68 18 12 18 C10.67138672 16.56298828 10.67138672 16.56298828 9.1796875 14.5703125 C8.37724609 13.50103516 8.37724609 13.50103516 7.55859375 12.41015625 C7.00300781 11.65605469 6.44742187 10.90195313 5.875 10.125 C5.03001953 9.00544922 5.03001953 9.00544922 4.16796875 7.86328125 C0 2.26225787 0 2.26225787 0 0 Z " fill="#D558A3" transform="translate(413,167)"/>
<path d="M0 0 C2.81939117 2.20979308 5.53058944 4.40062046 8 7 C7.34 7.66 6.68 8.32 6 9 C6.804375 9.78375 7.60875 10.5675 8.4375 11.375 C12.61619006 15.65560933 12.13265738 19.01144204 12.09765625 24.7265625 C12.0962413 25.58937836 12.09482635 26.45219421 12.09336853 27.34115601 C12.08776188 30.1024723 12.07520827 32.86370812 12.0625 35.625 C12.05748586 37.4947905 12.0529228 39.36458226 12.04882812 41.234375 C12.03779029 45.82294777 12.0205212 50.41146023 12 55 C11.67 55 11.34 55 11 55 C10.34 48.73 9.68 42.46 9 36 C7.515 35.505 7.515 35.505 6 35 C5.96261719 35.61488281 5.92523438 36.22976562 5.88671875 36.86328125 C5.82097656 37.67152344 5.75523437 38.47976562 5.6875 39.3125 C5.62949219 40.11300781 5.57148438 40.91351563 5.51171875 41.73828125 C4.90113568 44.43696518 4.18655248 45.33983979 2 47 C-0.30988315 47.74386068 -2.64315944 48.42190703 -5 49 C-5 44.71 -5 40.42 -5 36 C-2.36 36 0.28 36 3 36 C3.37125 34.6696875 3.37125 34.6696875 3.75 33.3125 C5.04964625 29.86843744 6.48729227 27.66975197 9 25 C9.66 25 10.32 25 11 25 C10.505 21.535 10.505 21.535 10 18 C7.93597032 18.48705712 7.93597032 18.48705712 6 20 C5.18129815 23.56206661 5.18129815 23.56206661 5 27 C1.37 27 -2.26 27 -6 27 C-7.33928571 17.89285714 -7.33928571 17.89285714 -5 14 C-5.99 13.505 -5.99 13.505 -7 13 C-7 12.34 -7 11.68 -7 11 C-7.92232422 11.10828125 -7.92232422 11.10828125 -8.86328125 11.21875 C-9.67152344 11.3115625 -10.47976562 11.404375 -11.3125 11.5 C-12.11300781 11.5928125 -12.91351563 11.685625 -13.73828125 11.78125 C-16 12 -16 12 -19 12 C-20.11375 12.020625 -21.2275 12.04125 -22.375 12.0625 C-26 12 -26 12 -28.32389832 11.50892639 C-31.40482528 10.92301254 -34.30640133 10.83797868 -37.44262695 10.79467773 C-38.72357742 10.77473251 -40.00452789 10.75478729 -41.32429504 10.73423767 C-42.71228924 10.71725722 -44.10028467 10.70037827 -45.48828125 10.68359375 C-46.91603675 10.66300576 -48.34378641 10.64200882 -49.77153015 10.62062073 C-53.51806895 10.56559047 -57.26466101 10.51609773 -61.0112915 10.46777344 C-64.83895574 10.41741879 -68.66654323 10.36180582 -72.49414062 10.30664062 C-79.99602863 10.19929224 -87.49798074 10.09779613 -95 10 C-95 9.67 -95 9.34 -95 9 C-71.24 9 -47.48 9 -23 9 C-22.67 8.01 -22.34 7.02 -22 6 C-21.01 6.33 -20.02 6.66 -19 7 C-19 7.66 -19 8.32 -19 9 C-14.71 8.67 -10.42 8.34 -6 8 C-6 7.01 -6 6.02 -6 5 C-4.36368108 3.95107762 -2.69514137 2.95093297 -1 2 C-0.67 1.34 -0.34 0.68 0 0 Z M-4 18 C-4 20.64 -4 23.28 -4 26 C-1.36 26 1.28 26 4 26 C4.04241723 23.66705225 4.04092937 21.33297433 4 19 C2.81575674 17.58422523 2.81575674 17.58422523 -0.5625 17.9375 C-2.2640625 17.9684375 -2.2640625 17.9684375 -4 18 Z M-4 37 C-4.04241723 39.33294775 -4.04092937 41.66702567 -4 44 C-2.94689723 45.27003323 -2.94689723 45.27003323 -0.5625 45.1875 C2.16734675 45.26839983 2.16734675 45.26839983 4 43 C4.16681109 39.91652174 4.16681109 39.91652174 4 37 C1.36 37 -1.28 37 -4 37 Z " fill="#9853D4" transform="translate(215,151)"/>
<path d="M0 0 C-0.33 2.31 -0.66 4.62 -1 7 C-1.99 7 -2.98 7 -4 7 C-3.67 9.64 -3.34 12.28 -3 15 C-2.01 15.33 -1.02 15.66 0 16 C-1.32 16.33 -2.64 16.66 -4 17 C-3.67 18.98 -3.34 20.96 -3 23 C-3.66 23 -4.32 23 -5 23 C-5 30.92 -5 38.84 -5 47 C-1.99740483 47.33218192 -1.99740483 47.33218192 -0.3125 45.5 C0.120625 45.005 0.55375 44.51 1 44 C1.33 46.64 1.66 49.28 2 52 C4.64 52 7.28 52 10 52 C10 49.36 10 46.72 10 44 C7.36 44 4.72 44 2 44 C2 43.67 2 43.34 2 43 C6.62 43 11.24 43 16 43 C16 44.32 16 45.64 16 47 C15.34 47.66 14.68 48.32 14 49 C13.17295995 51.46823091 13.17295995 51.46823091 13 54 C13.66 54.66 14.32 55.32 15 56 C12.525 56.495 12.525 56.495 10 57 C10.32742187 57.56203125 10.65484375 58.1240625 10.9921875 58.703125 C12.11785494 61.26859964 12.2068111 62.96842277 12.125 65.75 C12.10695312 66.54921875 12.08890625 67.3484375 12.0703125 68.171875 C12.04710937 68.77515625 12.02390625 69.3784375 12 70 C9.59454362 71.20272819 8.05003047 71.10071472 5.375 71.0625 C4.55773437 71.05347656 3.74046875 71.04445313 2.8984375 71.03515625 C2.27195312 71.02355469 1.64546875 71.01195312 1 71 C0.67 69.68 0.34 68.36 0 67 C-0.66 67 -1.32 67 -2 67 C-2.33 66.34 -2.66 65.68 -3 65 C-3.33 67.97 -3.66 70.94 -4 74 C-4.66 73.67 -5.32 73.34 -6 73 C-6.09268433 64.07267023 -6.16375667 55.14550609 -6.20724869 46.21780014 C-6.22812288 42.0722733 -6.25643685 37.92707566 -6.30175781 33.78173828 C-6.34522249 29.78114843 -6.36913838 25.78087519 -6.37950897 21.78006744 C-6.38689931 20.25380723 -6.40133111 18.72756432 -6.42292023 17.2014389 C-6.45196424 15.06327386 -6.45595585 12.92641654 -6.45410156 10.78808594 C-6.46298401 9.5711908 -6.47186646 8.35429565 -6.48101807 7.1005249 C-5.88739135 3.27415217 -4.27760742 0 0 0 Z M2 63 C2 65.31 2 67.62 2 70 C4.64 70 7.28 70 10 70 C10 67.69 10 65.38 10 63 C7.36 63 4.72 63 2 63 Z " fill="#A44EC9" transform="translate(120,161)"/>
<path d="M0 0 C9.24 0 18.48 0 28 0 C24.16924459 1.91537771 23.12723958 2.23090252 19.12109375 2.08984375 C18.20005859 2.06986328 17.27902344 2.04988281 16.33007812 2.02929688 C14.39766285 1.96797107 12.46536436 1.90285092 10.53320312 1.83398438 C9.61345703 1.81529297 8.69371094 1.79660156 7.74609375 1.77734375 C6.90747803 1.74890381 6.0688623 1.72046387 5.20483398 1.69116211 C2.51656156 2.06771671 1.67829432 2.92741376 0 5 C0.721875 4.835 1.44375 4.67 2.1875 4.5 C4.86427545 4.02412881 7.28949487 3.922557 10 4 C10 4.99 10 5.98 10 7 C7.36 7 4.72 7 2 7 C2 9.97 2 12.94 2 16 C5.63 16 9.26 16 13 16 C12.01 18.475 12.01 18.475 11 21 C10.34 21 9.68 21 9 21 C9 21.66 9 22.32 9 23 C7.02 23 5.04 23 3 23 C2.67 27.62 2.34 32.24 2 37 C1.01 36.34 0.02 35.68 -1 35 C-1.99 35 -2.98 35 -4 35 C-5.32229189 32.35541621 -5.09677194 30.32238699 -5.0625 27.375 C-5.05347656 26.37210938 -5.04445313 25.36921875 -5.03515625 24.3359375 C-5.02355469 23.56507813 -5.01195313 22.79421875 -5 22 C-4.34 22 -3.68 22 -3 22 C-3.185625 21.030625 -3.37125 20.06125 -3.5625 19.0625 C-3.706875 18.051875 -3.85125 17.04125 -4 16 C-3.67 15.67 -3.34 15.34 -3 15 C-3.5259375 13.9171875 -3.5259375 13.9171875 -4.0625 12.8125 C-5.11155749 9.66532752 -5.03916873 8.11750618 -4 5 C-3.34 4.67 -2.68 4.34 -2 4 C-1.34 2.68 -0.68 1.36 0 0 Z " fill="#F6707C" transform="translate(120,162)"/>
<path d="M0 0 C-0.86625 0.72316406 -0.86625 0.72316406 -1.75 1.4609375 C-2.4925 2.09257812 -3.235 2.72421875 -4 3.375 C-4.7425 4.00148437 -5.485 4.62796875 -6.25 5.2734375 C-6.8275 5.84320313 -7.405 6.41296875 -8 7 C-8.22609337 9.12364481 -8.22609337 9.12364481 -6.5 10.625 C-6.005 11.07875 -5.51 11.5325 -5 12 C-10.56196622 10.37570898 -14.6749181 7.7132915 -19.4140625 4.4609375 C-22.08542619 2.6720774 -22.08542619 2.6720774 -26 3 C-26.33 16.86 -26.66 30.72 -27 45 C-27.33 45 -27.66 45 -28 45 C-28.66 35.76 -29.32 26.52 -30 17 C-36.45988002 20.09260457 -36.45988002 20.09260457 -42 24 C-42 23.34 -42 22.68 -42 22 C-42.70125 22.66 -43.4025 23.32 -44.125 24 C-47.43460229 26.30233203 -49.06225823 26.36630156 -53 26 C-53 26.66 -53 27.32 -53 28 C-51.68 28.33 -50.36 28.66 -49 29 C-49 29.33 -49 29.66 -49 30 C-52.63 30 -56.26 30 -60 30 C-60 33.3 -60 36.6 -60 40 C-60.33 40 -60.66 40 -61 40 C-61.33 37.36 -61.66 34.72 -62 32 C-62.99 32.99 -63.98 33.98 -65 35 C-65.66 34.67 -66.32 34.34 -67 34 C-67 33.34 -67 32.68 -67 32 C-66.01 32 -65.02 32 -64 32 C-63.78730469 31.39027344 -63.57460937 30.78054687 -63.35546875 30.15234375 C-61.4848871 27.18205415 -59.58105242 26.74770909 -56.3125 25.5625 C-52.58439281 24.12280187 -49.39153204 22.79073873 -46.25 20.3125 C-43.24750211 18.17610727 -42.26470115 17.71095206 -38.875 17.125 C-35.58141357 16.44070146 -34.12032084 15.48707406 -32.0625 12.8125 C-29.87167733 9.32909195 -29.40871055 6.08710546 -29 2 C-25.82996029 0.41498015 -22.45345105 0.57262682 -19 1 C-17.66209359 1.99387334 -16.32781878 2.9926892 -15 4 C-12.55721737 3.42557356 -12.55721737 3.42557356 -10 2 C-3.32374101 -1.10791367 -3.32374101 -1.10791367 0 0 Z " fill="#D265AE" transform="translate(182,174)"/>
<path d="M0 0 C0.99 0.33 1.98 0.66 3 1 C3 1.99 3 2.98 3 4 C3.99 4.33 4.98 4.66 6 5 C7.82421875 7.28515625 7.82421875 7.28515625 9.6875 10.0625 C10.31011719 10.98160156 10.93273437 11.90070313 11.57421875 12.84765625 C12.27998047 13.91306641 12.27998047 13.91306641 13 15 C12.34 15.66 11.68 16.32 11 17 C9.35 16.34 7.7 15.68 6 15 C3.525 18.465 3.525 18.465 1 22 C1.66 22.66 2.32 23.32 3 24 C3 24.66 3 25.32 3 26 C2.34 26 1.68 26 1 26 C1.19471111 27.94999129 1.19471111 27.94999129 2 30 C3.96672915 31.1500831 3.96672915 31.1500831 6 32 C6.33 32.66 6.66 33.32 7 34 C5.515 34.495 5.515 34.495 4 35 C3.51789063 34.28972656 3.03578125 33.57945312 2.5390625 32.84765625 C1.90742188 31.92855469 1.27578125 31.00945312 0.625 30.0625 C-0.00148438 29.14597656 -0.62796875 28.22945312 -1.2734375 27.28515625 C-2.79771071 24.91612836 -2.79771071 24.91612836 -5 24 C-6.02611949 22.34928604 -7.02308143 20.68029994 -8 19 C-8.98244845 17.65368175 -9.97676564 16.31558703 -11 15 C-8.47692599 9.26574089 -4.57715245 4.23810412 0 0 Z " fill="#38A4E5" transform="translate(460,200)"/>
<path d="M0 0 C2.53076357 1.39628335 3.56245766 2.36102172 4.8125 5 C4 8.75 4 8.75 2.8125 12 C2.235 12.04125 1.6575 12.0825 1.0625 12.125 C-2.28010279 13.42490109 -3.24390213 16.05515475 -5.1875 19 C-7.625 20.625 -7.625 20.625 -10.1875 22 C-13.73981423 24.52975984 -13.73981423 24.52975984 -16.1875 28 C-18.8275 27.67 -21.4675 27.34 -24.1875 27 C-23.8575 25.35 -23.5275 23.7 -23.1875 22 C-22.1975 22 -21.2075 22 -20.1875 22 C-19.8575 21.01 -19.5275 20.02 -19.1875 19 C-18.218125 18.4225 -17.24875 17.845 -16.25 17.25 C-12.45423971 14.46127815 -12.28024361 12.45503164 -11.1875 8 C-10.1975 7.67 -9.2075 7.34 -8.1875 7 C-8.1875 6.01 -8.1875 5.02 -8.1875 4 C-3.29861111 0 -3.29861111 0 0 0 Z " fill="#8A58DB" transform="translate(432.1875,206)"/>
<path d="M0 0 C0.66 0.99 1.32 1.98 2 3 C1 4 1 4 -1.5625 4.0625 C-2.7690625 4.0315625 -2.7690625 4.0315625 -4 4 C-4.33 4.99 -4.66 5.98 -5 7 C-5.66 7 -6.32 7 -7 7 C-7 9.64 -7 12.28 -7 15 C-7.66 13.68 -8.32 12.36 -9 11 C-9.70511719 11.70511719 -10.41023438 12.41023437 -11.13671875 13.13671875 C-15.7578125 17.7578125 -20.37890625 22.37890625 -25 27 C-24.34 27.99 -23.68 28.98 -23 30 C-24.89385437 30.50744423 -26.79018666 31.00564574 -28.6875 31.5 C-30.27111328 31.91765625 -30.27111328 31.91765625 -31.88671875 32.34375 C-34.71142672 32.9391715 -37.12836708 33.12786492 -40 33 C-39.34 31.68 -38.68 30.36 -38 29 C-37.34 29 -36.68 29 -36 29 C-35.67 28.34 -35.34 27.68 -35 27 C-33.68 27 -32.36 27 -31 27 C-30.814375 26.2575 -30.62875 25.515 -30.4375 24.75 C-28.75138021 21.52437953 -27.04957898 20.84135915 -23.87890625 19.24609375 C-20.91517492 17.2805422 -19.2115181 14.53674499 -17.26171875 11.609375 C-16.63716797 10.81273437 -16.63716797 10.81273437 -16 10 C-15.34 10 -14.68 10 -14 10 C-13.87625 9.21625 -13.7525 8.4325 -13.625 7.625 C-13 5 -13 5 -11 3 C-9.14516546 2.39286197 -7.26578615 1.85868948 -5.375 1.375 C-4.37210938 1.11460937 -3.36921875 0.85421875 -2.3359375 0.5859375 C-1.56507813 0.39257812 -0.79421875 0.19921875 0 0 Z " fill="#4D98E6" transform="translate(217,197)"/>
<path d="M0 0 C0.33 0 0.66 0 1 0 C1.86059267 9.67688652 1.86059267 9.67688652 -1.3125 13.5625 C-4.59153728 16.53651056 -6.77180465 17.12578033 -11.04325867 17.12025452 C-11.8635556 17.12162918 -12.68385254 17.12300385 -13.52900696 17.12442017 C-14.42524277 17.12082489 -15.32147858 17.11722961 -16.24487305 17.11352539 C-17.66467468 17.11374443 -17.66467468 17.11374443 -19.11315918 17.1139679 C-22.24603557 17.11327047 -25.37885273 17.10548599 -28.51171875 17.09765625 C-30.6821947 17.09579147 -32.85267106 17.09436785 -35.02314758 17.09336853 C-40.73927978 17.08954811 -46.45538662 17.07972184 -52.17150879 17.06866455 C-58.00300758 17.05844024 -63.83451046 17.05386872 -69.66601562 17.04882812 C-81.11068823 17.03809918 -92.55534201 17.02102842 -104 17 C-104 16.67 -104 16.34 -104 16 C-90.01627254 15.27828718 -76.04672179 14.89579322 -62.046875 14.75390625 C-60.87482262 14.7414493 -60.87482262 14.7414493 -59.67909241 14.72874069 C-52.36784425 14.65111821 -45.05655995 14.5797967 -37.74511719 14.52319336 C-33.69732759 14.49143691 -29.649726 14.45024498 -25.60208893 14.40299797 C-24.07591318 14.38704795 -22.54969523 14.37469432 -21.02346039 14.36609077 C-18.90964833 14.35395164 -16.79628619 14.32983117 -14.68261719 14.30297852 C-13.48481628 14.29267105 -12.28701538 14.28236359 -11.05291748 14.27174377 C-8.11750857 14.01045958 -6.39746322 13.68745221 -4 12 C-3.34444881 9.47266765 -3.34444881 9.47266765 -3 7 C-2.34 6.67 -1.68 6.34 -1 6 C-0.34227572 2.97065509 -0.34227572 2.97065509 0 0 Z " fill="#131E70" transform="translate(226,223)"/>
<path d="M0 0 C1.82086605 0.8999338 3.63152033 1.82055314 5.4375 2.75 C6.44683594 3.26046875 7.45617187 3.7709375 8.49609375 4.296875 C11 6 11 6 11.91015625 8.078125 C12 10 12 10 11 12 C10.34 12 9.68 12 9 12 C9 12.66 9 13.32 9 14 C7.02 14.33 5.04 14.66 3 15 C3 15.66 3 16.32 3 17 C2.34 17 1.68 17 1 17 C0.67 17.99 0.34 18.98 0 20 C-1.00578589 18.71283353 -2.00446798 17.42011342 -3 16.125 C-3.556875 15.40570313 -4.11375 14.68640625 -4.6875 13.9453125 C-6 12 -6 12 -6 10 C-6.66 10 -7.32 10 -8 10 C-8.33 9.01 -8.66 8.02 -9 7 C-8.1646875 6.938125 -8.1646875 6.938125 -7.3125 6.875 C-3.75969726 5.53069626 -2.29041047 2.99025811 0 0 Z " fill="#9F5ACF" transform="translate(446,190)"/>
<path d="M0 0 C1.32 0.33 2.64 0.66 4 1 C5.48313384 13.06370475 6.28012897 24.84551507 6 37 C3.64891442 33.29178372 3.56844942 29.51394762 3.375 25.25 C3.33632812 24.55261719 3.29765625 23.85523438 3.2578125 23.13671875 C3.16401376 21.42489182 3.08093826 19.71248318 3 18 C1.68 18 0.36 18 -1 18 C-1 21.3 -1 24.6 -1 28 C-3.97 28 -6.94 28 -10 28 C-11.60725635 24.78548731 -11.05748185 21.56387464 -11 18 C-10.34 18 -9.68 18 -9 18 C-8.67 16.68 -8.34 15.36 -8 14 C-6.35 14 -4.7 14 -3 14 C-2.87625 13.360625 -2.7525 12.72125 -2.625 12.0625 C-1.8020178 8.02988724 -0.90114025 4.01576093 0 0 Z M-10 20 C-10.04254356 21.99954746 -10.04080783 24.00041636 -10 26 C-8.87465895 27.35618499 -8.87465895 27.35618499 -5.9375 27.0625 C-4.968125 27.041875 -3.99875 27.02125 -3 27 C-2.61936779 24.6739143 -2.28730055 22.33944736 -2 20 C-3.05224667 18.72443182 -3.05224667 18.72443182 -5.4375 18.875 C-7.98978622 18.82693324 -7.98978622 18.82693324 -10 20 Z " fill="#3AA1D3" transform="translate(221,186)"/>
<path d="M0 0 C4.62 0 9.24 0 14 0 C14 1.32 14 2.64 14 4 C13.34 4.66 12.68 5.32 12 6 C11.17295995 8.46823091 11.17295995 8.46823091 11 11 C11.66 11.66 12.32 12.32 13 13 C11.35 13.33 9.7 13.66 8 14 C8.32742187 14.56203125 8.65484375 15.1240625 8.9921875 15.703125 C10.11785494 18.26859964 10.2068111 19.96842277 10.125 22.75 C10.10695312 23.54921875 10.08890625 24.3484375 10.0703125 25.171875 C10.03550781 26.07679688 10.03550781 26.07679688 10 27 C7.59454362 28.20272819 6.05003047 28.10071472 3.375 28.0625 C2.14910156 28.04896484 2.14910156 28.04896484 0.8984375 28.03515625 C0.27195312 28.02355469 -0.35453125 28.01195312 -1 28 C-1.10349817 21.58311325 -0.74507544 15.37305598 0 9 C2.64 9 5.28 9 8 9 C8 6.36 8 3.72 8 1 C5.36 1 2.72 1 0 1 C0 0.67 0 0.34 0 0 Z M0 20 C0 22.31 0 24.62 0 27 C2.64 27 5.28 27 8 27 C8 24.69 8 22.38 8 20 C5.36 20 2.72 20 0 20 Z " fill="#863DA7" transform="translate(122,204)"/>
<path d="M0 0 C2.51850179 1.2592509 4.1230616 2.92196105 6 5 C5.34 3.35 4.68 1.7 4 0 C4.66 0 5.32 0 6 0 C7.5078125 1.96875 7.5078125 1.96875 9.125 4.5 C9.66382813 5.3353125 10.20265625 6.170625 10.7578125 7.03125 C11.16773438 7.6809375 11.57765625 8.330625 12 9 C12.33 8.34 12.66 7.68 13 7 C13.66 7 14.32 7 15 7 C15 6.34 15 5.68 15 5 C15.99 5 16.98 5 18 5 C16.3718356 8.75730247 13.98598083 11.616823 11.375 14.75 C10.55773437 15.73484375 9.74046875 16.7196875 8.8984375 17.734375 C8.27195312 18.48203125 7.64546875 19.2296875 7 20 C5 18 5 18 3.5625 14.625 C2.26893522 11.62392972 1.07693963 9.47254718 -1 7 C-4.14737182 7.69941596 -7.02588876 8.76078698 -10 10 C-3.63636364 0 -3.63636364 0 0 0 Z " fill="#2E4090" transform="translate(434,200)"/>
<path d="M0 0 C2.97127946 0.88335335 4.66702383 1.59261299 6.6496582 4.01831055 C8.49888691 8.10159209 8.37586052 11.59079238 8.29296875 16.01953125 C8.28872391 16.87810226 8.28447906 17.73667328 8.28010559 18.6212616 C8.26336995 21.35199914 8.22572766 24.08198712 8.1875 26.8125 C8.17244653 28.6686091 8.15875928 30.52472982 8.14648438 32.38085938 C8.11348323 36.92085985 8.06173659 41.46030302 8 46 C7.67 46 7.34 46 7 46 C6.34 39.73 5.68 33.46 5 27 C4.01 26.67 3.02 26.34 2 26 C1.96261719 26.61488281 1.92523438 27.22976562 1.88671875 27.86328125 C1.82097656 28.67152344 1.75523437 29.47976562 1.6875 30.3125 C1.62949219 31.11300781 1.57148438 31.91351563 1.51171875 32.73828125 C0.90113568 35.43696518 0.18655248 36.33983979 -2 38 C-4.30988315 38.74386068 -6.64315944 39.42190703 -9 40 C-9 35.71 -9 31.42 -9 27 C-6.36 27 -3.72 27 -1 27 C-0.62875 25.6696875 -0.62875 25.6696875 -0.25 24.3125 C1.04964625 20.86843744 2.48729227 18.66975197 5 16 C5.66 16 6.32 16 7 16 C7 13.36 7 10.72 7 8 C6.34 8 5.68 8 5 8 C4.34 6.35 3.68 4.7 3 3 C2.34 3 1.68 3 1 3 C0.67 2.01 0.34 1.02 0 0 Z M-8 28 C-8.04241723 30.33294775 -8.04092937 32.66702567 -8 35 C-6.94689723 36.27003323 -6.94689723 36.27003323 -4.5625 36.1875 C-1.83265325 36.26839983 -1.83265325 36.26839983 0 34 C0.16681109 30.91652174 0.16681109 30.91652174 0 28 C-2.64 28 -5.28 28 -8 28 Z " fill="#445D9C" transform="translate(219,160)"/>
<path d="M0 0 C0.33 0 0.66 0 1 0 C1.33 6.93 1.66 13.86 2 21 C-4.93 20.505 -4.93 20.505 -12 20 C-12.33 19.01 -12.66 18.02 -13 17 C-13.99 16.67 -14.98 16.34 -16 16 C-15.67 15.01 -15.34 14.02 -15 13 C-11.7 12.67 -8.4 12.34 -5 12 C-4.67 8.7 -4.34 5.4 -4 2 C-2.68 2 -1.36 2 0 2 C0 1.34 0 0.68 0 0 Z " fill="#29BDE8" transform="translate(224,202)"/>
<path d="M0 0 C-0.66 1.65 -1.32 3.3 -2 5 C-2.66 5 -3.32 5 -4 5 C-4 5.66 -4 6.32 -4 7 C-5.98 7 -7.96 7 -10 7 C-10.33 11.62 -10.66 16.24 -11 21 C-11.99 20.34 -12.98 19.68 -14 19 C-14.99 19 -15.98 19 -17 19 C-18.8934614 15.2130772 -17.93696735 11.00449104 -17 7 C-13.40842429 -0.80238862 -7.87440181 -0.88271764 0 0 Z " fill="#F4688A" transform="translate(133,178)"/>
<path d="M0 0 C0.24218557 2.85778973 0.42974492 5.19617643 0 8 C-2.3125 10.625 -2.3125 10.625 -5 13 C-6.79320824 16.16645474 -6.79320824 16.16645474 -8 19 C-10.64 19 -13.28 19 -16 19 C-15.91621094 19.68707031 -15.83242187 20.37414062 -15.74609375 21.08203125 C-15.64425781 21.98308594 -15.54242188 22.88414062 -15.4375 23.8125 C-15.33308594 24.70582031 -15.22867188 25.59914062 -15.12109375 26.51953125 C-15 29 -15 29 -16 32 C-16.66 31.67 -17.32 31.34 -18 31 C-18.05420701 28.43721301 -18.09377007 25.87558517 -18.125 23.3125 C-18.15013672 22.2306543 -18.15013672 22.2306543 -18.17578125 21.12695312 C-18.21391569 16.95123219 -17.8789919 13.7505862 -16 10 C-12.7 10 -9.4 10 -6 10 C-6.103125 8.906875 -6.20625 7.81375 -6.3125 6.6875 C-6.209375 5.470625 -6.10625 4.25375 -6 3 C-2.22580645 0 -2.22580645 0 0 0 Z " fill="#7E68D5" transform="translate(226,168)"/>
<path d="M0 0 C5.28 0 10.56 0 16 0 C16 0.66 16 1.32 16 2 C16.99 2.33 17.98 2.66 19 3 C19.33 3.99 19.66 4.98 20 6 C19.030625 6.598125 18.06125 7.19625 17.0625 7.8125 C13.76947958 9.71127509 13.76947958 9.71127509 13 13 C12.01 13.33 11.02 13.66 10 14 C7.20213862 12.48500083 5.01907213 10.44688586 3 8 C2.1875 4.1875 2.1875 4.1875 2 1 C1.34 0.67 0.68 0.34 0 0 Z " fill="#F46485" transform="translate(417,169)"/>
<path d="M0 0 C1.37562854 1.28965176 2.70766393 2.62689293 4 4 C4 4.66 4 5.32 4 6 C5.98 6.66 7.96 7.32 10 8 C9.67 8.99 9.34 9.98 9 11 C8.01 11.33 7.02 11.66 6 12 C5.67 12.66 5.34 13.32 5 14 C4.34 14 3.68 14 3 14 C2.67 15.65 2.34 17.3 2 19 C1.01 19 0.02 19 -1 19 C-1.391875 18.071875 -1.78375 17.14375 -2.1875 16.1875 C-4.12822616 12.77449882 -5.53018941 11.68801596 -9 10 C-8.67 9.01 -8.34 8.02 -8 7 C-7.21625 6.71125 -6.4325 6.4225 -5.625 6.125 C-2.3430111 4.71843333 -1.56578002 3.13156004 0 0 Z " fill="#564BAE" transform="translate(230,135)"/>
<path d="M0 0 C0.99 0.33 1.98 0.66 3 1 C3 1.66 3 2.32 3 3 C10.92 2.505 10.92 2.505 19 2 C18.67 2.99 18.34 3.98 18 5 C16.06263299 5.16820551 14.12510094 5.33451095 12.1875 5.5 C10.56908203 5.63921875 10.56908203 5.63921875 8.91796875 5.78125 C6 6 6 6 3 6 C1.88625 6.020625 0.7725 6.04125 -0.375 6.0625 C-4 6 -4 6 -6.32389832 5.50892639 C-9.40482528 4.92301254 -12.30640133 4.83797868 -15.44262695 4.79467773 C-16.72357742 4.77473251 -18.00452789 4.75478729 -19.32429504 4.73423767 C-20.71228924 4.71725722 -22.10028467 4.70037827 -23.48828125 4.68359375 C-24.91603675 4.66300576 -26.34378641 4.64200882 -27.77153015 4.62062073 C-31.51806895 4.56559047 -35.26466101 4.51609773 -39.0112915 4.46777344 C-42.83895574 4.41741879 -46.66654323 4.36180582 -50.49414062 4.30664062 C-57.99602863 4.19929224 -65.49798074 4.09779613 -73 4 C-73 3.67 -73 3.34 -73 3 C-49.24 3 -25.48 3 -1 3 C-0.67 2.01 -0.34 1.02 0 0 Z " fill="#762E69" transform="translate(193,157)"/>
<path d="M0 0 C0.33 0.66 0.66 1.32 1 2 C0.0390625 3.98828125 0.0390625 3.98828125 -1.375 6.3125 C-3.4527513 9.73092322 -5 12.90363918 -5 17 C-4.505 17.61875 -4.01 18.2375 -3.5 18.875 C-2 21 -2 21 -2 24 C0.44480079 23.81171228 0.44480079 23.81171228 3 23 C4.36020151 21.03241727 4.36020151 21.03241727 5 19 C5.99 19 6.98 19 8 19 C8 17.35 8 15.7 8 14 C8.99 14.99 9.98 15.98 11 17 C10.04956626 18.33897583 9.08940853 19.67105427 8.125 21 C7.59132813 21.7425 7.05765625 22.485 6.5078125 23.25 C6.01023437 23.8275 5.51265625 24.405 5 25 C4.34 25 3.68 25 3 25 C2.67 25.99 2.34 26.98 2 28 C1.01 28 0.02 28 -1 28 C-2.93259177 25.97862147 -4.61361099 24.01511554 -6.3125 21.8125 C-6.79267578 21.23435547 -7.27285156 20.65621094 -7.76757812 20.06054688 C-9.11328125 18.33203125 -9.11328125 18.33203125 -11 15 C-10.421875 12.140625 -10.421875 12.140625 -9 10 C-7.67479497 9.31731862 -6.34187818 8.6492959 -5 8 C-4.64587656 6.67203709 -4.31478446 5.33783393 -4 4 C-1.9375 1.75 -1.9375 1.75 0 0 Z " fill="#6043A1" transform="translate(460,168)"/>
<path d="M0 0 C0.391875 0.598125 0.78375 1.19625 1.1875 1.8125 C2.91040307 4.15309933 2.91040307 4.15309933 5.625 5.5 C8 7 8 7 8.8125 9.1875 C8.874375 9.785625 8.93625 10.38375 9 11 C7.68 11 6.36 11 5 11 C3.0207215 12.2832557 3.0207215 12.2832557 1.25 14 C0.63640625 14.556875 0.0228125 15.11375 -0.609375 15.6875 C-1.06828125 16.120625 -1.5271875 16.55375 -2 17 C-5.60654039 14.59563974 -5.85452932 13.05320393 -7 9 C-6.34 9 -5.68 9 -5 9 C-4.87625 7.88625 -4.87625 7.88625 -4.75 6.75 C-3.8603054 3.48778646 -2.51496251 2.19045122 0 0 Z " fill="#C357BB" transform="translate(441,181)"/>
<path d="M0 0 C0.99 0.33 1.98 0.66 3 1 C2.34 3.31 1.68 5.62 1 8 C0.4225 8.04125 -0.155 8.0825 -0.75 8.125 C-4.09260279 9.42490109 -5.05640213 12.05515475 -7 15 C-9.4375 16.625 -9.4375 16.625 -12 18 C-15.55231423 20.52975984 -15.55231423 20.52975984 -18 24 C-19.32 23.67 -20.64 23.34 -22 23 C-21.525625 22.236875 -21.05125 21.47375 -20.5625 20.6875 C-18.89893903 18.03589452 -18.89893903 18.03589452 -18 15 C-14.67483859 11.7540091 -12.9319383 10.22495062 -8.375 9.125 C-4.72161093 7.90720364 -4.39126248 7.59245436 -2.625 4.4375 C-2.08875 3.303125 -1.5525 2.16875 -1 1 C-0.67 0.67 -0.34 0.34 0 0 Z " fill="#7C5EE7" transform="translate(434,210)"/>
<path d="M0 0 C0.33 0.99 0.66 1.98 1 3 C0.319375 3.556875 0.319375 3.556875 -0.375 4.125 C-2.22244119 5.98529973 -2.22244119 5.98529973 -2.8125 8.9375 C-4.34623546 12.89292303 -6.42635733 13.87102139 -10 16 C-10.33 16.66 -10.66 17.32 -11 18 C-11.99 18 -12.98 18 -14 18 C-14.33 19.65 -14.66 21.3 -15 23 C-8.4 23.33 -1.8 23.66 5 24 C4.67 24.66 4.34 25.32 4 26 C-3.59 26 -11.18 26 -19 26 C-17.92163942 20.60819712 -16.99697485 19.49313845 -13.3125 15.6875 C-9.58642914 11.75353678 -6.23002432 7.8220411 -3.15625 3.36328125 C-2.7746875 2.91339844 -2.393125 2.46351563 -2 2 C-1.34 2 -0.68 2 0 2 C0 1.34 0 0.68 0 0 Z " fill="#463B88" transform="translate(423,210)"/>
<path d="M0 0 C1.32 0 2.64 0 4 0 C4.19307102 4.15102688 4.20185798 7.39695966 2 11 C-1.125 12.3125 -1.125 12.3125 -4 13 C-3.67 13.99 -3.34 14.98 -3 16 C-5.31 16.33 -7.62 16.66 -10 17 C-10.33 16.34 -10.66 15.68 -11 15 C-13.52733235 14.34444881 -13.52733235 14.34444881 -16 14 C-16.05399736 12.54207116 -16.09279177 11.08357288 -16.125 9.625 C-16.15980469 8.40683594 -16.15980469 8.40683594 -16.1953125 7.1640625 C-16 5 -16 5 -14 3 C-14 4.32 -14 5.64 -14 7 C-13.34 7 -12.68 7 -12 7 C-11.67 6.34 -11.34 5.68 -11 5 C-11 6.98 -11 8.96 -11 11 C-5.555 10.505 -5.555 10.505 0 10 C0 6.7 0 3.4 0 0 Z " fill="#A44ADE" transform="translate(132,221)"/>
<path d="M0 0 C1.38294718 0.01329757 2.76582404 0.03715018 4.1484375 0.0703125 C4.85484375 0.07933594 5.56125 0.08835938 6.2890625 0.09765625 C8.03399848 0.12123647 9.77876045 0.15710789 11.5234375 0.1953125 C8.73810321 3.31522148 6.67998109 3.73347432 2.5234375 4.1953125 C2.1934375 5.1853125 1.8634375 6.1753125 1.5234375 7.1953125 C-2.00378259 9.76056348 -5.71886034 11.98489947 -9.4765625 14.1953125 C-9.8065625 13.5353125 -10.1365625 12.8753125 -10.4765625 12.1953125 C-9.55078125 9.8828125 -9.55078125 9.8828125 -8.1640625 7.1953125 C-7.71417969 6.3084375 -7.26429688 5.4215625 -6.80078125 4.5078125 C-4.76144911 0.94650091 -4.22427512 0.23731883 0 0 Z " fill="#AD51A2" transform="translate(468.4765625,161.8046875)"/>
<path d="M0 0 C-0.33 2.31 -0.66 4.62 -1 7 C-1.99 7 -2.98 7 -4 7 C-3.67 9.64 -3.34 12.28 -3 15 C-2.01 15.33 -1.02 15.66 0 16 C-1.32 16.33 -2.64 16.66 -4 17 C-3.67 18.98 -3.34 20.96 -3 23 C-3.66 23 -4.32 23 -5 23 C-5 39.5 -5 56 -5 73 C-5.33 73 -5.66 73 -6 73 C-6.09268433 64.07267023 -6.16375667 55.14550609 -6.20724869 46.21780014 C-6.22812288 42.0722733 -6.25643685 37.92707566 -6.30175781 33.78173828 C-6.34522249 29.78114843 -6.36913838 25.78087519 -6.37950897 21.78006744 C-6.38689931 20.25380723 -6.40133111 18.72756432 -6.42292023 17.2014389 C-6.45196424 15.06327386 -6.45595585 12.92641654 -6.45410156 10.78808594 C-6.46298401 9.5711908 -6.47186646 8.35429565 -6.48101807 7.1005249 C-5.88739135 3.27415217 -4.27760742 0 0 0 Z " fill="#954464" transform="translate(120,161)"/>
<path d="M0 0 C3.45713443 3.38344773 6.70394082 6.85594271 9.8125 10.5625 C10.60269531 11.49191406 11.39289063 12.42132813 12.20703125 13.37890625 C14 16 14 16 14 20 C6.74 20 -0.52 20 -8 20 C-8 19.67 -8 19.34 -8 19 C-3.71 19 0.58 19 5 19 C4.5359375 16.1228125 4.5359375 16.1228125 4.0625 13.1875 C3.88847656 12.10855469 3.71445312 11.02960938 3.53515625 9.91796875 C3.06128079 6.95066644 3.06128079 6.95066644 2 4 C1.34 4 0.68 4 0 4 C0 2.68 0 1.36 0 0 Z " fill="#2AA7AF" transform="translate(473,216)"/>
<path d="M0 0 C0.66 0.66 1.32 1.32 2 2 C-12.95785327 7.20754892 -27.10241029 10.3558413 -43 10.3125 C-44.81951172 10.33666992 -44.81951172 10.33666992 -46.67578125 10.36132812 C-48.41408203 10.36229492 -48.41408203 10.36229492 -50.1875 10.36328125 C-51.23292969 10.36626221 -52.27835937 10.36924316 -53.35546875 10.37231445 C-56.32234759 9.95461779 -57.20360477 9.33461932 -59 7 C-56 6 -56 6 -53 7 C-53 7.66 -53 8.32 -53 9 C-42.605 8.505 -42.605 8.505 -32 8 C-32 7.67 -32 7.34 -32 7 C-25.34972579 5.3947614 -18.72511198 4.35031127 -11.94140625 3.46484375 C-9.07581108 3.16378631 -9.07581108 3.16378631 -7 2 C-4.6670134 1.95977609 -2.33293334 1.95679753 0 2 C0 1.34 0 0.68 0 0 Z " fill="#6D5DE5" transform="translate(175,229)"/>
<path d="M0 0 C3.25 0.5 3.25 0.5 4.7578125 2.0625 C6.00898914 3.83559603 7.16634803 5.62039127 8.25 7.5 C7.59 8.16 6.93 8.82 6.25 9.5 C3.775 8.51 3.775 8.51 1.25 7.5 C-0.4 9.81 -2.05 12.12 -3.75 14.5 C-5.07 14.17 -6.39 13.84 -7.75 13.5 C-8.08 12.84 -8.41 12.18 -8.75 11.5 C-8.09 11.17 -7.43 10.84 -6.75 10.5 C-5.87884713 8.41918209 -5.87884713 8.41918209 -5.1875 6 C-3.55246726 0.64590314 -3.55246726 0.64590314 0 0 Z " fill="#34B4EB" transform="translate(464.75,207.5)"/>
<path d="M0 0 C3.3 0 6.6 0 10 0 C10.125 2.875 10.125 2.875 10 6 C9.34 6.66 8.68 7.32 8 8 C7.67 8.845625 7.34 9.69125 7 10.5625 C6 13 6 13 4 14 C2.45976004 14.06950541 0.91665012 14.08452357 -0.625 14.0625 C-1.85089844 14.04896484 -1.85089844 14.04896484 -3.1015625 14.03515625 C-4.04128906 14.01775391 -4.04128906 14.01775391 -5 14 C-4.2265625 12.046875 -4.2265625 12.046875 -3 10 C0.625 9.25 0.625 9.25 4 9 C3.67 6.36 3.34 3.72 3 1 C2.01 0.67 1.02 0.34 0 0 Z " fill="#0B60BA" transform="translate(216,223)"/>
<path d="M0 0 C2.0625 0.4375 2.0625 0.4375 4 1 C3.175 1.45375 2.35 1.9075 1.5 2.375 C0.675 2.91125 -0.15 3.4475 -1 4 C-1 4.66 -1 5.32 -1 6 C1.97 6.495 1.97 6.495 5 7 C5 7.33 5 7.66 5 8 C-5.56 8 -16.12 8 -27 8 C-27 7.67 -27 7.34 -27 7 C-26.46375 6.90203125 -25.9275 6.8040625 -25.375 6.703125 C-19.68533027 5.61759591 -14.05934827 4.32663409 -8.4375 2.9375 C-7.72271484 2.7631543 -7.00792969 2.58880859 -6.27148438 2.40917969 C-2.85277527 1.77148344 -2.85277527 1.77148344 0 0 Z " fill="#333DB6" transform="translate(177,230)"/>
<path d="M0 0 C-0.95117134 1.1725131 -1.91117009 2.33787015 -2.875 3.5 C-3.67550781 4.47453125 -3.67550781 4.47453125 -4.4921875 5.46875 C-4.98976563 5.9740625 -5.48734375 6.479375 -6 7 C-6.66 7 -7.32 7 -8 7 C-8.1546875 7.928125 -8.1546875 7.928125 -8.3125 8.875 C-9 11 -9 11 -12 13 C-14.48046875 13.1953125 -14.48046875 13.1953125 -17.1875 13.125 C-18.08855469 13.10695312 -18.98960937 13.08890625 -19.91796875 13.0703125 C-20.60503906 13.04710937 -21.29210937 13.02390625 -22 13 C-13.33511673 4.08754864 -13.33511673 4.08754864 -8.1875 3.75 C-6.6096875 3.87375 -6.6096875 3.87375 -5 4 C-5.33 2.68 -5.66 1.36 -6 0 C-3.50907189 -1.24546405 -2.58919267 -0.7767578 0 0 Z " fill="#5E70E4" transform="translate(440,221)"/>
<path d="M0 0 C4.6780303 2.3989899 4.6780303 2.3989899 5.9375 4.75 C6.04798291 8.72738474 4.84278522 12.43528178 2.96484375 15.921875 C1.87687106 18.26520078 1.60137888 20.18437275 1.375 22.75 C1.30023438 23.54921875 1.22546875 24.3484375 1.1484375 25.171875 C1.09945312 25.77515625 1.05046875 26.3784375 1 27 C0.34 26.67 -0.32 26.34 -1 26 C-0.67 23.36 -0.34 20.72 0 18 C-2.31 18 -4.62 18 -7 18 C-7 17.34 -7 16.68 -7 16 C-5.02 16 -3.04 16 -1 16 C-0.67 14.68 -0.34 13.36 0 12 C0.66 12 1.32 12 2 12 C2 11.34 2 10.68 2 10 C-1.3 9.67 -4.6 9.34 -8 9 C-8 8.67 -8 8.34 -8 8 C-5.69 8 -3.38 8 -1 8 C-0.67 5.36 -0.34 2.72 0 0 Z " fill="#CE5573" transform="translate(130,169)"/>
<path d="M0 0 C0.66 0 1.32 0 2 0 C1.625 1.9375 1.625 1.9375 1 4 C0.01 4.495 0.01 4.495 -1 5 C-2.13350534 7.01669827 -2.13350534 7.01669827 -3 9 C-3.66 9 -4.32 9 -5 9 C-5.226875 9.515625 -5.45375 10.03125 -5.6875 10.5625 C-8.33245392 15.47455728 -10.75329189 19.72642649 -16 22 C-16.7115625 22.99 -16.7115625 22.99 -17.4375 24 C-19.35379107 26.45285257 -21.0813384 27.05340705 -24 28 C-24 28.66 -24 29.32 -24 30 C-25.65 30 -27.3 30 -29 30 C-28.34 28.68 -27.68 27.36 -27 26 C-26.34 26 -25.68 26 -25 26 C-24.67 25.34 -24.34 24.68 -24 24 C-22.68 24 -21.36 24 -20 24 C-19.814375 23.2575 -19.62875 22.515 -19.4375 21.75 C-17.75138021 18.52437953 -16.04957898 17.84135915 -12.87890625 16.24609375 C-9.91517492 14.2805422 -8.2115181 11.53674499 -6.26171875 8.609375 C-5.63716797 7.81273437 -5.63716797 7.81273437 -5 7 C-4.34 7 -3.68 7 -3 7 C-2.87625 6.21625 -2.7525 5.4325 -2.625 4.625 C-2 2 -2 2 0 0 Z " fill="#5D7BDF" transform="translate(206,200)"/>
<path d="M0 0 C0.99 0.33 1.98 0.66 3 1 C3.75 2.9375 3.75 2.9375 4 5 C3.67 5.66 3.34 6.32 3 7 C2.34 7 1.68 7 1 7 C1 7.66 1 8.32 1 9 C-0.98 9.33 -2.96 9.66 -5 10 C-5 10.66 -5 11.32 -5 12 C-5.66 12 -6.32 12 -7 12 C-7.33 12.99 -7.66 13.98 -8 15 C-8.99 13.68 -9.98 12.36 -11 11 C-9.49616703 6.78926767 -6.79335044 5.16762883 -3 3 C-2.01 3 -1.02 3 0 3 C0 2.01 0 1.02 0 0 Z " fill="#7269DE" transform="translate(454,195)"/>
<path d="M0 0 C0.66 0 1.32 0 2 0 C2.33 1.32 2.66 2.64 3 4 C4.32 4.33 5.64 4.66 7 5 C6.625 6.9375 6.625 6.9375 6 9 C5.01 9.495 5.01 9.495 4 10 C2.86649466 12.01669827 2.86649466 12.01669827 2 14 C1.01 13.67 0.02 13.34 -1 13 C-1.33 12.01 -1.66 11.02 -2 10 C-2.99 9.34 -3.98 8.68 -5 8 C-5 7.01 -5 6.02 -5 5 C-4.01 4.67 -3.02 4.34 -2 4 C-0.79117904 1.99983534 -0.79117904 1.99983534 0 0 Z " fill="#535997" transform="translate(201,141)"/>
<path d="M0 0 C0.33 0 0.66 0 1 0 C1 13.2 1 26.4 1 40 C0.67 40 0.34 40 0 40 C-0.66 30.76 -1.32 21.52 -2 12 C-8.45988002 15.09260457 -8.45988002 15.09260457 -14 19 C-14 18.01 -14 17.02 -14 16 C-13.34 16 -12.68 16 -12 16 C-12 15.34 -12 14.68 -12 14 C-10.56328432 13.35242375 -9.12559584 12.70700547 -7.6875 12.0625 C-6.88699219 11.70285156 -6.08648437 11.34320313 -5.26171875 10.97265625 C-3 10 -3 10 0 9 C0 6.03 0 3.06 0 0 Z " fill="#B666C4" transform="translate(154,179)"/>
<path d="M0 0 C-1.125 1.5 -1.125 1.5 -3 3 C-6.1875 3.1875 -6.1875 3.1875 -9 3 C-9 3.66 -9 4.32 -9 5 C-7.68 5.33 -6.36 5.66 -5 6 C-5 6.33 -5 6.66 -5 7 C-8.63 7 -12.26 7 -16 7 C-16 10.3 -16 13.6 -16 17 C-16.33 17 -16.66 17 -17 17 C-17.33 14.36 -17.66 11.72 -18 9 C-18.99 9.99 -19.98 10.98 -21 12 C-21.66 11.67 -22.32 11.34 -23 11 C-23 10.34 -23 9.68 -23 9 C-22.01 9 -21.02 9 -20 9 C-19.82339844 8.40832031 -19.64679688 7.81664062 -19.46484375 7.20703125 C-17.28056583 3.91605251 -14.12463096 3.02455574 -10.5625 1.6875 C-9.88123047 1.41099609 -9.19996094 1.13449219 -8.49804688 0.84960938 C-3.39910502 -1.13303501 -3.39910502 -1.13303501 0 0 Z " fill="#C051B5" transform="translate(138,197)"/>
<path d="M0 0 C0.66 1.32 1.32 2.64 2 4 C-1.08809695 5.76462683 -2.23312136 6 -6 6 C-7.02196992 6.97753644 -8.01979625 7.9805881 -9 9 C-10.65438613 9.69658363 -12.32254318 10.36096883 -14 11 C-14.7425 11.474375 -15.485 11.94875 -16.25 12.4375 C-19.98361237 14.55887066 -23.90802145 15.74298698 -28 17 C-24.33144896 13.03540849 -19.71327392 10.58308646 -15.125 7.8125 C-14.22652344 7.25369141 -13.32804688 6.69488281 -12.40234375 6.11914062 C-11.52964844 5.59126953 -10.65695313 5.06339844 -9.7578125 4.51953125 C-8.9652002 4.03589111 -8.17258789 3.55225098 -7.35595703 3.05395508 C-4.71363041 1.87189041 -2.86274007 1.79533725 0 2 C0 1.34 0 0.68 0 0 Z " fill="#896BD8" transform="translate(190,202)"/>
<path d="M0 0 C4.62 0 9.24 0 14 0 C14 1.32 14 2.64 14 4 C13.34 4.66 12.68 5.32 12 6 C11.35232207 8.57061311 11.35232207 8.57061311 11 11 C7.18243176 12.37432457 3.92744671 11.67975039 0 11 C0 10.34 0 9.68 0 9 C2.64 9 5.28 9 8 9 C8 6.36 8 3.72 8 1 C5.36 1 2.72 1 0 1 C0 0.67 0 0.34 0 0 Z " fill="#9547A6" transform="translate(122,204)"/>
<path d="M0 0 C0.99 0.33 1.98 0.66 3 1 C3 1.99 3 2.98 3 4 C3.99 4.33 4.98 4.66 6 5 C6.33 5.99 6.66 6.98 7 8 C5.68 7.67 4.36 7.34 3 7 C3 6.34 3 5.68 3 5 C1.02 5.33 -0.96 5.66 -3 6 C-2.67 7.32 -2.34 8.64 -2 10 C-2.825 10.37125 -3.65 10.7425 -4.5 11.125 C-5.325 11.74375 -6.15 12.3625 -7 13 C-7.41746608 16.12635209 -7.41746608 16.12635209 -7 19 C-8.32 17.68 -9.64 16.36 -11 15 C-8.47692599 9.26574089 -4.57715245 4.23810412 0 0 Z " fill="#3372A1" transform="translate(460,200)"/>
<path d="M0 0 C7.92 0 15.84 0 24 0 C22.90810185 5.45949074 22.31208438 6.01471081 18 9 C18 6.69 18 4.38 18 2 C11.73 2 5.46 2 -1 2 C-0.67 1.34 -0.34 0.68 0 0 Z " fill="#6A3B7E" transform="translate(467,160)"/>
<path d="M0 0 C3.48331435 3.01887244 4.79157144 5.56909529 6 10 C3.69 10 1.38 10 -1 10 C-1.33 10.66 -1.66 11.32 -2 12 C-4.475 11.01 -4.475 11.01 -7 10 C-6.67 9.34 -6.34 8.68 -6 8 C-5.01 8 -4.02 8 -3 8 C-2.814375 6.8553125 -2.814375 6.8553125 -2.625 5.6875 C-2 3 -2 3 0 0 Z " fill="#8A64DD" transform="translate(230,135)"/>
<path d="M0 0 C6.93 0 13.86 0 21 0 C20.67 0.99 20.34 1.98 20 3 C15.38 3 10.76 3 6 3 C6.33 5.31 6.66 7.62 7 10 C3.33813338 6.62722811 1.91094879 4.77737198 0 0 Z " fill="#BA6172" transform="translate(413,167)"/>
<path d="M0 0 C3.63 0 7.26 0 11 0 C11 3.63 11 7.26 11 11 C7.37 11 3.74 11 0 11 C-1.125 2.25 -1.125 2.25 0 0 Z M2 2 C2 4.64 2 7.28 2 10 C4.64 10 7.28 10 10 10 C10.04241723 7.66705225 10.04092937 5.33297433 10 3 C8.81575674 1.58422523 8.81575674 1.58422523 5.4375 1.9375 C3.7359375 1.9684375 3.7359375 1.9684375 2 2 Z " fill="#754BA2" transform="translate(209,167)"/>
<path d="M0 0 C0.33 0.66 0.66 1.32 1 2 C1.53625 1.79375 2.0725 1.5875 2.625 1.375 C5.83267308 0.8685253 8.01317066 1.84599775 11 3 C11 3.66 11 4.32 11 5 C9.20963542 5.9765625 7.41927083 6.953125 5.62890625 7.9296875 C3.83381685 8.91410024 3.83381685 8.91410024 3 11 C2.01 11 1.02 11 0 11 C0 7.37 0 3.74 0 0 Z " fill="#F2689B" transform="translate(115,195)"/>
<path d="M0 0 C-0.5775 0.48210937 -1.155 0.96421875 -1.75 1.4609375 C-2.4925 2.09257812 -3.235 2.72421875 -4 3.375 C-4.7425 4.00148437 -5.485 4.62796875 -6.25 5.2734375 C-6.8275 5.84320313 -7.405 6.41296875 -8 7 C-8.22609337 9.12364481 -8.22609337 9.12364481 -6.5 10.625 C-6.005 11.07875 -5.51 11.5325 -5 12 C-8.78383679 11.07506212 -10.56693694 10.60628829 -12.875 7.375 C-13.431875 6.199375 -13.431875 6.199375 -14 5 C-4.62406015 -1.54135338 -4.62406015 -1.54135338 0 0 Z " fill="#B357BD" transform="translate(182,174)"/>
<path d="M0 0 C0 0.99 0 1.98 0 3 C1.32 3.33 2.64 3.66 4 4 C4 4.99 4 5.98 4 7 C2.68 7.33 1.36 7.66 0 8 C0 8.99 0 9.98 0 11 C-0.99 10.67 -1.98 10.34 -3 10 C-3 9.34 -3 8.68 -3 8 C-3.99 7.67 -4.98 7.34 -6 7 C-6 4 -6 4 -4.125 1.8125 C-2 0 -2 0 0 0 Z " fill="#92435A" transform="translate(216,130)"/>
<path d="M0 0 C6.875 2.75 6.875 2.75 8 5 C8.13559318 8.00474497 8.04299016 10.99068847 8 14 C5.03 14 2.06 14 -1 14 C-2.60725635 10.78548731 -2.05748185 7.56387464 -2 4 C-1.34 4 -0.68 4 0 4 C0 2.68 0 1.36 0 0 Z M-1 6 C-1.04254356 7.99954746 -1.04080783 10.00041636 -1 12 C0.12534105 13.35618499 0.12534105 13.35618499 3.0625 13.0625 C4.031875 13.041875 5.00125 13.02125 6 13 C6.38063221 10.6739143 6.71269945 8.33944736 7 6 C5.94775333 4.72443182 5.94775333 4.72443182 3.5625 4.875 C1.01021378 4.82693324 1.01021378 4.82693324 -1 6 Z " fill="#3183B7" transform="translate(212,200)"/>
<path d="M0 0 C2.81939117 2.20979308 5.53058944 4.40062046 8 7 C7.01 7.33 6.02 7.66 5 8 C4.34 7.34 3.68 6.68 3 6 C2.67 7.65 2.34 9.3 2 11 C0.68 10.67 -0.64 10.34 -2 10 C-2 9.01 -2 8.02 -2 7 C-3.32 7.33 -4.64 7.66 -6 8 C-6 7.01 -6 6.02 -6 5 C-4.36368108 3.95107762 -2.69514137 2.95093297 -1 2 C-0.67 1.34 -0.34 0.68 0 0 Z " fill="#774AB1" transform="translate(215,151)"/>
<path d="M0 0 C0.66 0 1.32 0 2 0 C1.83923477 0.57679504 1.67846954 1.15359009 1.51283264 1.74786377 C1.01977378 3.91316224 0.84501739 5.81923487 0.79467773 8.03417969 C0.77473251 8.81468689 0.75478729 9.59519409 0.73423767 10.39935303 C0.71752518 11.23178528 0.70081268 12.06421753 0.68359375 12.921875 C0.66281265 13.78186096 0.64203156 14.64184692 0.62062073 15.52789307 C0.55536261 18.26851598 0.49635083 21.00923275 0.4375 23.75 C0.39429219 25.6106867 0.35067718 27.47136398 0.30664062 29.33203125 C0.19970558 33.88792523 0.09837149 38.4439134 0 43 C1.32 43.33 2.64 43.66 4 44 C2.0625 44.5625 2.0625 44.5625 0 45 C-1.53084425 43.46915575 -1.12715779 42.08796856 -1.12939453 39.95507812 C-1.13254669 39.09748901 -1.13569885 38.2398999 -1.13894653 37.35632324 C-1.1369223 36.42404907 -1.13489807 35.4917749 -1.1328125 34.53125 C-1.13376923 33.58060669 -1.13472595 32.62996338 -1.13571167 31.6505127 C-1.13639357 29.63631118 -1.13453862 27.62210748 -1.13037109 25.60791016 C-1.12502298 22.51329645 -1.13031577 19.4188279 -1.13671875 16.32421875 C-1.13605797 14.37239551 -1.13477681 12.42057236 -1.1328125 10.46875 C-1.13483673 9.53647583 -1.13686096 8.60420166 -1.13894653 7.64367676 C-1.13579437 6.78608765 -1.13264221 5.92849854 -1.12939453 5.04492188 C-1.12859894 4.28626831 -1.12780334 3.52761475 -1.12698364 2.74597168 C-1 1 -1 1 0 0 Z " fill="#F3D4FE" transform="translate(156,176)"/>
<path d="M0 0 C0.66 0 1.32 0 2 0 C2 0.66 2 1.32 2 2 C2.66 2 3.32 2 4 2 C4 2.99 4 3.98 4 5 C4.99 4.67 5.98 4.34 7 4 C9.1875 4.9375 9.1875 4.9375 11 6 C11 6.66 11 7.32 11 8 C11.66 8.33 12.32 8.66 13 9 C12.67 9.99 12.34 10.98 12 12 C8.4124787 10.66749209 5.1635377 9.169283 2 7 C2 6.34 2 5.68 2 5 C1.01 4.34 0.02 3.68 -1 3 C-0.67 2.01 -0.34 1.02 0 0 Z " fill="#9C5BCC" transform="translate(174,180)"/>
<path d="M0 0 C0.33 0.99 0.66 1.98 1 3 C0.54625 3.37125 0.0925 3.7425 -0.375 4.125 C-2.22244119 5.98529973 -2.22244119 5.98529973 -2.8125 8.9375 C-4.34623546 12.89292303 -6.42635733 13.87102139 -10 16 C-10.33 16.66 -10.66 17.32 -11 18 C-13.0625 18.625 -13.0625 18.625 -15 19 C-15 17 -15 17 -13 15 C-12.55011719 14.57332031 -12.10023438 14.14664063 -11.63671875 13.70703125 C-8.75022438 10.69653473 -6.29813287 7.32355835 -3.76953125 4.01171875 C-3.18558594 3.34785156 -2.60164063 2.68398437 -2 2 C-1.34 2 -0.68 2 0 2 C0 1.34 0 0.68 0 0 Z " fill="#6B48AA" transform="translate(423,210)"/>
<path d="M0 0 C1.98 0 3.96 0 6 0 C6.33 0.99 6.66 1.98 7 3 C6.030625 3.598125 5.06125 4.19625 4.0625 4.8125 C0.76947958 6.71127509 0.76947958 6.71127509 0 10 C-0.99 10.33 -1.98 10.66 -3 11 C-4.32 9.68 -5.64 8.36 -7 7 C-5.35 6.67 -3.7 6.34 -2 6 C-1.34 4.02 -0.68 2.04 0 0 Z " fill="#E95F95" transform="translate(430,172)"/>
<path d="M0 0 C0.33 0 0.66 0 1 0 C1.33 3.3 1.66 6.6 2 10 C0.02 10.99 0.02 10.99 -2 12 C-2 12.66 -2 13.32 -2 14 C-2.66 14 -3.32 14 -4 14 C-4 10.37 -4 6.74 -4 3 C-3.34 3 -2.68 3 -2 3 C-1.34 2.01 -0.68 1.02 0 0 Z " fill="#B84ECC" transform="translate(120,205)"/>
<path d="M0 0 C4.17383395 3.92831431 7.89394426 8.16479983 11 13 C11 13.66 11 14.32 11 15 C11.99 15.33 12.98 15.66 14 16 C13.67 16.66 13.34 17.32 13 18 C10.5625 17.3125 10.5625 17.3125 8 16 C7.855625 15.21625 7.71125 14.4325 7.5625 13.625 C7.2840625 12.325625 7.2840625 12.325625 7 11 C6.01 10.38125 5.02 9.7625 4 9.125 C1 7 1 7 0.125 3.25 C0.08375 2.1775 0.0425 1.105 0 0 Z " fill="#944A8B" transform="translate(441,177)"/>
<path d="M0 0 C4.62 0 9.24 0 14 0 C10.45588058 3.54411942 9.255488 3.97872054 4.3125 4.0625 C3.219375 4.041875 2.12625 4.02125 1 4 C1 4.66 1 5.32 1 6 C0.01 5.67 -0.98 5.34 -2 5 C-1.34 3.35 -0.68 1.7 0 0 Z " fill="#CC61AD" transform="translate(466,162)"/>
<path d="M0 0 C0.1875 2.375 0.1875 2.375 0 5 C-3.20380017 7.13586678 -4.01939967 7.23132175 -7.6875 7.125 C-8.89986328 7.09792969 -8.89986328 7.09792969 -10.13671875 7.0703125 C-11.05904297 7.03550781 -11.05904297 7.03550781 -12 7 C-10.99836491 4.35086676 -10.45978604 3.22609662 -7.87109375 1.953125 C-7.06800781 1.72109375 -6.26492187 1.4890625 -5.4375 1.25 C-4.63183594 1.00765625 -3.82617188 0.7653125 -2.99609375 0.515625 C-1 0 -1 0 0 0 Z " fill="#085DC8" transform="translate(223,230)"/>
<path d="M0 0 C2.31 0.66 4.62 1.32 7 2 C7 2.99 7 3.98 7 5 C6.34 5 5.68 5 5 5 C5.19471111 6.94999129 5.19471111 6.94999129 6 9 C7.96672915 10.1500831 7.96672915 10.1500831 10 11 C10.33 11.66 10.66 12.32 11 13 C10.01 13.33 9.02 13.66 8 14 C7.51789063 13.28972656 7.03578125 12.57945312 6.5390625 11.84765625 C5.90742188 10.92855469 5.27578125 10.00945312 4.625 9.0625 C3.99851562 8.14597656 3.37203125 7.22945312 2.7265625 6.28515625 C1.20228929 3.91612836 1.20228929 3.91612836 -1 3 C-0.67 2.01 -0.34 1.02 0 0 Z " fill="#2AA2C2" transform="translate(456,221)"/>
<path d="M0 0 C1.98 0 3.96 0 6 0 C6 1.32 6 2.64 6 4 C5.38511719 4.33773437 4.77023437 4.67546875 4.13671875 5.0234375 C3.32847656 5.46945313 2.52023437 5.91546875 1.6875 6.375 C0.88699219 6.81585938 0.08648437 7.25671875 -0.73828125 7.7109375 C-2.53527943 8.73513335 -4.27900708 9.85267138 -6 11 C-4.18690997 7.22272911 -2.0926741 3.62730178 0 0 Z " fill="#8D5ED8" transform="translate(448,194)"/>
<path d="M0 0 C2.31459868 1.81817001 2.95377187 2.75615543 3.51171875 5.69921875 C3.59873047 7.17841797 3.59873047 7.17841797 3.6875 8.6875 C3.78611328 10.17830078 3.78611328 10.17830078 3.88671875 11.69921875 C3.92410156 12.45847656 3.96148437 13.21773437 4 14 C1.03 14 -1.94 14 -5 14 C-5 13.67 -5 13.34 -5 13 C-2.36 13 0.28 13 3 13 C3 12.01 3 11.02 3 10 C2.01 10 1.02 10 0 10 C-0.33 10.66 -0.66 11.32 -1 12 C-1 10.68 -1 9.36 -1 8 C-0.34 8 0.32 8 1 8 C1 7.34 1 6.68 1 6 C0.34 6 -0.32 6 -1 6 C-0.67 4.02 -0.34 2.04 0 0 Z " fill="#2AE3EA" transform="translate(474,220)"/>
<path d="M0 0 C1.32 0.33 2.64 0.66 4 1 C4 1.99 4 2.98 4 4 C4.66 4.33 5.32 4.66 6 5 C6 6.65 6 8.3 6 10 C4.02 10 2.04 10 0 10 C0 9.34 0 8.68 0 8 C-0.66 7.67 -1.32 7.34 -2 7 C-2 6.34 -2 5.68 -2 5 C-1.01 4.67 -0.02 4.34 1 4 C0.67 2.68 0.34 1.36 0 0 Z " fill="#9E4DC8" transform="translate(210,157)"/>
<path d="M0 0 C1.32 0 2.64 0 4 0 C4.19402245 4.17148265 4.01430083 7.28944583 2 11 C-0.88211302 11.96070434 -2.69850044 12.10581883 -5.6875 12.0625 C-6.89986328 12.04896484 -6.89986328 12.04896484 -8.13671875 12.03515625 C-9.05904297 12.01775391 -9.05904297 12.01775391 -10 12 C-10 11.67 -10 11.34 -10 11 C-6.7 10.67 -3.4 10.34 0 10 C0 6.7 0 3.4 0 0 Z " fill="#944FCC" transform="translate(132,221)"/>
<path d="M0 0 C-0.95117134 1.1725131 -1.91117009 2.33787015 -2.875 3.5 C-3.67550781 4.47453125 -3.67550781 4.47453125 -4.4921875 5.46875 C-4.98976563 5.9740625 -5.48734375 6.479375 -6 7 C-6.66 7 -7.32 7 -8 7 C-8.103125 7.639375 -8.20625 8.27875 -8.3125 8.9375 C-8.539375 9.618125 -8.76625 10.29875 -9 11 C-9.99 11.33 -10.98 11.66 -12 12 C-12.66 10.68 -13.32 9.36 -14 8 C-13.34 7.67 -12.68 7.34 -12 7 C-11.34 7.33 -10.68 7.66 -10 8 C-9.67 6.68 -9.34 5.36 -9 4 C-7.68 4 -6.36 4 -5 4 C-5.33 2.68 -5.66 1.36 -6 0 C-3.50907189 -1.24546405 -2.58919267 -0.7767578 0 0 Z " fill="#4458AA" transform="translate(440,221)"/>
<path d="M0 0 C0.9375 2 0.9375 2 1 4 C0.34 4.66 -0.32 5.32 -1 6 C-1.99 4.68 -2.98 3.36 -4 2 C-7.14737182 2.69941596 -10.02588876 3.76078698 -13 5 C-9.61446977 -0.68285431 -9.61446977 -0.68285431 -7.0625 -2 C-4.23623687 -2 -2.45536181 -1.39358373 0 0 Z " fill="#503BAD" transform="translate(437,205)"/>
<path d="M0 0 C1.9375 0.75 1.9375 0.75 4 2 C4.75 4.125 4.75 4.125 5 6 C3.68 6 2.36 6 1 6 C-0.9792785 7.2832557 -0.9792785 7.2832557 -2.75 9 C-3.36359375 9.556875 -3.9771875 10.11375 -4.609375 10.6875 C-5.06828125 11.120625 -5.5271875 11.55375 -6 12 C-6.99 11.01 -7.98 10.02 -9 9 C-8.01 9 -7.02 9 -6 9 C-5.67 8.34 -5.34 7.68 -5 7 C-4.34 7 -3.68 7 -3 7 C-2.67 6.34 -2.34 5.68 -2 5 C-1.34 5 -0.68 5 0 5 C0 3.35 0 1.7 0 0 Z " fill="#AF59C4" transform="translate(445,186)"/>
<path d="M0 0 C1.65 0 3.3 0 5 0 C5.33 0.99 5.66 1.98 6 3 C13.92 3 21.84 3 30 3 C30 3.33 30 3.66 30 4 C25.56262288 4.08690253 21.12546366 4.14035926 16.6875 4.1875 C14.79354492 4.22520508 14.79354492 4.22520508 12.86132812 4.26367188 C11.04858398 4.27817383 11.04858398 4.27817383 9.19921875 4.29296875 C7.52605591 4.31653442 7.52605591 4.31653442 5.8190918 4.34057617 C3 4 3 4 1.11254883 2.54418945 C0 1 0 1 0 0 Z " fill="#8158BC" transform="translate(116,235)"/>
<path d="M0 0 C0.66 1.65 1.32 3.3 2 5 C-4.6 5 -11.2 5 -18 5 C-18 4.67 -18 4.34 -18 4 C-14.04 4 -10.08 4 -6 4 C-6 3.34 -6 2.68 -6 2 C-3 0 -3 0 0 0 Z " fill="#904CDA" transform="translate(142,233)"/>
<path d="M0 0 C2.31 0.33 4.62 0.66 7 1 C6.06862408 2.29608947 5.1296434 3.58671632 4.1875 4.875 C3.66542969 5.59429687 3.14335937 6.31359375 2.60546875 7.0546875 C1 9 1 9 -2 11 C-2.1875 8.125 -2.1875 8.125 -2 5 C-1.01 4.34 -0.02 3.68 1 3 C0.67 2.01 0.34 1.02 0 0 Z " fill="#6E47BB" transform="translate(473,174)"/>
<path d="M0 0 C0.33 1.32 0.66 2.64 1 4 C0.01 4.33 -0.98 4.66 -2 5 C-3.20882096 7.00016466 -3.20882096 7.00016466 -4 9 C-4.99 8.67 -5.98 8.34 -7 8 C-7.875 6.125 -7.875 6.125 -8 4 C-6.35495989 1.53243984 -5.19700648 1.05039701 -2.3125 0.3125 C-1.549375 0.209375 -0.78625 0.10625 0 0 Z " fill="#8A54DA" transform="translate(467,183)"/>
<path d="M0 0 C0.33 0.66 0.66 1.32 1 2 C0.0390625 3.98828125 0.0390625 3.98828125 -1.375 6.3125 C-3.35068316 9.56299549 -4.42598692 12.22886755 -5 16 C-5.99 16 -6.98 16 -8 16 C-7.19970596 9.27753007 -5.06922216 4.54481987 0 0 Z " fill="#A144B0" transform="translate(460,168)"/>
<path d="M0 0 C0.33 0 0.66 0 1 0 C1.33872513 1.41538717 1.67074624 2.83237963 2 4.25 C2.185625 5.03890625 2.37125 5.8278125 2.5625 6.640625 C3 9 3 9 3 13 C2.34 13 1.68 13 1 13 C0.731875 12.401875 0.46375 11.80375 0.1875 11.1875 C-0.98493467 9.02775192 -2.19369282 7.64209744 -4 6 C-2.88596087 3.77192174 -1.55437434 1.94296793 0 0 Z " fill="#9748BC" transform="translate(457,179)"/>
<path d="M0 0 C0 0.66 0 1.32 0 2 C-0.99 2.33 -1.98 2.66 -3 3 C-1.23470405 4.21690533 -1.23470405 4.21690533 1 5 C3.23470405 4.21690533 3.23470405 4.21690533 5 3 C5.33 4.32 5.66 5.64 6 7 C3.375 7.75 3.375 7.75 0 8 C-3.375 6.0625 -3.375 6.0625 -6 4 C-5.67 3.01 -5.34 2.02 -5 1 C-2 0 -2 0 0 0 Z " fill="#5F49A9" transform="translate(227,141)"/>
<path d="M0 0 C0.66 0 1.32 0 2 0 C3.25664978 2.90600261 4 4.79604584 4 8 C2.1875 8.625 2.1875 8.625 0 9 C-0.99 8.34 -1.98 7.68 -3 7 C-2.01 4.69 -1.02 2.38 0 0 Z " fill="#6C75BD" transform="translate(201,141)"/>
<path d="M0 0 C-1.2065625 0.6496875 -1.2065625 0.6496875 -2.4375 1.3125 C-5.27846354 2.80474002 -5.27846354 2.80474002 -6 6 C-8.31 6 -10.62 6 -13 6 C-11.9280096 2.5458087 -10.90283569 1.94781917 -7.625 0.1875 C-3.0098832 -1.32434861 -3.0098832 -1.32434861 0 0 Z " fill="#2647C1" transform="translate(181,231)"/>
<path d="M0 0 C0.33 0 0.66 0 1 0 C1.33 1.98 1.66 3.96 2 6 C4.97 6.495 4.97 6.495 8 7 C8 5.02 8 3.04 8 1 C8.66 1.33 9.32 1.66 10 2 C10 3.98 10 5.96 10 8 C6.78548731 9.60725635 3.56387464 9.05748185 0 9 C0 6.03 0 3.06 0 0 Z " fill="#11468B" transform="translate(210,224)"/>
<path d="M0 0 C0.66 0.33 1.32 0.66 2 1 C2.625 4.0625 2.625 4.0625 3 7 C1.35 7.66 -0.3 8.32 -2 9 C-2 9.99 -2 10.98 -2 12 C-3.32 11.67 -4.64 11.34 -6 11 C-5.52619056 6.73571504 -2.96102273 4.88509907 0 2 C0 1.34 0 0.68 0 0 Z " fill="#5C71E0" transform="translate(437,213)"/>
<path d="M0 0 C1.32 0 2.64 0 4 0 C3.34 4.29 2.68 8.58 2 13 C1.34 12.67 0.68 12.34 0 12 C0.33 9.36 0.66 6.72 1 4 C-1.31 4 -3.62 4 -6 4 C-6 3.34 -6 2.68 -6 2 C-4.02 2 -2.04 2 0 2 C0 1.34 0 0.68 0 0 Z " fill="#C4587E" transform="translate(129,183)"/>
<path d="M0 0 C0.33 0 0.66 0 1 0 C1.76681614 8.62242152 1.76681614 8.62242152 -0.11328125 12 C-1.5 13.625 -1.5 13.625 -4 16 C-4.99 15.67 -5.98 15.34 -7 15 C-6.525625 14.608125 -6.05125 14.21625 -5.5625 13.8125 C-3.64734334 11.59091827 -3.52308986 9.83963065 -3 7 C-2.34 6.67 -1.68 6.34 -1 6 C-0.34227572 2.97065509 -0.34227572 2.97065509 0 0 Z " fill="#0E4182" transform="translate(226,223)"/>
<path d="M0 0 C2.475 0.99 2.475 0.99 5 2 C5 2.66 5 3.32 5 4 C5.61875 4.391875 6.2375 4.78375 6.875 5.1875 C9.8274995 7.70580839 10.16117044 10.29516943 11 14 C6.80312307 10.04999819 3.24385836 5.77103566 0 1 C0 0.67 0 0.34 0 0 Z " fill="#834584" transform="translate(427,186)"/>
<path d="M0 0 C2.97 0 5.94 0 9 0 C8.34 1.32 7.68 2.64 7 4 C6.67 4.99 6.34 5.98 6 7 C5.01 7 4.02 7 3 7 C2.87625 6.030625 2.7525 5.06125 2.625 4.0625 C2.41875 3.051875 2.2125 2.04125 2 1 C1.34 0.67 0.68 0.34 0 0 Z " fill="#FB6E76" transform="translate(417,169)"/>
<path d="M0 0 C1.32 0.66 2.64 1.32 4 2 C2.90220176 3.15193623 1.79650554 4.29634937 0.6875 5.4375 C0.07261719 6.07558594 -0.54226563 6.71367187 -1.17578125 7.37109375 C-3 9 -3 9 -6 10 C-4.6302836 6.00499382 -2.74277578 3.19990508 0 0 Z " fill="#2FC1ED" transform="translate(466,214)"/>
<path d="M0 0 C3.79588866 0.54226981 5.47211993 2.20127563 8 5 C7.34 3.35 6.68 1.7 6 0 C6.66 0 7.32 0 8 0 C8.33 1.98 8.66 3.96 9 6 C7.1875 6.6875 7.1875 6.6875 5 7 C3.375 5.625 3.375 5.625 2 4 C1.34 3.67 0.68 3.34 0 3 C-0.33 3.66 -0.66 4.32 -1 5 C-1.33 4.34 -1.66 3.68 -2 3 C-1.34 2.01 -0.68 1.02 0 0 Z " fill="#45377E" transform="translate(432,200)"/>
<path d="M0 0 C0.66 0 1.32 0 2 0 C1.35241592 3.49695404 0.09758712 6.12552877 -2 9 C-3.32594105 9.36162029 -4.65938457 9.69728039 -6 10 C-7.1500831 11.96672915 -7.1500831 11.96672915 -8 14 C-8.99 14.495 -8.99 14.495 -10 15 C-8.68822142 12.0737247 -7.24710766 10.24710766 -5 8 C-4.649375 7.29875 -4.29875 6.5975 -3.9375 5.875 C-3 4 -3 4 -1 3 C-0.67 2.01 -0.34 1.02 0 0 Z " fill="#558BE2" transform="translate(208,200)"/>
<path d="M0 0 C0.99 0.33 1.98 0.66 3 1 C3 1.66 3 2.32 3 3 C10.92 2.505 10.92 2.505 19 2 C19 2.66 19 3.32 19 4 C11.74 4 4.48 4 -3 4 C-2.34 3.67 -1.68 3.34 -1 3 C-0.67 2.01 -0.34 1.02 0 0 Z " fill="#6E3E88" transform="translate(193,157)"/>
<path d="M0 0 C0.66 0 1.32 0 2 0 C3.2890625 1.53125 3.2890625 1.53125 4.625 3.5 C5.07101562 4.1496875 5.51703125 4.799375 5.9765625 5.46875 C6.31429688 5.9740625 6.65203125 6.479375 7 7 C6.34 7.66 5.68 8.32 5 9 C4.01 8.34 3.02 7.68 2 7 C2 6.34 2 5.68 2 5 C0.68 5.33 -0.64 5.66 -2 6 C-1.34 4.02 -0.68 2.04 0 0 Z " fill="#31A1C6" transform="translate(466,208)"/>
<path d="M0 0 C2 1 2 1 3.1875 3.125 C4.20156877 6.71324334 3.71075869 9.37513066 3 13 C0.68468695 10.68468695 -0.07417343 9.13356684 -1 6 C-0.625 2.6875 -0.625 2.6875 0 0 Z " fill="#3949B8" transform="translate(438,207)"/>
<path d="M0 0 C0.66 0.33 1.32 0.66 2 1 C2 2.32 2 3.64 2 5 C0.35 5 -1.3 5 -3 5 C-3 5.66 -3 6.32 -3 7 C-3.99 7 -4.98 7 -6 7 C-6 6.01 -6 5.02 -6 4 C-5.34 4 -4.68 4 -4 4 C-4 3.34 -4 2.68 -4 2 C-2.125 0.9375 -2.125 0.9375 0 0 Z " fill="#8453E3" transform="translate(166,217)"/>
<path d="M0 0 C1.98 0.495 1.98 0.495 4 1 C3.67 2.32 3.34 3.64 3 5 C2.34 4.67 1.68 4.34 1 4 C1.66 5.65 2.32 7.3 3 9 C2.01 9.495 2.01 9.495 1 10 C0.34 9.67 -0.32 9.34 -1 9 C-0.67 6.03 -0.34 3.06 0 0 Z " fill="#47A0E7" transform="translate(221,186)"/>
<path d="M0 0 C-0.33 2.31 -0.66 4.62 -1 7 C-1.99 7 -2.98 7 -4 7 C-4.66 8.32 -5.32 9.64 -6 11 C-6.48951049 4.63636364 -6.48951049 4.63636364 -4.125 1.5625 C-2 0 -2 0 0 0 Z " fill="#C1606A" transform="translate(120,161)"/>
<path d="M0 0 C0.66 0.66 1.32 1.32 2 2 C4.20250992 2.46006346 4.20250992 2.46006346 6.625 2.625 C7.44226563 2.69976562 8.25953125 2.77453125 9.1015625 2.8515625 C9.72804687 2.90054688 10.35453125 2.94953125 11 3 C11 3.33 11 3.66 11 4 C10.41992188 4.06058594 9.83984375 4.12117187 9.2421875 4.18359375 C4.79907137 4.66016561 0.40094577 5.21008666 -4 6 C-3.34 5.67 -2.68 5.34 -2 5 C-1.6278958 3.67696283 -1.29369827 2.34262065 -1 1 C-0.67 0.67 -0.34 0.34 0 0 Z " fill="#32A5D6" transform="translate(210,219)"/>
<path d="M0 0 C0.75988352 2.36408207 1.0820237 3.69013267 0.4375 6.125 C0.293125 6.74375 0.14875 7.3625 0 8 C0.66 8.66 1.32 9.32 2 10 C1.34 10.66 0.68 11.32 0 12 C-1.32 10.35 -2.64 8.7 -4 7 C-2.92598892 4.08482708 -2.22189824 2.22189824 0 0 Z " fill="#713581" transform="translate(453,176)"/>
<path d="M0 0 C0.66 0.66 1.32 1.32 2 2 C-4.435 2.495 -4.435 2.495 -11 3 C-11.33 2.34 -11.66 1.68 -12 1 C-10.56496445 0.63597631 -9.12683494 0.28413409 -7.6875 -0.0625 C-6.88699219 -0.25972656 -6.08648437 -0.45695313 -5.26171875 -0.66015625 C-3 -1 -3 -1 0 0 Z " fill="#734BE0" transform="translate(155,235)"/>
<path d="M0 0 C-1.32 0.33 -2.64 0.66 -4 1 C-4 1.66 -4 2.32 -4 3 C-6.97 3.66 -9.94 4.32 -13 5 C-9.35915152 0.79902099 -5.5729332 -1.8576444 0 0 Z " fill="#DB5DB1" transform="translate(146,192)"/>
<path d="M0 0 C0.99 0.99 1.98 1.98 3 3 C2.02471263 4.33617352 1.04466681 5.6688751 0.0625 7 C-0.75541016 8.11375 -0.75541016 8.11375 -1.58984375 9.25 C-2.05519531 9.8275 -2.52054687 10.405 -3 11 C-3.33 11 -3.66 11 -4 11 C-4 9.02 -4 7.04 -4 5 C-2.68 5 -1.36 5 0 5 C0 3.35 0 1.7 0 0 Z " fill="#5F40A6" transform="translate(468,182)"/>
<path d="M0 0 C0.66 0.33 1.32 0.66 2 1 C2.34153937 2.66500443 2.67449498 4.33178677 3 6 C3.66 6.66 4.32 7.32 5 8 C2.69 8.33 0.38 8.66 -2 9 C-1.125 1.125 -1.125 1.125 0 0 Z " fill="#8E50CF" transform="translate(218,156)"/>
<path d="M0 0 C0.66 0.33 1.32 0.66 2 1 C0.19587357 4.26460973 -0.83394693 5.88929795 -4 8 C-7.1875 8.125 -7.1875 8.125 -10 8 C-8.00857507 6.43530899 -6.17245943 5.08115738 -3.875 4 C-1.66622819 3.01189614 -1.66622819 3.01189614 0 0 Z " fill="#508BE6" transform="translate(190,221)"/>
<path d="M0 0 C1.65 1.65 3.3 3.3 5 5 C2 7 2 7 -1 7 C-1.33 5.35 -1.66 3.7 -2 2 C-1.34 2 -0.68 2 0 2 C0 1.34 0 0.68 0 0 Z " fill="#2E3CA0" transform="translate(441,204)"/>
<path d="M0 0 C0.66 0 1.32 0 2 0 C2 0.66 2 1.32 2 2 C2.66 2 3.32 2 4 2 C4 2.99 4 3.98 4 5 C4.99 4.67 5.98 4.34 7 4 C7.33 4.66 7.66 5.32 8 6 C6.35 6.66 4.7 7.32 3 8 C2.67 7.01 2.34 6.02 2 5 C1.01 4.34 0.02 3.68 -1 3 C-0.67 2.01 -0.34 1.02 0 0 Z " fill="#AC56CA" transform="translate(174,180)"/>
<path d="M0 0 C-5.625 3 -5.625 3 -9 3 C-9 3.66 -9 4.32 -9 5 C-10.65 5.33 -12.3 5.66 -14 6 C-10.33829808 1.75242578 -5.68114185 -1.89371395 0 0 Z " fill="#CA58BE" transform="translate(182,174)"/>
<path d="M0 0 C1.65 0 3.3 0 5 0 C4.34 0.804375 3.68 1.60875 3 2.4375 C0.89745486 4.58961915 0.89745486 4.58961915 1 6 C-0.65 6 -2.3 6 -4 6 C-3.34 4.68 -2.68 3.36 -2 2 C-1.34 2 -0.68 2 0 2 C0 1.34 0 0.68 0 0 Z " fill="#616FDE" transform="translate(181,224)"/>
<path d="M0 0 C2.3431213 0.25561323 4.67843403 0.59270772 7 1 C7.33 1.66 7.66 2.32 8 3 C5.1875 4.125 5.1875 4.125 2 5 C1.01 4.34 0.02 3.68 -1 3 C-0.67 2.01 -0.34 1.02 0 0 Z " fill="#2EB0EA" transform="translate(209,215)"/>
<path d="M0 0 C1.39195915 4.17587745 -0.17676781 6.13474776 -2 10 C-3.34771696 7.78023089 -4.04398726 6.49852224 -3.8125 3.875 C-3 2 -3 2 0 0 Z " fill="#3695DD" transform="translate(456,210)"/>
<path d="M0 0 C0.66 1.32 1.32 2.64 2 4 C-0.35438733 5.42944945 -1.48032433 6.08661261 -4.25 5.625 C-4.8275 5.41875 -5.405 5.2125 -6 5 C-5.67 4.01 -5.34 3.02 -5 2 C-3.35 2 -1.7 2 0 2 C0 1.34 0 0.68 0 0 Z " fill="#7966DE" transform="translate(190,202)"/>
<path d="M0 0 C2.39763185 2.39763185 2.34280586 3.33273498 2.625 6.625 C2.69976562 7.44226563 2.77453125 8.25953125 2.8515625 9.1015625 C2.90054688 9.72804687 2.94953125 10.35453125 3 11 C2.01 11 1.02 11 0 11 C0 7.37 0 3.74 0 0 Z " fill="#E8739C" transform="translate(115,195)"/>
<path d="M0 0 C0 2.62834278 -0.19789762 5.08186701 -0.5 7.6875 C-0.5928125 8.49574219 -0.685625 9.30398437 -0.78125 10.13671875 C-0.8534375 10.75160156 -0.925625 11.36648437 -1 12 C-2.32 10.68 -3.64 9.36 -5 8 C-3.62845496 5.04590299 -2.01136276 2.55991624 0 0 Z " fill="#296594" transform="translate(454,207)"/>
<path d="M0 0 C-2.88035092 2.24027294 -5.84866512 4.16172132 -9 6 C-9.33 5.34 -9.66 4.68 -10 4 C-7.6604297 0.49064455 -4.21379901 -2.1068995 0 0 Z " fill="#B04CBF" transform="translate(468,170)"/>
<path d="M0 0 C0.33 0.99 0.66 1.98 1 3 C0.2884375 3.61875 0.2884375 3.61875 -0.4375 4.25 C-2.16266518 6.182185 -2.56584875 7.48192275 -3 10 C-4.32 10 -5.64 10 -7 10 C-5.63055898 7.05043472 -4.12169591 4.47531189 -2 2 C-1.34 2 -0.68 2 0 2 C0 1.34 0 0.68 0 0 Z " fill="#593E91" transform="translate(423,210)"/>
<path d="M0 0 C1.5625 1.25 1.5625 1.25 3 3 C2.6875 5.1875 2.6875 5.1875 2 7 C1.34 7 0.68 7 0 7 C0 7.66 0 8.32 0 9 C-0.66 9 -1.32 9 -2 9 C-2.33 7.68 -2.66 6.36 -3 5 C-2.34 5 -1.68 5 -1 5 C-0.67 3.35 -0.34 1.7 0 0 Z " fill="#4D4E94" transform="translate(455,195)"/>
<path d="M0 0 C2.64 0 5.28 0 8 0 C8 0.99 8 1.98 8 3 C5.36 3 2.72 3 0 3 C0 2.01 0 1.02 0 0 Z " fill="#E17481" transform="translate(122,166)"/>
<path d="M0 0 C0 0.99 0 1.98 0 3 C-2.97 3 -5.94 3 -9 3 C-9 2.34 -9 1.68 -9 1 C-5.846632 0.29925156 -3.27275026 0 0 0 Z " fill="#9748B9" transform="translate(131,220)"/>
<path d="M0 0 C0.33 0 0.66 0 1 0 C0.67 2.31 0.34 4.62 0 7 C-1.65 7.33 -3.3 7.66 -5 8 C-5 7.34 -5 6.68 -5 6 C-4.34 6 -3.68 6 -3 6 C-2.690625 5.195625 -2.38125 4.39125 -2.0625 3.5625 C-1 1 -1 1 0 0 Z " fill="#38B0E7" transform="translate(224,197)"/>
<path d="M0 0 C1.70884005 1.62339805 3.37446717 3.29319053 5 5 C5 5.66 5 6.32 5 7 C5.99 7.33 6.98 7.66 8 8 C7.67 8.66 7.34 9.32 7 10 C4.5625 9.3125 4.5625 9.3125 2 8 C1.25 5.5625 1.25 5.5625 1 3 C0.67 2.01 0.34 1.02 0 0 Z " fill="#623C89" transform="translate(447,185)"/>
<path d="M0 0 C0.99 0 1.98 0 3 0 C3 1.98 3 3.96 3 6 C2.34 5.34 1.68 4.68 1 4 C-1.10820797 4.3185177 -1.10820797 4.3185177 -3 5 C-1.125 1.125 -1.125 1.125 0 0 Z " fill="#588CD6" transform="translate(223,180)"/>
<path d="M0 0 C1.67542976 0.28604898 3.34385343 0.61781233 5 1 C5 1.99 5 2.98 5 4 C3.68 4.33 2.36 4.66 1 5 C0.34 3.68 -0.32 2.36 -1 1 C-0.67 0.67 -0.34 0.34 0 0 Z " fill="#9F4561" transform="translate(215,133)"/>
<path d="M0 0 C2.31 0.33 4.62 0.66 7 1 C6.67 1.99 6.34 2.98 6 4 C4.35 4 2.7 4 1 4 C0.67 2.68 0.34 1.36 0 0 Z " fill="#8563E3" transform="translate(211,180)"/>
<path d="M0 0 C1.32 1.32 2.64 2.64 4 4 C3.67 4.66 3.34 5.32 3 6 C1.02 6 -0.96 6 -3 6 C-2.01 4.02 -1.02 2.04 0 0 Z " fill="#6B579F" transform="translate(230,135)"/>
<path d="M0 0 C2 1.3125 2 1.3125 4 3 C4 3.99 4 4.98 4 6 C1.03 6 -1.94 6 -5 6 C-5 5.67 -5 5.34 -5 5 C-3.02 5 -1.04 5 1 5 C0.67 3.35 0.34 1.7 0 0 Z " fill="#49AEB0" transform="translate(483,229)"/>
<path d="M0 0 C1.32 0 2.64 0 4 0 C4 1.98 4 3.96 4 6 C3.01 6 2.02 6 1 6 C0.67 4.02 0.34 2.04 0 0 Z " fill="#A54BD5" transform="translate(132,221)"/>
<path d="M0 0 C2.31 0.33 4.62 0.66 7 1 C5.35 2.65 3.7 4.3 2 6 C1.34 4.02 0.68 2.04 0 0 Z " fill="#7144AA" transform="translate(473,174)"/>
<path d="M0 0 C1.32 0 2.64 0 4 0 C4.33 2.31 4.66 4.62 5 7 C3.29115995 5.37660195 1.62553283 3.70680947 0 2 C0 1.34 0 0.68 0 0 Z " fill="#AA575F" transform="translate(415,170)"/>
<path d="M0 0 C0.66 0.33 1.32 0.66 2 1 C2 2.65 2 4.3 2 6 C0.35 6.66 -1.3 7.32 -3 8 C-1.125 1.125 -1.125 1.125 0 0 Z " fill="#397BC3" transform="translate(456,204)"/>
<path d="M0 0 C2.64 0 5.28 0 8 0 C7.34 1.32 6.68 2.64 6 4 C5.34 4 4.68 4 4 4 C4 3.34 4 2.68 4 2 C2.68 1.67 1.36 1.34 0 1 C0 0.67 0 0.34 0 0 Z " fill="#D5689D" transform="translate(122,196)"/>
<path d="M0 0 C-0.66 1.32 -1.32 2.64 -2 4 C-2.66 4 -3.32 4 -4 4 C-4 3.34 -4 2.68 -4 2 C-5.98 2.33 -7.96 2.66 -10 3 C-6.64781163 0.76520776 -4.01177204 0 0 0 Z " fill="#3C42C7" transform="translate(170,233)"/>
<path d="M0 0 C1.32 0.33 2.64 0.66 4 1 C-0.625 5 -0.625 5 -4 5 C-2.68 3.35 -1.36 1.7 0 0 Z " fill="#674299" transform="translate(428,204)"/>
<path d="M0 0 C0.99 0.33 1.98 0.66 3 1 C3 1.66 3 2.32 3 3 C2.34 3 1.68 3 1 3 C0.67 3.99 0.34 4.98 0 6 C-0.99 5.67 -1.98 5.34 -3 5 C-2.34 4.67 -1.68 4.34 -1 4 C-0.34786708 1.97536745 -0.34786708 1.97536745 0 0 Z " fill="#BD54C8" transform="translate(442,188)"/>
<path d="M0 0 C0.66 0.33 1.32 0.66 2 1 C0.02 3.31 -1.96 5.62 -4 8 C-4.33 7.34 -4.66 6.68 -5 6 C-3.35 4.02 -1.7 2.04 0 0 Z " fill="#A5A8AC" transform="translate(251,176)"/>
<path d="M0 0 C0.33 0.66 0.66 1.32 1 2 C0.06553465 4.03144641 -0.93224776 6.03533587 -2 8 C-2.99 8 -3.98 8 -5 8 C-4.45773019 4.20411134 -2.79872437 2.52788007 0 0 Z " fill="#834088" transform="translate(460,168)"/>
<path d="M0 0 C-0.33 0.99 -0.66 1.98 -1 3 C-2.84765625 3.73046875 -2.84765625 3.73046875 -5.0625 4.1875 C-5.79597656 4.34605469 -6.52945312 4.50460938 -7.28515625 4.66796875 C-8.13400391 4.83232422 -8.13400391 4.83232422 -9 5 C-9 4.34 -9 3.68 -9 3 C-2.25 0 -2.25 0 0 0 Z " fill="#AA4DC5" transform="translate(480,163)"/>
<path d="M0 0 C2.475 0.99 2.475 0.99 5 2 C4.67 2.99 4.34 3.98 4 5 C1.9375 5.6875 1.9375 5.6875 0 6 C0 4.02 0 2.04 0 0 Z " fill="#51448D" transform="translate(235,141)"/>
<path d="M0 0 C1.65 0 3.3 0 5 0 C5.33 1.32 5.66 2.64 6 4 C4.35 3.67 2.7 3.34 1 3 C0.67 2.01 0.34 1.02 0 0 Z " fill="#6D3E9C" transform="translate(116,235)"/>
<path d="M0 0 C2.31 0 4.62 0 7 0 C6.67 0.66 6.34 1.32 6 2 C3.6859378 2.73075648 1.35171131 3.40138258 -1 4 C-0.67 2.68 -0.34 1.36 0 0 Z " fill="#5A89D9" transform="translate(211,196)"/>
<path d="M0 0 C1.98 0.99 1.98 0.99 4 2 C4 2.99 4 3.98 4 5 C4.66 5.33 5.32 5.66 6 6 C5.01 6 4.02 6 3 6 C0 2.66666667 0 2.66666667 0 0 Z " fill="#6F4296" transform="translate(454,187)"/>
<path d="M0 0 C0.66 0 1.32 0 2 0 C1.34 3.96 0.68 7.92 0 12 C-0.33 12 -0.66 12 -1 12 C-1.02687279 10.18757948 -1.04633715 8.37504767 -1.0625 6.5625 C-1.07410156 5.55316406 -1.08570313 4.54382813 -1.09765625 3.50390625 C-1 1 -1 1 0 0 Z " fill="#FDDAF4" transform="translate(156,176)"/>
<path d="M0 0 C3.31467895 1.53406629 5.03944771 2.86311633 7 6 C7 6.66 7 7.32 7 8 C6.34 8 5.68 8 5 8 C3.7109375 6.25 3.7109375 6.25 2.375 4 C1.92898438 3.2575 1.48296875 2.515 1.0234375 1.75 C0.68570312 1.1725 0.34796875 0.595 0 0 Z " fill="#8D4565" transform="translate(420,177)"/>
<path d="M0 0 C-5.625 3 -5.625 3 -9 3 C-9 2.34 -9 1.68 -9 1 C-5.57367167 -0.61798838 -3.61944899 -1.34053666 0 0 Z " fill="#C15BBB" transform="translate(480,163)"/>
</svg>
